<svg width="152" height="20" viewBox="0 0 152 20" fill="none" xmlns="http://www.w3.org/2000/svg">
<path d="M130.981 4.86133H132.998C133.945 4.86133 134.631 5.00293 135.054 5.28613C135.477 5.56934 135.688 6.01693 135.688 6.62891C135.688 7.05208 135.57 7.40202 135.332 7.67871C135.098 7.95215 134.754 8.12956 134.302 8.21094V8.25977C135.386 8.44531 135.928 9.01497 135.928 9.96875C135.928 10.6068 135.711 11.1048 135.278 11.4629C134.849 11.821 134.246 12 133.472 12H130.981V4.86133ZM131.812 7.91797H133.179C133.765 7.91797 134.186 7.82682 134.443 7.64453C134.701 7.45898 134.829 7.14811 134.829 6.71191C134.829 6.31152 134.686 6.02344 134.399 5.84766C134.113 5.66862 133.657 5.5791 133.032 5.5791H131.812V7.91797ZM131.812 8.62109V11.292H133.301C133.877 11.292 134.31 11.1813 134.6 10.96C134.893 10.7354 135.039 10.3854 135.039 9.91016C135.039 9.46745 134.889 9.14193 134.59 8.93359C134.294 8.72526 133.841 8.62109 133.232 8.62109H131.812ZM139.654 12.0977C138.863 12.0977 138.238 11.8568 137.779 11.375C137.324 10.8932 137.096 10.2243 137.096 9.36816C137.096 8.50553 137.307 7.82031 137.731 7.3125C138.157 6.80469 138.728 6.55078 139.445 6.55078C140.115 6.55078 140.646 6.77214 141.036 7.21484C141.427 7.6543 141.622 8.23535 141.622 8.95801V9.4707H137.936C137.952 10.099 138.11 10.5758 138.409 10.9014C138.712 11.2269 139.137 11.3896 139.684 11.3896C140.26 11.3896 140.83 11.2692 141.393 11.0283V11.751C141.106 11.8747 140.835 11.9626 140.577 12.0146C140.323 12.07 140.016 12.0977 139.654 12.0977ZM139.435 7.22949C139.005 7.22949 138.662 7.36947 138.404 7.64941C138.151 7.92936 138.001 8.31673 137.955 8.81152H140.753C140.753 8.30046 140.639 7.90983 140.411 7.63965C140.183 7.36621 139.858 7.22949 139.435 7.22949ZM144.788 11.4287C144.931 11.4287 145.069 11.4189 145.203 11.3994C145.336 11.3766 145.442 11.3538 145.52 11.3311V11.9512C145.432 11.9935 145.302 12.0277 145.129 12.0537C144.96 12.083 144.807 12.0977 144.67 12.0977C143.635 12.0977 143.118 11.5524 143.118 10.4619V7.27832H142.351V6.8877L143.118 6.55078L143.459 5.4082H143.928V6.64844H145.481V7.27832H143.928V10.4277C143.928 10.75 144.005 10.9974 144.158 11.1699C144.311 11.3424 144.521 11.4287 144.788 11.4287ZM149.935 12L149.774 11.2383H149.735C149.468 11.5736 149.201 11.8014 148.934 11.9219C148.671 12.0391 148.34 12.0977 147.943 12.0977C147.412 12.0977 146.996 11.9609 146.693 11.6875C146.393 11.4141 146.244 11.0251 146.244 10.5205C146.244 9.43978 147.108 8.87337 148.837 8.82129L149.745 8.79199V8.45996C149.745 8.04004 149.654 7.73079 149.471 7.53223C149.292 7.3304 149.004 7.22949 148.607 7.22949C148.161 7.22949 147.657 7.36621 147.093 7.63965L146.844 7.01953C147.108 6.8763 147.396 6.764 147.709 6.68262C148.024 6.60124 148.34 6.56055 148.656 6.56055C149.294 6.56055 149.766 6.70215 150.072 6.98535C150.381 7.26855 150.536 7.72266 150.536 8.34766V12H149.935ZM148.104 11.4287C148.609 11.4287 149.004 11.2904 149.291 11.0137C149.58 10.737 149.725 10.3496 149.725 9.85156V9.36816L148.915 9.40234C148.27 9.42513 147.805 9.52604 147.518 9.70508C147.235 9.88086 147.093 10.1559 147.093 10.5303C147.093 10.8232 147.181 11.0462 147.357 11.1992C147.536 11.3522 147.785 11.4287 148.104 11.4287Z" fill="black"/>
<path d="M4.56291 17.7189H0V20H4.56291H6.87696V17.7189V6.28106V4H4.56291H0V6.28106H4.56291V17.7189Z" fill="black"/>
<path d="M14.0141 17.6863H11.7326V15.4053H14.0141V17.6863H16.2955V15.4053V13.1242H14.0141H11.7326H9.45117V15.4053V17.6863V20H11.7326H14.0141V17.6863Z" fill="black"/>
<path d="M14.0141 6.28106V8.56212H11.7326V6.28106H14.0141V4H11.7326H9.45117V6.28106V8.56212V10.8758H11.7326H14.0141H16.2955V8.56212V6.28106H14.0141Z" fill="black"/>
<path d="M2.28146 13.1569H0V15.4379H2.28146V13.1569Z" fill="black"/>
<path d="M2.28146 8.56213H0V10.8432H2.28146V8.56213Z" fill="black"/>
<path d="M29.1699 17.6538V6.41144H32.9832C34.3847 6.41144 35.4928 6.63954 36.275 7.09576C37.8721 8.00818 38.8824 9.73527 38.8824 12.0163C38.8824 15.7312 36.6987 17.6212 33.1788 17.6212H29.1699V17.6538ZM33.3417 15.112C35.0039 15.112 36.0469 14.0693 36.0469 12.0163C36.0469 9.99596 35.0365 8.88802 33.3743 8.88802H32.0706V15.0795H33.3417V15.112Z" fill="black"/>
<path d="M46.8345 17.6538V16.7414H46.8019C46.4434 17.4909 45.433 17.9471 44.3249 17.9471C41.8479 17.9471 40.0879 15.9919 40.0879 13.4501C40.0879 10.9736 41.8805 8.95319 44.3249 8.95319C45.3678 8.95319 46.313 9.37681 46.8019 10.1263H46.8345V9.21388H49.3441V17.6538H46.8345ZM46.8345 13.4175C46.8345 12.2444 45.8893 11.2668 44.6834 11.2668C43.5427 11.2668 42.6301 12.2118 42.6301 13.4501C42.6301 14.6232 43.5427 15.5683 44.716 15.5683C45.8893 15.5683 46.8345 14.6232 46.8345 13.4175Z" fill="black"/>
<path d="M51.1699 17.6538V9.21388H53.5492V10.1263H53.5817C54.038 9.21388 54.7225 8.95319 55.7002 8.95319V11.4949C54.201 11.4949 53.7121 12.0815 53.7121 13.0265V17.6864H51.1699V17.6538Z" fill="black"/>
<path d="M62.023 17.6538L59.6438 13.5805H59.6112V17.6212H57.1016V6.41144H59.6112V12.277H59.6438L61.9904 9.21388H64.9889L61.8274 12.9287L64.9237 17.6538H62.023Z" fill="black"/>
<path d="M65.9668 17.6538V6.41144H68.4764V9.8982C69.1608 9.1813 70.0082 8.95319 70.8882 8.95319C73.0719 8.95319 75.0926 10.5825 75.0926 13.4175C75.0926 16.0245 73.4304 17.9797 70.823 17.9797C69.8127 17.9797 68.8023 17.5235 68.4112 16.8066H68.3786V17.719H65.9668V17.6538ZM72.583 13.4175C72.583 12.277 71.703 11.2668 70.4971 11.2668C69.3238 11.2668 68.4112 12.2118 68.4112 13.385C68.4112 14.6233 69.2912 15.5683 70.4645 15.5683C71.6379 15.5683 72.583 14.6233 72.583 13.4175Z" fill="black"/>
<path d="M76.3633 17.6538V6.41144H78.8729V17.6538H76.3633Z" fill="black"/>
<path d="M84.837 17.9145C82.2622 17.9145 80.3066 16.0245 80.3066 13.4501C80.3066 10.8432 82.3274 8.95319 84.837 8.95319C87.3792 8.95319 89.3673 10.8432 89.3673 13.4175C89.3999 16.0245 87.3792 17.9145 84.837 17.9145ZM86.8577 13.4175C86.8577 12.277 86.0103 11.2994 84.837 11.2994C83.7288 11.2994 82.8162 12.277 82.8162 13.4175C82.8162 14.5581 83.6962 15.5357 84.837 15.5357C86.0429 15.5357 86.8577 14.5581 86.8577 13.4175Z" fill="black"/>
<path d="M96.7656 12.4725C96.4071 11.6905 95.7553 11.2994 94.8753 11.2994C93.7346 11.2994 92.9198 12.2444 92.9198 13.4501C92.9198 14.6884 93.7672 15.6008 94.9405 15.6008C95.7879 15.6008 96.3745 15.2098 96.7656 14.4929H99.3404C98.8515 16.611 97.0264 17.9797 94.8753 17.9797C92.3983 17.9797 90.4102 15.9593 90.4102 13.4827C90.4102 10.9736 92.3983 8.98578 94.8427 8.98578C97.059 8.98578 98.8841 10.387 99.3404 12.5377H96.7656V12.4725Z" fill="black"/>
<path d="M105.533 17.6538L103.154 13.6131H103.121V17.6538H100.611V6.41144H103.121V12.277H103.154L105.5 9.21388H108.499L105.337 12.9287L108.433 17.6538H105.533Z" fill="black"/>
<path d="M109.641 17.6538V15.0795H112.281V17.6538H109.641Z" fill="black"/>
<path d="M114.236 8.33404V6.41144H116.746V8.33404H114.236ZM114.236 17.6538V9.21388H116.746V17.6538H114.236Z" fill="black"/>
<path d="M122.743 17.9145C120.168 17.9145 118.213 16.0245 118.213 13.4501C118.213 10.8432 120.234 8.95319 122.743 8.95319C125.285 8.95319 127.274 10.8432 127.274 13.4175C127.274 16.0245 125.285 17.9145 122.743 17.9145ZM124.764 13.4175C124.764 12.277 123.917 11.2994 122.743 11.2994C121.635 11.2994 120.722 12.277 120.722 13.4175C120.722 14.5581 121.602 15.5357 122.743 15.5357C123.917 15.5357 124.764 14.5581 124.764 13.4175Z" fill="black"/>
</svg>
