<svg width="150" height="22" viewBox="0 0 150 22" fill="none" xmlns="http://www.w3.org/2000/svg">
<path fill-rule="evenodd" clip-rule="evenodd" d="M0 0H6.28671H9.42975H9.42995V21.9998H9.42975V22H0V18.8572H6.28671V3.14283H0V0ZM3.14325 6.28544H0V9.42827H3.14325V6.28544ZM3.14325 12.5713H0V15.7141H3.14325V12.5713ZM18.8595 0H15.7163H12.573V3.14283V6.28544V9.42827V9.42848H15.7163V9.42827H18.8598V9.42859H22.0031V3.14293H18.8598V6.28544H15.7163V3.14283H18.8595V0ZM22.0028 18.857V15.7141V12.5713H18.8595H12.573V12.5713H12.5728L12.5728 21.9998H12.5728V22H18.8593V18.8572H15.716V15.7141H18.8595V18.857H22.0028Z" fill="black"/>
<path d="M40 18.5493V3H45.2873C47.2305 3 48.767 3.31549 49.8516 3.94648C52.0659 5.20845 53.4668 7.59718 53.4668 10.7521C53.4668 15.8901 50.4391 18.5042 45.5585 18.5042H40V18.5493ZM45.7844 15.0338C48.0891 15.0338 49.5352 13.5915 49.5352 10.7521C49.5352 7.95774 48.1343 6.42535 45.8296 6.42535H44.022V14.9887H45.7844V15.0338Z" fill="black"/>
<path d="M64.4932 18.5493V17.2874H64.448C63.9509 18.324 62.55 18.955 61.0135 18.955C57.579 18.955 55.1387 16.2508 55.1387 12.7353C55.1387 9.30993 57.6242 6.51556 61.0135 6.51556C62.4596 6.51556 63.7701 7.10148 64.448 8.1381H64.4932V6.87613H67.9728V18.5493H64.4932ZM64.4932 12.6902C64.4932 11.0677 63.1826 9.71556 61.5106 9.71556C59.9289 9.71556 58.6635 11.0226 58.6635 12.7353C58.6635 14.3578 59.9289 15.6648 61.5558 15.6648C63.1826 15.6648 64.4932 14.3578 64.4932 12.6902Z" fill="black"/>
<path d="M70.5049 18.5493V6.87613H73.8033V8.1381H73.8485C74.4811 6.87613 75.43 6.51556 76.7855 6.51556V10.0311C74.707 10.0311 74.0293 10.8423 74.0293 12.1494V18.5944H70.5049V18.5493Z" fill="black"/>
<path d="M85.5552 18.5493L82.2563 12.9155H82.2111V18.5042H78.7314V3H82.2111V11.1127H82.2563L85.5101 6.87605H89.6676L85.2841 12.0141L89.5772 18.5493H85.5552Z" fill="black"/>
<path d="M91.0234 18.5493V3H94.5031V7.82253C95.4521 6.83098 96.6271 6.51549 97.8472 6.51549C100.875 6.51549 103.677 8.769 103.677 12.6901C103.677 16.2958 101.372 19 97.7569 19C96.3559 19 94.955 18.369 94.4127 17.3774H94.3676V18.6394H91.0234V18.5493ZM100.197 12.6901C100.197 11.1127 98.977 9.71548 97.305 9.71548C95.6781 9.71548 94.4127 11.0225 94.4127 12.6451C94.4127 14.3577 95.6329 15.6648 97.2598 15.6648C98.8866 15.6648 100.197 14.3577 100.197 12.6901Z" fill="black"/>
<path d="M105.44 18.5493V3H108.92V18.5493H105.44Z" fill="black"/>
<path d="M117.19 18.9098C113.62 18.9098 110.908 16.2958 110.908 12.7352C110.908 9.12958 113.71 6.5155 117.19 6.5155C120.715 6.5155 123.471 9.12958 123.471 12.6901C123.516 16.2958 120.715 18.9098 117.19 18.9098ZM119.992 12.6901C119.992 11.1127 118.817 9.76057 117.19 9.76057C115.653 9.76057 114.388 11.1127 114.388 12.6901C114.388 14.2676 115.608 15.6197 117.19 15.6197C118.862 15.6197 119.992 14.2676 119.992 12.6901Z" fill="black"/>
<path d="M133.73 11.3831C133.233 10.3014 132.329 9.76054 131.109 9.76054C129.527 9.76054 128.398 11.0676 128.398 12.7352C128.398 14.4479 129.573 15.7098 131.199 15.7098C132.374 15.7098 133.188 15.169 133.73 14.1774H137.3C136.622 17.107 134.092 19 131.109 19C127.675 19 124.918 16.2056 124.918 12.7803C124.918 9.30984 127.675 6.56055 131.064 6.56055C134.137 6.56055 136.668 8.49857 137.3 11.4732H133.73V11.3831Z" fill="black"/>
<path d="M145.887 18.5493L142.588 12.9605H142.543V18.5493H139.063V3H142.543V11.1127H142.588L145.842 6.87605H150L145.616 12.0141L149.909 18.5493H145.887Z" fill="black"/>
</svg>
