<svg width="48" height="48" viewBox="0 0 48 48" fill="none" xmlns="http://www.w3.org/2000/svg">
<path d="M0 4C0 1.79086 1.79086 0 4 0H44C46.2091 0 48 1.79086 48 4V44C48 46.2091 46.2091 48 44 48H4C1.79086 48 0 46.2091 0 44V4Z" fill="#F4F4F0"/>
<path d="M25.4099 24.0002L29.7099 19.7102C29.8982 19.5219 30.004 19.2665 30.004 19.0002C30.004 18.7339 29.8982 18.4785 29.7099 18.2902C29.5216 18.1019 29.2662 17.9961 28.9999 17.9961C28.7336 17.9961 28.4782 18.1019 28.2899 18.2902L23.9999 22.5902L19.7099 18.2902C19.5216 18.1019 19.2662 17.9961 18.9999 17.9961C18.7336 17.9961 18.4782 18.1019 18.2899 18.2902C18.1016 18.4785 17.9958 18.7339 17.9958 19.0002C17.9958 19.2665 18.1016 19.5219 18.2899 19.7102L22.5899 24.0002L18.2899 28.2902C18.1962 28.3831 18.1218 28.4937 18.071 28.6156C18.0203 28.7375 17.9941 28.8682 17.9941 29.0002C17.9941 29.1322 18.0203 29.2629 18.071 29.3848C18.1218 29.5066 18.1962 29.6172 18.2899 29.7102C18.3829 29.8039 18.4935 29.8783 18.6154 29.9291C18.7372 29.9798 18.8679 30.006 18.9999 30.006C19.132 30.006 19.2627 29.9798 19.3845 29.9291C19.5064 29.8783 19.617 29.8039 19.7099 29.7102L23.9999 25.4102L28.2899 29.7102C28.3829 29.8039 28.4935 29.8783 28.6154 29.9291C28.7372 29.9798 28.8679 30.006 28.9999 30.006C29.132 30.006 29.2627 29.9798 29.3845 29.9291C29.5064 29.8783 29.617 29.8039 29.7099 29.7102C29.8037 29.6172 29.8781 29.5066 29.9288 29.3848C29.9796 29.2629 30.0057 29.1322 30.0057 29.0002C30.0057 28.8682 29.9796 28.7375 29.9288 28.6156C29.8781 28.4937 29.8037 28.3831 29.7099 28.2902L25.4099 24.0002Z" fill="black"/>
</svg>
