<svg width="25" height="24" viewBox="0 0 25 24" fill="none" xmlns="http://www.w3.org/2000/svg">
<path d="M21.5 16.5C21.5 16.88 21.29 17.21 20.97 17.38L13.07 21.82C12.91 21.94 12.71 22 12.5 22C12.29 22 12.09 21.94 11.93 21.82L4.03 17.38C3.86968 17.2958 3.73552 17.1692 3.64208 17.014C3.54864 16.8589 3.4995 16.6811 3.5 16.5V7.5C3.5 7.12 3.71 6.79 4.03 6.62L11.93 2.18C12.09 2.06 12.29 2 12.5 2C12.71 2 12.91 2.06 13.07 2.18L20.97 6.62C21.29 6.79 21.5 7.12 21.5 7.5V16.5ZM12.5 4.15L6.54 7.5L12.5 10.85L18.46 7.5L12.5 4.15ZM5.5 15.91L11.5 19.29V12.58L5.5 9.21V15.91ZM19.5 15.91V9.21L13.5 12.58V19.29L19.5 15.91Z" fill="black"/>
<circle cx="12.5" cy="12" r="4" fill="black"/>
</svg>
