<svg width="40" height="40" viewBox="0 0 40 40" fill="none" xmlns="http://www.w3.org/2000/svg">
<path fill-rule="evenodd" clip-rule="evenodd" d="M0 0H11.4287H17.1426H17.1429V39.9992H17.1426V39.9995H0V34.2853H11.4287V5.71417H0V0ZM5.71419 11.428H0V17.1422H5.71419V11.428ZM5.71419 22.8567H0V28.5708H5.71419V22.8567ZM34.2851 0H28.5709H22.8567V5.71417V11.428V17.1421V17.1425H28.5709V17.1421H34.2857V17.1427H39.9999V5.71434H34.2857V11.428H28.5709V5.71417H34.2851V0ZM39.9993 34.285V28.5708V22.8567H34.2851H22.8568V22.8567H22.8563L22.8563 39.9992H22.8564V39.9995H34.2848V34.2853H28.5705V28.5708H34.2851V34.285H39.9993Z" fill="white"/>
</svg>
