<svg width="69" height="12" viewBox="0 0 69 12" fill="none" xmlns="http://www.w3.org/2000/svg">
<path d="M0 11.2424V0H3.30211C4.51571 0 5.4753 0.228106 6.15266 0.684318C7.5356 1.59674 8.41052 3.32383 8.41052 5.60489C8.41052 9.31976 6.51956 11.2098 3.47146 11.2098H0V11.2424ZM3.61257 8.70061C5.05196 8.70061 5.9551 7.65784 5.9551 5.60489C5.9551 3.58452 5.08018 2.47658 3.64079 2.47658H2.51187V8.66802H3.61257V8.70061Z" fill="white"/>
<path d="M15.2973 11.2424V10.3299H15.2691C14.9586 11.0794 14.0837 11.5356 13.1241 11.5356C10.9791 11.5356 9.45508 9.58045 9.45508 7.03869C9.45508 4.56211 11.0074 2.54175 13.1241 2.54175C14.0272 2.54175 14.8457 2.96537 15.2691 3.71486H15.2973V2.80244H17.4705V11.2424H15.2973ZM15.2973 7.00611C15.2973 5.83299 14.4788 4.85539 13.4346 4.85539C12.4467 4.85539 11.6565 5.8004 11.6565 7.03869C11.6565 8.21181 12.4467 9.15682 13.4628 9.15682C14.4788 9.15682 15.2973 8.21181 15.2973 7.00611Z" fill="white"/>
<path d="M19.0488 11.2424V2.80244H21.1091V3.71486H21.1373C21.5325 2.80244 22.1252 2.54175 22.9719 2.54175V5.0835C21.6736 5.0835 21.2502 5.67006 21.2502 6.61507V11.2749H19.0488V11.2424Z" fill="white"/>
<path d="M28.4473 11.2424L26.387 7.16904H26.3587V11.2098H24.1855V0H26.3587V5.86558H26.387L28.419 2.80244H31.0156L28.2779 6.51731L30.9591 11.2424H28.4473Z" fill="white"/>
<path d="M31.8633 11.2424V0H34.0365V3.48676C34.6292 2.76986 35.363 2.54175 36.125 2.54175C38.0159 2.54175 39.7658 4.17108 39.7658 7.00611C39.7658 9.61304 38.3264 11.5682 36.0685 11.5682C35.1936 11.5682 34.3187 11.112 33.98 10.3951H33.9518V11.3075H31.8633V11.2424ZM37.5926 7.00611C37.5926 5.86558 36.8306 4.8554 35.7863 4.8554C34.7703 4.8554 33.98 5.80041 33.98 6.97352C33.98 8.21181 34.7421 9.15682 35.7581 9.15682C36.7741 9.15682 37.5926 8.21181 37.5926 7.00611Z" fill="white"/>
<path d="M40.8672 11.2424V0H43.0404V11.2424H40.8672Z" fill="white"/>
<path d="M48.2043 11.5031C45.9746 11.5031 44.2812 9.61303 44.2812 7.03869C44.2812 4.43177 46.0311 2.54175 48.2043 2.54175C50.4057 2.54175 52.1273 4.43177 52.1273 7.00611C52.1555 9.61303 50.4057 11.5031 48.2043 11.5031ZM49.9541 7.00611C49.9541 5.86558 49.2203 4.88798 48.2043 4.88798C47.2447 4.88798 46.4544 5.86558 46.4544 7.00611C46.4544 8.14664 47.2165 9.12423 48.2043 9.12423C49.2485 9.12423 49.9541 8.14664 49.9541 7.00611Z" fill="white"/>
<path d="M58.5348 6.06098C58.2243 5.2789 57.6599 4.88786 56.8978 4.88786C55.91 4.88786 55.2044 5.83287 55.2044 7.03858C55.2044 8.27687 55.9382 9.18929 56.9543 9.18929C57.6881 9.18929 58.1961 8.79825 58.5348 8.08135H60.7644C60.3411 10.1995 58.7606 11.5681 56.8978 11.5681C54.7529 11.5681 53.0312 9.54774 53.0312 7.07116C53.0312 4.562 54.7529 2.57422 56.8696 2.57422C58.7888 2.57422 60.3693 3.97544 60.7644 6.12615H58.5348V6.06098Z" fill="white"/>
<path d="M66.1269 11.2424L64.0666 7.20163H64.0384V11.2424H61.8652V0H64.0384V5.86558H64.0666L66.0987 2.80244H68.6953L65.9576 6.51731L68.6388 11.2424H66.1269Z" fill="white"/>
</svg>
