<svg width="150" height="22" viewBox="0 0 150 22" fill="none" xmlns="http://www.w3.org/2000/svg">
<path fill-rule="evenodd" clip-rule="evenodd" d="M0 0H6.29835H9.44721H9.44741V21.9998H9.44721V22H0V18.8572H6.29835V3.14283H0V0ZM3.14907 6.28544H0V9.42827H3.14907V6.28544ZM3.14907 12.5713H0V15.7141H3.14907V12.5713ZM18.8944 0H15.7454H12.5963V3.14283V6.28544V9.42827V9.42848H15.7454V9.42827H18.8948V9.42859H22.0438V3.14293H18.8948V6.28544H15.7454V3.14283H18.8944V0ZM22.0435 18.857V15.7141V12.5713H18.8944H12.5963V12.5713H12.596L12.596 21.9998H12.5961V22H18.8942V18.8572H15.7451V15.7141H18.8944V18.857H22.0435Z" fill="black"/>
<path d="M40.0801 18.4582V3H45.3638C47.3057 3 48.8412 3.31365 49.925 3.94094C52.1379 5.19552 53.5378 7.57026 53.5378 10.7067C53.5378 15.8147 50.5121 18.4134 45.6348 18.4134H40.0801V18.4582ZM45.8606 14.9633C48.1638 14.9633 49.6089 13.5295 49.6089 10.7067C49.6089 7.92872 48.2089 6.4053 45.9058 6.4053H44.0993V14.9185H45.8606V14.9633Z" fill="black"/>
<path d="M64.5572 18.4582V17.2036H64.512C64.0152 18.2342 62.6153 18.8615 61.0798 18.8615C57.6476 18.8615 55.209 16.1731 55.209 12.6782C55.209 9.27288 57.6928 6.49487 61.0798 6.49487C62.525 6.49487 63.8346 7.07736 64.512 8.10791H64.5572V6.85333H68.0345V18.4582H64.5572ZM64.5572 12.6334C64.5572 11.0203 63.2475 9.67614 61.5766 9.67614C59.996 9.67614 58.7315 10.9755 58.7315 12.6782C58.7315 14.2912 59.996 15.5906 61.6217 15.5906C63.2475 15.5906 64.5572 14.2912 64.5572 12.6334Z" fill="black"/>
<path d="M70.5635 18.4582V6.85333H73.8602V8.10791H73.9053C74.5376 6.85332 75.4859 6.49487 76.8408 6.49487V9.98978C74.7634 9.98978 74.086 10.7963 74.086 12.0957V18.503H70.5635V18.4582Z" fill="black"/>
<path d="M85.6024 18.4582L82.3057 12.8574H82.2605V18.4134H78.7832V3H82.2605V11.0652H82.3057L85.5572 6.85336H89.712L85.3314 11.9613L89.6217 18.4582H85.6024Z" fill="black"/>
<path d="M91.0664 18.4583V3H94.5438V7.7943C95.4921 6.80855 96.6663 6.49491 97.8856 6.49491C100.911 6.49491 103.711 8.73523 103.711 12.6334C103.711 16.2179 101.408 18.9063 97.7953 18.9063C96.3953 18.9063 94.9954 18.279 94.4534 17.2933H94.4083V18.5479H91.0664V18.4583ZM100.234 12.6334C100.234 11.0652 99.0146 9.67617 97.3437 9.67617C95.7179 9.67617 94.4534 10.9756 94.4534 12.5886C94.4534 14.2912 95.6728 15.5906 97.2985 15.5906C98.9243 15.5906 100.234 14.2912 100.234 12.6334Z" fill="black"/>
<path d="M105.473 18.4582V3H108.95V18.4582H105.473Z" fill="black"/>
<path d="M117.214 18.8167C113.646 18.8167 110.937 16.2179 110.937 12.6782C110.937 9.09365 113.736 6.49487 117.214 6.49487C120.736 6.49487 123.491 9.09365 123.491 12.6334C123.536 16.2179 120.736 18.8167 117.214 18.8167ZM120.014 12.6334C120.014 11.0651 118.84 9.72094 117.214 9.72094C115.678 9.72094 114.414 11.0651 114.414 12.6334C114.414 14.2016 115.633 15.5458 117.214 15.5458C118.885 15.5458 120.014 14.2016 120.014 12.6334Z" fill="black"/>
<path d="M133.743 11.334C133.246 10.2586 132.343 9.72094 131.123 9.72094C129.543 9.72094 128.414 11.0203 128.414 12.6782C128.414 14.3808 129.588 15.6354 131.214 15.6354C132.388 15.6354 133.201 15.0977 133.743 14.112H137.31C136.633 17.0244 134.104 18.9063 131.123 18.9063C127.691 18.9063 124.937 16.1283 124.937 12.723C124.937 9.27287 127.691 6.53967 131.078 6.53967C134.149 6.53967 136.678 8.46635 137.31 11.4236H133.743V11.334Z" fill="black"/>
<path d="M145.89 18.4582L142.594 12.9022H142.549V18.4582H139.071V3H142.549V11.0652H142.594L145.845 6.85336H150L145.62 11.9613L149.91 18.4582H145.89Z" fill="black"/>
</svg>
