<svg width="24" height="24" viewBox="0 0 24 24" fill="none" xmlns="http://www.w3.org/2000/svg">
<path fill-rule="evenodd" clip-rule="evenodd" d="M16.3248 14.899L21.7048 20.279C21.8939 20.4682 22 20.7248 22 20.9923C21.9999 21.2599 21.8935 21.5164 21.7043 21.7055C21.515 21.8946 21.2584 22.0008 20.9909 22.0007C20.7234 22.0006 20.4669 21.8942 20.2778 21.705L14.8978 16.325C13.2895 17.5707 11.267 18.1569 9.24189 17.9643C7.21674 17.7718 5.341 16.815 3.99625 15.2886C2.6515 13.7622 1.93876 11.7808 2.00302 9.74753C2.06728 7.71427 2.90372 5.78185 4.34217 4.34339C5.78063 2.90494 7.71305 2.0685 9.74631 2.00424C11.7796 1.93998 13.761 2.65272 15.2874 3.99747C16.8138 5.34222 17.7706 7.21796 17.9631 9.24312C18.1556 11.2683 17.5694 13.2907 16.3238 14.899H16.3248ZM9.99977 16C11.5911 16 13.1172 15.3678 14.2424 14.2426C15.3676 13.1174 15.9998 11.5913 15.9998 9.99999C15.9998 8.40869 15.3676 6.88257 14.2424 5.75735C13.1172 4.63213 11.5911 3.99999 9.99977 3.99999C8.40847 3.99999 6.88235 4.63213 5.75713 5.75735C4.63191 6.88257 3.99977 8.40869 3.99977 9.99999C3.99977 11.5913 4.63191 13.1174 5.75713 14.2426C6.88235 15.3678 8.40847 16 9.99977 16Z" fill="black"/>
</svg>
