<svg width="128" height="24" viewBox="0 0 128 24" fill="none" xmlns="http://www.w3.org/2000/svg">
<path fill-rule="evenodd" clip-rule="evenodd" d="M16.3248 14.899L21.7048 20.279C21.8939 20.4682 22 20.7248 22 20.9923C21.9999 21.2599 21.8935 21.5164 21.7043 21.7055C21.515 21.8946 21.2584 22.0008 20.9909 22.0007C20.7234 22.0006 20.4669 21.8942 20.2778 21.705L14.8978 16.325C13.2895 17.5707 11.267 18.1569 9.24189 17.9643C7.21674 17.7718 5.341 16.815 3.99625 15.2886C2.6515 13.7622 1.93876 11.7808 2.00302 9.74753C2.06728 7.71427 2.90372 5.78185 4.34217 4.34339C5.78063 2.90494 7.71305 2.0685 9.74631 2.00424C11.7796 1.93998 13.761 2.65272 15.2874 3.99747C16.8138 5.34222 17.7706 7.21796 17.9631 9.24312C18.1556 11.2683 17.5694 13.2907 16.3238 14.899H16.3248ZM9.99977 16C11.5911 16 13.1172 15.3678 14.2424 14.2426C15.3676 13.1174 15.9998 11.5913 15.9998 9.99999C15.9998 8.40869 15.3676 6.88257 14.2424 5.75735C13.1172 4.63213 11.5911 3.99999 9.99977 3.99999C8.40847 3.99999 6.88235 4.63213 5.75713 5.75735C4.63191 6.88257 3.99977 8.40869 3.99977 9.99999C3.99977 11.5913 4.63191 13.1174 5.75713 14.2426C6.88235 15.3678 8.40847 16 9.99977 16V16Z" fill="black"/>
<path d="M33.216 6.576H41.104V8.304H35.216V11.296H40.384V12.928H35.216V18H33.216V6.576ZM42.5724 6.576H44.3964V8.304H42.5724V6.576ZM42.5724 9.728H44.3964V18H42.5724V9.728ZM46.4637 9.728H48.1918V10.944L48.2237 10.976C48.5011 10.5173 48.8637 10.16 49.3117 9.904C49.7597 9.63733 50.2558 9.504 50.7998 9.504C51.7064 9.504 52.4211 9.73867 52.9438 10.208C53.4664 10.6773 53.7277 11.3813 53.7277 12.32V18H51.9037V12.8C51.8824 12.1493 51.7438 11.68 51.4878 11.392C51.2318 11.0933 50.8318 10.944 50.2878 10.944C49.9784 10.944 49.7011 11.0027 49.4557 11.12C49.2104 11.2267 49.0024 11.3813 48.8317 11.584C48.6611 11.776 48.5277 12.0053 48.4318 12.272C48.3358 12.5387 48.2878 12.8213 48.2878 13.12V18H46.4637V9.728ZM63.5233 18H61.7952V16.88H61.7632C61.5179 17.36 61.1606 17.7067 60.6912 17.92C60.2219 18.1227 59.7259 18.224 59.2032 18.224C58.5526 18.224 57.9819 18.112 57.4912 17.888C57.0112 17.6533 56.6112 17.3387 56.2912 16.944C55.9712 16.5493 55.7312 16.0853 55.5712 15.552C55.4112 15.008 55.3312 14.4267 55.3312 13.808C55.3312 13.0613 55.4326 12.416 55.6352 11.872C55.8379 11.328 56.1046 10.88 56.4352 10.528C56.7766 10.176 57.1606 9.92 57.5872 9.76C58.0246 9.58933 58.4672 9.504 58.9152 9.504C59.1713 9.504 59.4326 9.53067 59.6993 9.584C59.9659 9.62667 60.2219 9.70133 60.4672 9.808C60.7126 9.91467 60.9366 10.0533 61.1393 10.224C61.3526 10.384 61.5286 10.576 61.6673 10.8H61.6993V6.576H63.5233V18ZM57.1552 13.952C57.1552 14.304 57.1979 14.6507 57.2832 14.992C57.3792 15.3333 57.5179 15.6373 57.6992 15.904C57.8912 16.1707 58.1312 16.384 58.4193 16.544C58.7073 16.704 59.0486 16.784 59.4433 16.784C59.8486 16.784 60.1953 16.6987 60.4833 16.528C60.7819 16.3573 61.0219 16.1333 61.2032 15.856C61.3953 15.5787 61.5339 15.2693 61.6193 14.928C61.7153 14.576 61.7632 14.2187 61.7632 13.856C61.7632 12.9387 61.5553 12.224 61.1393 11.712C60.7339 11.2 60.1792 10.944 59.4752 10.944C59.0486 10.944 58.6859 11.0347 58.3872 11.216C58.0992 11.3867 57.8592 11.616 57.6672 11.904C57.4859 12.1813 57.3526 12.5013 57.2672 12.864C57.1926 13.216 57.1552 13.5787 57.1552 13.952ZM70.3496 6.576H73.1656L76.3176 15.52H76.3496L79.4216 6.576H82.2056V18H80.3016V9.184H80.2696L77.1016 18H75.4536L72.2856 9.184H72.2536V18H70.3496V6.576ZM83.5124 9.728H85.5124L87.6724 15.904H87.7044L89.8004 9.728H91.7044L88.4884 18.448C88.339 18.8213 88.1897 19.1787 88.0404 19.52C87.9017 19.8613 87.7257 20.16 87.5124 20.416C87.3097 20.6827 87.0537 20.8907 86.7444 21.04C86.435 21.2 86.0404 21.28 85.5604 21.28C85.1337 21.28 84.7124 21.248 84.2964 21.184V19.648C84.4457 19.6693 84.5897 19.6907 84.7284 19.712C84.867 19.744 85.011 19.76 85.1604 19.76C85.3737 19.76 85.5497 19.7333 85.6884 19.68C85.827 19.6267 85.939 19.5467 86.0244 19.44C86.1204 19.344 86.2004 19.2267 86.2644 19.088C86.3284 18.9493 86.387 18.7893 86.4404 18.608L86.6484 17.968L83.5124 9.728ZM97.5104 6.576H99.6224L104.838 14.992H104.87V6.576H106.774V18H104.662L99.4624 9.6H99.4144V18H97.5104V6.576ZM109.217 6.576H117.105V8.304H111.217V11.296H116.385V12.928H111.217V18H109.217V6.576ZM117.694 6.576H126.942V8.304H123.31V18H121.31V8.304H117.694V6.576Z" fill="black"/>
</svg>
