<svg width="160" height="48" viewBox="0 0 160 48" fill="none" xmlns="http://www.w3.org/2000/svg">
<path d="M0 4C0 1.79086 1.79086 0 4 0H156C158.209 0 160 1.79086 160 4V44C160 46.2091 158.209 48 156 48H4C1.79086 48 0 46.2091 0 44V4Z" fill="#F9F9F9"/>
<path fill-rule="evenodd" clip-rule="evenodd" d="M32.3248 26.899L37.7048 32.279C37.8939 32.4682 38 32.7248 38 32.9923C37.9999 33.2599 37.8935 33.5164 37.7043 33.7055C37.515 33.8946 37.2584 34.0008 36.9909 34.0007C36.7234 34.0006 36.4669 33.8942 36.2778 33.705L30.8978 28.325C29.2895 29.5707 27.267 30.1569 25.2419 29.9643C23.2167 29.7718 21.341 28.815 19.9962 27.2886C18.6515 25.7622 17.9388 23.7808 18.003 21.7475C18.0673 19.7143 18.9037 17.7818 20.3422 16.3434C21.7806 14.9049 23.713 14.0685 25.7463 14.0042C27.7796 13.94 29.761 14.6527 31.2874 15.9975C32.8138 17.3422 33.7706 19.218 33.9631 21.2431C34.1556 23.2683 33.5694 25.2907 32.3238 26.899H32.3248ZM25.9998 28C27.5911 28 29.1172 27.3678 30.2424 26.2426C31.3676 25.1174 31.9998 23.5913 31.9998 22C31.9998 20.4087 31.3676 18.8826 30.2424 17.7573C29.1172 16.6321 27.5911 16 25.9998 16C24.4085 16 22.8823 16.6321 21.7571 17.7573C20.6319 18.8826 19.9998 20.4087 19.9998 22C19.9998 23.5913 20.6319 25.1174 21.7571 26.2426C22.8823 27.3678 24.4085 28 25.9998 28V28Z" fill="black"/>
<path d="M49.216 18.576H57.104V20.304H51.216V23.296H56.384V24.928H51.216V30H49.216V18.576ZM58.5724 18.576H60.3964V20.304H58.5724V18.576ZM58.5724 21.728H60.3964V30H58.5724V21.728ZM62.4637 21.728H64.1918V22.944L64.2237 22.976C64.5011 22.5173 64.8637 22.16 65.3117 21.904C65.7597 21.6373 66.2558 21.504 66.7998 21.504C67.7064 21.504 68.4211 21.7387 68.9438 22.208C69.4664 22.6773 69.7277 23.3813 69.7277 24.32V30H67.9037V24.8C67.8824 24.1493 67.7438 23.68 67.4878 23.392C67.2318 23.0933 66.8318 22.944 66.2878 22.944C65.9784 22.944 65.7011 23.0027 65.4557 23.12C65.2104 23.2267 65.0024 23.3813 64.8317 23.584C64.6611 23.776 64.5277 24.0053 64.4318 24.272C64.3358 24.5387 64.2878 24.8213 64.2878 25.12V30H62.4637V21.728ZM79.5233 30H77.7952V28.88H77.7632C77.5179 29.36 77.1606 29.7067 76.6912 29.92C76.2219 30.1227 75.7259 30.224 75.2032 30.224C74.5526 30.224 73.9819 30.112 73.4912 29.888C73.0112 29.6533 72.6112 29.3387 72.2912 28.944C71.9712 28.5493 71.7312 28.0853 71.5712 27.552C71.4112 27.008 71.3312 26.4267 71.3312 25.808C71.3312 25.0613 71.4326 24.416 71.6352 23.872C71.8379 23.328 72.1046 22.88 72.4352 22.528C72.7766 22.176 73.1606 21.92 73.5872 21.76C74.0246 21.5893 74.4672 21.504 74.9152 21.504C75.1713 21.504 75.4326 21.5307 75.6993 21.584C75.9659 21.6267 76.2219 21.7013 76.4672 21.808C76.7126 21.9147 76.9366 22.0533 77.1393 22.224C77.3526 22.384 77.5286 22.576 77.6673 22.8H77.6993V18.576H79.5233V30ZM73.1552 25.952C73.1552 26.304 73.1979 26.6507 73.2832 26.992C73.3792 27.3333 73.5179 27.6373 73.6992 27.904C73.8912 28.1707 74.1312 28.384 74.4193 28.544C74.7073 28.704 75.0486 28.784 75.4433 28.784C75.8486 28.784 76.1953 28.6987 76.4833 28.528C76.7819 28.3573 77.0219 28.1333 77.2032 27.856C77.3953 27.5787 77.5339 27.2693 77.6193 26.928C77.7153 26.576 77.7632 26.2187 77.7632 25.856C77.7632 24.9387 77.5553 24.224 77.1393 23.712C76.7339 23.2 76.1792 22.944 75.4752 22.944C75.0486 22.944 74.6859 23.0347 74.3872 23.216C74.0992 23.3867 73.8592 23.616 73.6672 23.904C73.4859 24.1813 73.3526 24.5013 73.2672 24.864C73.1926 25.216 73.1552 25.5787 73.1552 25.952ZM86.3496 18.576H89.1656L92.3176 27.52H92.3496L95.4216 18.576H98.2056V30H96.3016V21.184H96.2696L93.1016 30H91.4536L88.2856 21.184H88.2536V30H86.3496V18.576ZM99.5124 21.728H101.512L103.672 27.904H103.704L105.8 21.728H107.704L104.488 30.448C104.339 30.8213 104.19 31.1787 104.04 31.52C103.902 31.8613 103.726 32.16 103.512 32.416C103.31 32.6827 103.054 32.8907 102.744 33.04C102.435 33.2 102.04 33.28 101.56 33.28C101.134 33.28 100.712 33.248 100.296 33.184V31.648C100.446 31.6693 100.59 31.6907 100.728 31.712C100.867 31.744 101.011 31.76 101.16 31.76C101.374 31.76 101.55 31.7333 101.688 31.68C101.827 31.6267 101.939 31.5467 102.024 31.44C102.12 31.344 102.2 31.2267 102.264 31.088C102.328 30.9493 102.387 30.7893 102.44 30.608L102.648 29.968L99.5124 21.728ZM113.51 18.576H115.622L120.838 26.992H120.87V18.576H122.774V30H120.662L115.462 21.6H115.414V30H113.51V18.576ZM125.217 18.576H133.105V20.304H127.217V23.296H132.385V24.928H127.217V30H125.217V18.576ZM133.694 18.576H142.942V20.304H139.31V30H137.31V20.304H133.694V18.576Z" fill="black"/>
</svg>
