<svg width="16" height="16" viewBox="0 0 16 16" fill="none" xmlns="http://www.w3.org/2000/svg">
<path d="M15.4668 6.28569H14.9335V2.85713C14.9335 2.70558 14.8773 2.56024 14.7773 2.45307C14.6773 2.34591 14.5417 2.28571 14.4003 2.28571H1.60253C1.47626 2.28791 1.35336 2.24203 1.25571 2.15622C1.15806 2.07041 1.092 1.95025 1.06929 1.81714V1.61142C1.092 1.4783 1.15806 1.35814 1.25571 1.27234C1.35336 1.18653 1.47626 1.14065 1.60253 1.14285H14.1763C14.3177 1.14285 14.4534 1.08265 14.5534 0.975486C14.6534 0.868322 14.7096 0.722978 14.7096 0.571426C14.7096 0.419875 14.6534 0.27453 14.5534 0.167367C14.4534 0.0602038 14.3177 0 14.1763 0H1.60253C1.17825 0 0.77136 0.180611 0.471354 0.502101C0.171349 0.82359 0.0028071 1.25962 0.0028071 1.71428C-0.000935701 1.78279 -0.000935701 1.85148 0.0028071 1.91999V13.6742C0.00490021 13.9819 0.0635251 14.2861 0.175334 14.5695C0.287143 14.8529 0.449947 15.1099 0.654449 15.3259C0.858952 15.5418 1.10115 15.7125 1.36721 15.8282C1.63327 15.9438 1.91798 16.0022 2.20509 15.9999H14.4003C14.5417 15.9999 14.6773 15.9397 14.7773 15.8326C14.8773 15.7254 14.9335 15.5801 14.9335 15.4285V12H15.4668C15.6082 12 15.7438 11.9397 15.8438 11.8326C15.9438 11.7254 16 11.5801 16 11.4285V6.85712C16 6.70556 15.9438 6.56022 15.8438 6.45306C15.7438 6.34589 15.6082 6.28569 15.4668 6.28569ZM13.867 14.8571H2.20509C1.9085 14.8602 1.62278 14.7376 1.41008 14.5161C1.19737 14.2946 1.0749 13.992 1.06929 13.6742V3.35999C1.24238 3.41374 1.42248 3.4369 1.60253 3.42856H13.867V6.28569H10.1344C9.42724 6.28569 8.74908 6.58671 8.24908 7.12252C7.74907 7.65834 7.46816 8.38506 7.46816 9.14282C7.46816 9.90058 7.74907 10.6273 8.24908 11.1631C8.74908 11.6989 9.42724 12 10.1344 12H13.867V14.8571ZM14.9335 10.8571H10.1344C9.71009 10.8571 9.3032 10.6765 9.00319 10.355C8.70318 10.0335 8.53464 9.59748 8.53464 9.14282C8.53464 8.68817 8.70318 8.25213 9.00319 7.93064C9.3032 7.60915 9.71009 7.42854 10.1344 7.42854H14.9335V10.8571Z" fill="black"/>
</svg>
