<svg width="24" height="24" viewBox="0 0 24 24" fill="none" xmlns="http://www.w3.org/2000/svg">
<path fill-rule="evenodd" clip-rule="evenodd" d="M6 5C5.45228 5 5 5.45228 5 6C5 6.26522 5.10536 6.51957 5.29289 6.70711C5.48043 6.89464 5.73478 7 6 7H17V5H6ZM6 9C5.65606 9 5.3182 8.94094 5 8.82843V18C5 18.5477 5.45228 19 6 19H19V17H18C16.3477 17 15 15.6523 15 14C15 13.2043 15.3161 12.4413 15.8787 11.8787C16.4413 11.3161 17.2043 11 18 11H19V9H6ZM21 11V8C21 7.44772 20.5523 7 20 7H19V4C19 3.44772 18.5523 3 18 3H6C4.34772 3 3 4.34772 3 6V18C3 19.6523 4.34772 21 6 21H20C20.5523 21 21 20.5523 21 20V17H22C22.5523 17 23 16.5523 23 16V12C23 11.4477 22.5523 11 22 11H21ZM20 13H18C17.7348 13 17.4804 13.1054 17.2929 13.2929C17.1054 13.4804 17 13.7348 17 14C17 14.5477 17.4523 15 18 15H20H21V13H20Z" fill="black"/>
</svg>
