<svg xmlns="http://www.w3.org/2000/svg" width="16.264" height="19.556" viewBox="0 0 16.264 19.556"><defs><style>.a{fill:#fff8f8;}.b{fill:none;stroke:#000;stroke-linecap:round;stroke-width:1.5px;}.c,.d{stroke:none;}.d{fill:#000;}</style></defs><g transform="translate(-1663 -86.412)"><g class="a" transform="translate(1679.264 99.412) rotate(90)"><path class="c" d="M 4.392706394195557 15.7640438079834 L -4.86797571182251 15.7640438079834 C -9.076285362243652 15.7640438079834 -12.49999523162842 12.34033393859863 -12.49999523162842 8.132023811340332 C -12.49999523162842 3.92371392250061 -9.076285362243652 0.5000038146972656 -4.86797571182251 0.5000038146972656 L 4.392654895782471 0.5000038146972656 C 4.397242069244385 2.893605470657349 4.397271633148193 13.37383270263672 4.392706394195557 15.7640438079834 Z"/><path class="d" d="M -4.867975234985352 1.000003814697266 C -8.800585746765137 1.000003814697266 -11.99999523162842 4.199414253234863 -11.99999523162842 8.132023811340332 C -11.99999523162842 12.06463432312012 -8.800585746765137 15.2640438079834 -4.867975234985352 15.2640438079834 L 3.893976211547852 15.2640438079834 C 3.898282051086426 12.37074565887451 3.898250579833984 3.896430969238281 3.893915176391602 1.000003814697266 L -4.867975234985352 1.000003814697266 M -4.867975234985352 3.814697265625e-06 L 4.890454292297363 3.814697265625e-06 C 4.898454666137695 0.004613876342773438 4.899184226989746 16.26177406311035 4.890454292297363 16.2640438079834 L -4.867975234985352 16.2640438079834 C -9.359165191650391 16.2640438079834 -12.99999618530273 12.62321376800537 -12.99999618530273 8.132023811340332 C -12.99999618530273 3.640833854675293 -9.359165191650391 3.814697265625e-06 -4.867975234985352 3.814697265625e-06 Z"/></g><g transform="translate(3342.263 189.5) rotate(180)"><circle cx="0.75" cy="0.75" r="0.75" transform="translate(1670.382 90)"/><circle cx="0.75" cy="0.75" r="0.75" transform="translate(1674.382 90)"/><circle cx="0.75" cy="0.75" r="0.75" transform="translate(1666.382 90)"/></g><g transform="translate(3342.263 190.5) rotate(180)"><circle cx="0.75" cy="0.75" r="0.75" transform="translate(1670.382 94)"/><circle cx="0.75" cy="0.75" r="0.75" transform="translate(1674.382 94)"/><circle cx="0.75" cy="0.75" r="0.75" transform="translate(1666.382 94)"/></g><g transform="translate(3342.263 187.5) rotate(180)"><circle cx="0.75" cy="0.75" r="0.75" transform="translate(1670.382 94)"/><circle cx="0.75" cy="0.75" r="0.75" transform="translate(1674.382 94)"/><circle cx="0.75" cy="0.75" r="0.75" transform="translate(1666.382 94)"/></g><g transform="translate(1671.131 102.658)"><line class="b" y2="2.56" transform="translate(0 0)"/></g><g transform="translate(1675.131 102.658)"><line class="b" y2="2.56" transform="translate(0 0)"/></g><g transform="translate(1667.131 102.658)"><line class="b" y2="2.56" transform="translate(0 0)"/></g></g></svg>