<svg xmlns="http://www.w3.org/2000/svg" width="77" height="45" viewBox="0 0 77 45"><defs><style>.a{fill:#f8f8f8;stroke:#f2f2f2;}.b{stroke:none;}.c{fill:none;}</style></defs><g class="a"><rect class="b" width="77" height="45" rx="22.5"/><rect class="c" x="0.5" y="0.5" width="76" height="44" rx="22"/></g><g transform="translate(26.5 9)"><g transform="translate(8.744 8.744)"><path d="M133.919,132.374l2.506-2.506a1.093,1.093,0,1,0-1.545-1.545l-2.506,2.506-2.506-2.506a1.093,1.093,0,1,0-1.545,1.545l2.506,2.506-2.506,2.506a1.093,1.093,0,1,0,1.545,1.545l2.506-2.506,2.506,2.506a1.093,1.093,0,0,0,1.545-1.545Z" transform="translate(-128.002 -128.002)"/></g></g></svg>