<svg xmlns="http://www.w3.org/2000/svg" width="47" height="47" viewBox="0 0 47 47"><defs><style>.a{fill:#ffefef;stroke:#ffe4e4;}.b{stroke:none;}.c{fill:none;}</style></defs><g class="a"><rect class="b" width="47" height="47" rx="23.5"/><rect class="c" x="0.5" y="0.5" width="46" height="46" rx="23"/></g><path transform="translate(10.744 10.744)" d="M25.138,12.023a1.093,1.093,0,0,0-1.093,1.093,10.93,10.93,0,1,1-3.174-7.7,1.093,1.093,0,1,0,1.551-1.541,13.116,13.116,0,1,0,3.809,9.242A1.093,1.093,0,0,0,25.138,12.023Z"/><g transform="translate(19.744 19.744)"><path d="M133.919,132.374l2.506-2.506a1.093,1.093,0,1,0-1.545-1.545l-2.506,2.506-2.506-2.506a1.093,1.093,0,1,0-1.545,1.545l2.506,2.506-2.506,2.506a1.093,1.093,0,1,0,1.545,1.545l2.506-2.506,2.506,2.506a1.093,1.093,0,0,0,1.545-1.545Z" transform="translate(-128.002 -128.002)"/></g></svg>