<svg xmlns="http://www.w3.org/2000/svg" width="13" height="13" viewBox="0 0 13 13">
  <path id="badge" d="M12.382,5.221a2.188,2.188,0,0,1-.819-1.976A1.633,1.633,0,0,0,9.755,1.436,2.188,2.188,0,0,1,7.779.618a1.632,1.632,0,0,0-2.558,0,2.188,2.188,0,0,1-1.976.819A1.633,1.633,0,0,0,1.436,3.245,2.188,2.188,0,0,1,.618,5.221a1.633,1.633,0,0,0,0,2.558,2.188,2.188,0,0,1,.819,1.976,1.633,1.633,0,0,0,1.809,1.809,2.188,2.188,0,0,1,1.976.818,1.632,1.632,0,0,0,2.558,0,2.188,2.188,0,0,1,1.976-.819,1.633,1.633,0,0,0,1.809-1.809,2.188,2.188,0,0,1,.819-1.976,1.633,1.633,0,0,0,0-2.558Z" fill="#0089ff"/>
  <g id="check" transform="translate(3.5 -51.188)">
    <path id="Path_147" data-name="Path 147" d="M6.4,56.315l-3.48,3.48a.66.66,0,0,1-.934,0L.193,58a.66.66,0,0,1,.934-.934l1.33,1.33,3.013-3.013a.66.66,0,0,1,.934.934Z" transform="translate(0 0)" fill="#fff"/>
  </g>
</svg>
