<svg xmlns="http://www.w3.org/2000/svg" width="35.104" height="24.517" viewBox="0 0 35.104 24.517">
  <g id="Group_290" data-name="Group 290" transform="translate(-1707.12 -25.775)">
    <path id="Path_178" data-name="Path 178" d="M0,0A11.909,11.909,0,0,0-11.909,11.909,11.908,11.908,0,0,0,0,23.817H10.587A11.908,11.908,0,0,0,10.587,0Z" transform="translate(1719.379 26.125)" fill="#fff"/>
    <path id="Path_179" data-name="Path 179" d="M0,0A11.909,11.909,0,0,0-11.909,11.909,11.908,11.908,0,0,0,0,23.817H10.587A11.908,11.908,0,0,0,10.587,0Z" transform="translate(1719.379 26.125)" fill="none" stroke="#fdcee3" stroke-width="0.7"/>
    <path id="Path_180" data-name="Path 180" d="M0,0A5.668,5.668,0,0,0,5.668-5.668,5.668,5.668,0,0,0,0-11.337,5.668,5.668,0,0,0-5.668-5.668,5.668,5.668,0,0,0,0,0Z" transform="translate(1725.048 43.702)" fill="none" stroke="#fdd2e5" stroke-width="0.5"/>
    <path id="Path_181" data-name="Path 181" d="M0,0A3.79,3.79,0,0,0,3.835,3.744,3.79,3.79,0,0,0,7.67,0" transform="translate(1721.213 38.22)" fill="#fdd2e5" stroke="#fdd2e5" stroke-linecap="round" stroke-width="0.5"/>
    <path id="Path_182" data-name="Path 182" d="M0,0H34.654V-24.067H0Z" transform="translate(1707.346 50.067)" fill="none"/>
    <path id="Path_183" data-name="Path 183" d="M0,0" transform="translate(1723.15 36.751)" fill="none" stroke="#fdd2e5" stroke-linecap="round" stroke-width="0.5"/>
    <path id="Path_184" data-name="Path 184" d="M0,0H7.513" transform="translate(1721.291 38.171)" fill="none" stroke="#fdd2e5" stroke-linecap="round" stroke-width="0.5"/>
    <path id="Path_185" data-name="Path 185" d="M0,0A.9.9,0,0,0-.725-.313.9.9,0,0,0-1.449,0" transform="translate(1723.462 35.729)" fill="none" stroke="#fca8cf" stroke-linecap="round" stroke-width="0.5"/>
    <path id="Path_186" data-name="Path 186" d="M0,0A.9.9,0,0,1,.725-.313.9.9,0,0,1,1.449,0" transform="translate(1726.695 35.729)" fill="none" stroke="#fca8cf" stroke-linecap="round" stroke-width="0.5"/>
    <path id="Path_187" data-name="Path 187" d="M0,0H34.654V-24.067H0Z" transform="translate(1707.346 50.067)" fill="none"/>
  </g>
</svg>
