<svg xmlns="http://www.w3.org/2000/svg" width="35.104" height="24.517" viewBox="0 0 35.104 24.517">
  <g id="Group_291" data-name="Group 291" transform="translate(-1660.775 -25.776)">
    <g id="Group_266" data-name="Group 266" transform="translate(1673.034 26.126)">
      <path id="Path_170" data-name="Path 170" d="M0,0A11.909,11.909,0,0,0-11.909,11.909,11.908,11.908,0,0,0,0,23.817H10.587A11.908,11.908,0,0,0,10.587,0Z" fill="#fff"/>
    </g>
    <g id="Group_267" data-name="Group 267" transform="translate(1673.034 26.126)">
      <path id="Path_171" data-name="Path 171" d="M0,0A11.909,11.909,0,0,0-11.909,11.909,11.908,11.908,0,0,0,0,23.817H10.587A11.908,11.908,0,0,0,10.587,0Z" fill="none" stroke="#fdcee3" stroke-width="0.7"/>
    </g>
    <g id="Group_268" data-name="Group 268" transform="translate(1678.327 43.515)">
      <path id="Path_172" data-name="Path 172" d="M0,0A5.48,5.48,0,0,0,5.48-5.48,5.48,5.48,0,0,0,0-10.961,5.48,5.48,0,0,0-5.48-5.48,5.48,5.48,0,0,0,0,0" fill="#fdd2e5"/>
    </g>
    <path id="Path_173" data-name="Path 173" d="M0,0H34.654V-24.067H0Z" transform="translate(1661 50.068)" fill="none"/>
    <text id="S" transform="translate(1676.327 39.698)" fill="#fff" font-size="6" font-family="Gotham Rounded" font-weight="500"><tspan x="0" y="0">S</tspan></text>
    <g id="Group_270" data-name="Group 270" transform="translate(1678.327 40.457)">
      <path id="Path_174" data-name="Path 174" d="M0,0V.482" fill="none" stroke="#fff" stroke-linecap="round" stroke-width="0.5"/>
    </g>
    <g id="Group_271" data-name="Group 271" transform="translate(1678.327 35.129)">
      <path id="Path_175" data-name="Path 175" d="M0,0V.479" fill="none" stroke="#fff" stroke-linecap="round" stroke-width="0.5"/>
    </g>
    <g id="Group_272" data-name="Group 272" transform="translate(1678.327 40.457)">
      <path id="Path_176" data-name="Path 176" d="M0,0V.482" fill="none" stroke="#fff" stroke-linecap="round" stroke-width="0.5"/>
    </g>
    <g id="Group_273" data-name="Group 273" transform="translate(1678.327 35.129)">
      <path id="Path_177" data-name="Path 177" d="M0,0V.479" fill="none" stroke="#fff" stroke-linecap="round" stroke-width="0.5"/>
    </g>
  </g>
</svg>
