<svg xmlns="http://www.w3.org/2000/svg" width="35.104" height="24.517" viewBox="0 0 35.104 24.517">
  <g id="Group_292" data-name="Group 292" transform="translate(-1613.948 -25.776)">
    <g id="Group_259" data-name="Group 259" transform="translate(1626.207 26.126)">
      <path id="Path_164" data-name="Path 164" d="M0,0A11.909,11.909,0,0,0-11.909,11.909,11.908,11.908,0,0,0,0,23.817H10.587A11.908,11.908,0,0,0,10.587,0Z" fill="#fff"/>
    </g>
    <g id="Group_260" data-name="Group 260" transform="translate(1626.207 26.126)">
      <path id="Path_165" data-name="Path 165" d="M0,0A11.909,11.909,0,0,0-11.909,11.909,11.908,11.908,0,0,0,0,23.817H10.587A11.908,11.908,0,0,0,10.587,0Z" fill="none" stroke="#fdcee3" stroke-width="0.7"/>
    </g>
    <g id="Group_261" data-name="Group 261" transform="translate(1631.5 43.514)">
      <path id="Path_166" data-name="Path 166" d="M0,0A5.479,5.479,0,0,0,5.48-5.479,5.48,5.48,0,0,0,0-10.96,5.48,5.48,0,0,0-5.48-5.479,5.479,5.479,0,0,0,0,0" fill="#fdd2e5"/>
    </g>
    <g id="Group_262" data-name="Group 262" transform="translate(1631.5 41.655)">
      <path id="Path_167" data-name="Path 167" d="M0,0A3.632,3.632,0,0,0,3.644-3.621,3.632,3.632,0,0,0,0-7.242,3.632,3.632,0,0,0-3.644-3.621,3.632,3.632,0,0,0,0,0Z" fill="none" stroke="#fff" stroke-width="0.5"/>
    </g>
    <g id="Group_263" data-name="Group 263" transform="translate(1631.5 39.86)">
      <path id="Path_168" data-name="Path 168" d="M0,0A1.854,1.854,0,0,0,1.881-1.826,1.854,1.854,0,0,0,0-3.652,1.854,1.854,0,0,0-1.881-1.826,1.854,1.854,0,0,0,0,0" fill="#fff"/>
    </g>
    <path id="Path_169" data-name="Path 169" d="M0,0H34.654V-24.067H0Z" transform="translate(1614.173 50.068)" fill="none"/>
  </g>
</svg>
