<svg xmlns="http://www.w3.org/2000/svg" xmlns:xlink="http://www.w3.org/1999/xlink" width="30" height="30" viewBox="0 0 30 30"><defs><style>.a,.c,.e{fill:none;}.b{clip-path:url(#a);}.d{fill:#ff90d0;}.d,.e{stroke:#ff90d0;stroke-linecap:round;}.f,.g{stroke:none;}.g{fill:#ff90d0;}</style><clipPath id="a"><path class="a" d="M0,14.327H30v-30H0Z" transform="translate(0 15.673)"/></clipPath></defs><g transform="translate(0 15.673)"><g class="b" transform="translate(0 -15.673)"><g transform="translate(0.357 0.357)"><g class="c" transform="translate(7.65 15.3)"><path class="f" d="M6.993,13.986A14.643,14.643,0,0,0,21.636-.657,14.643,14.643,0,0,0,6.993-15.3,14.643,14.643,0,0,0-7.65-.657,14.643,14.643,0,0,0,6.993,13.986Z"/><path class="g" d="M 6.993013381958008 12.98602676391602 C 10.63721370697021 12.98602676391602 14.06327342987061 11.56690692901611 16.64009284973145 8.990097045898438 C 19.21690368652344 6.413276672363281 20.63602256774902 2.987216711044312 20.63602256774902 -0.6569833755493164 C 20.63602256774902 -4.301183223724365 19.21690368652344 -7.727253437042236 16.64009284973145 -10.30406379699707 C 14.06328296661377 -12.88088321685791 10.63721370697021 -14.29999351501465 6.993013381958008 -14.29999351501465 C 3.34881329536438 -14.29999351501465 -0.07725661993026733 -12.88088321685791 -2.654066562652588 -10.30406379699707 C -5.230876445770264 -7.727253437042236 -6.649996757507324 -4.301183223724365 -6.649996757507324 -0.6569833755493164 C -6.649996757507324 2.987216711044312 -5.230876445770264 6.413276672363281 -2.654066562652588 8.990097045898438 C -0.07724662125110626 11.56690692901611 3.34881329536438 12.98602676391602 6.993013381958008 12.98602676391602 M 6.993013381958008 13.98602676391602 C -1.094136595726013 13.98602676391602 -7.649996757507324 7.430166721343994 -7.649996757507324 -0.6569833755493164 C -7.649996757507324 -8.744143486022949 -1.094136595726013 -15.29999351501465 6.993013381958008 -15.29999351501465 C 15.08016300201416 -15.29999351501465 21.63602256774902 -8.744143486022949 21.63602256774902 -0.6569833755493164 C 21.63602256774902 7.430166721343994 15.08016300201416 13.98602676391602 6.993013381958008 13.98602676391602 Z"/></g></g><g transform="translate(5.055 15.357)"><path class="d" d="M0,0A9.889,9.889,0,0,0,9.946,9.833,9.889,9.889,0,0,0,19.892,0" transform="translate(0 0)"/></g></g><g transform="translate(10.139 -3.961)"><path class="e" d="M0,0"/></g><g transform="translate(5.317 -0.317)"><path class="e" d="M0,0H19.447"/></g><g class="b" transform="translate(0 -15.673)"><g transform="translate(7.105 8.172)"><path class="e" d="M1.889.5A2.283,2.283,0,0,0-.089-.545,2.287,2.287,0,0,0-2.066.5" transform="translate(2.066 0.545)"/></g><g transform="translate(19.1 8.172)"><path class="e" d="M0,.5A2.283,2.283,0,0,1,1.977-.545,2.287,2.287,0,0,1,3.955.5" transform="translate(0 0.545)"/></g></g></g></svg>