<svg xmlns="http://www.w3.org/2000/svg" xmlns:xlink="http://www.w3.org/1999/xlink" width="30" height="30" viewBox="0 0 30 30"><defs><style>.a,.c,.d{fill:none;}.b{clip-path:url(#ff90d0);}.d{stroke:#ff90d0;stroke-linecap:round;}.e,.f{stroke:none;}.f{fill:#ff90d0;}</style><clipPath id="a"><path class="a" d="M0,14.327H30v-30H0Z" transform="translate(0 15.673)"/></clipPath></defs><g transform="translate(0 15.673)"><g class="b" transform="translate(0 -15.673)"><g transform="translate(0 0.357)"><g class="c" transform="translate(7.65 15.3)"><path class="e" d="M6.993,13.986A14.643,14.643,0,0,0,21.636-.657,14.643,14.643,0,0,0,6.993-15.3,14.643,14.643,0,0,0-7.65-.657,14.643,14.643,0,0,0,6.993,13.986Z"/><path class="f" d="M 6.993015766143799 12.98603534698486 C 10.63721561431885 12.98603534698486 14.06328582763672 11.56691551208496 16.64009666442871 8.990105628967285 C 19.21691513061523 6.413285732269287 20.63603591918945 2.987215757369995 20.63603591918945 -0.6569843292236328 C 20.63603591918945 -4.301184177398682 19.21691513061523 -7.727254390716553 16.64009666442871 -10.30407428741455 C 14.06328582763672 -12.88088417053223 10.63721561431885 -14.30000400543213 6.993015766143799 -14.30000400543213 C 3.348815679550171 -14.30000400543213 -0.07725423574447632 -12.88088417053223 -2.654074192047119 -10.30407428741455 C -5.230884075164795 -7.727254390716553 -6.650004386901855 -4.301184177398682 -6.650004386901855 -0.6569843292236328 C -6.650004386901855 2.987215757369995 -5.230884075164795 6.413285732269287 -2.654074192047119 8.990105628967285 C -0.07725423574447632 11.56691551208496 3.348815679550171 12.98603534698486 6.993015766143799 12.98603534698486 M 6.993015766143799 13.98603534698486 C -1.094144225120544 13.98603534698486 -7.650004386901855 7.43017578125 -7.650004386901855 -0.6569843292236328 C -7.650004386901855 -8.744144439697266 -1.094144225120544 -15.30000400543213 6.993015766143799 -15.30000400543213 C 15.08016586303711 -15.30000400543213 21.63603591918945 -8.744144439697266 21.63603591918945 -0.6569843292236328 C 21.63603591918945 7.43017578125 15.08016586303711 13.98603534698486 6.993015766143799 13.98603534698486 Z"/></g></g><g transform="translate(8.397 22.71)"><path class="d" d="M2.989,1.854h7.857" transform="translate(0.115 -2)"/></g></g><g transform="translate(20.697 -5.255)"><path class="d" d="M0,0H-2.191" transform="translate(2.191)"/></g><g transform="translate(7.479 -5.242)"><path class="d" d="M0,0H2.191"/></g></g></svg>