<svg xmlns="http://www.w3.org/2000/svg" width="11.294" height="10.658" viewBox="0 0 11.294 10.658"><defs><style>.a{fill:#fff;}</style></defs><g transform="translate(0 -9.502)"><path class="a" d="M7.47,23.57,1.4,19.416a.895.895,0,0,0-1.4.739v8.207a.9.9,0,0,0,1.4.735l6.07-4.208a.8.8,0,0,0,0-1.318Z" transform="translate(0 -9.43)"/><path class="a" d="M275.022,9.5a1.056,1.056,0,0,0-1.056,1.056V19.1a1.056,1.056,0,1,0,2.113,0V10.558A1.056,1.056,0,0,0,275.022,9.5Z" transform="translate(-264.784)"/></g></svg>