<svg xmlns="http://www.w3.org/2000/svg" width="19.37" height="19.37" viewBox="0 0 19.37 19.37"><defs><style>.a{opacity:1.0;}.b{fill:#fff;}</style></defs><g class="a"><path class="b" d="M19.37,9.685A1.921,1.921,0,0,0,18.211,7.97,2.661,2.661,0,0,1,16.77,6.751a2.677,2.677,0,0,1,.158-1.883,1.924,1.924,0,0,0-.395-2.033A1.923,1.923,0,0,0,14.5,2.441,2.673,2.673,0,0,1,12.62,2.6,2.671,2.671,0,0,1,11.4,1.159,1.925,1.925,0,0,0,9.685,0,1.925,1.925,0,0,0,7.968,1.159,2.673,2.673,0,0,1,6.749,2.6a2.674,2.674,0,0,1-1.881-.159,1.924,1.924,0,0,0-2.033.394,1.923,1.923,0,0,0-.394,2.033A2.671,2.671,0,0,1,2.6,6.751,2.664,2.664,0,0,1,1.159,7.97,1.92,1.92,0,0,0,0,9.685,1.925,1.925,0,0,0,1.159,11.4,2.672,2.672,0,0,1,2.6,12.621a2.667,2.667,0,0,1-.158,1.88,1.924,1.924,0,0,0,.394,2.033,1.924,1.924,0,0,0,2.033.394,2.671,2.671,0,0,1,1.881-.158,2.679,2.679,0,0,1,1.219,1.442A1.925,1.925,0,0,0,9.685,19.37,1.925,1.925,0,0,0,11.4,18.213a2.681,2.681,0,0,1,1.218-1.442,2.668,2.668,0,0,1,1.881.158A1.851,1.851,0,0,0,16.928,14.5a2.674,2.674,0,0,1-.159-1.881A2.672,2.672,0,0,1,18.211,11.4,1.926,1.926,0,0,0,19.37,9.685ZM9.685,13.239a3.552,3.552,0,1,1,3.55-3.55A3.55,3.55,0,0,1,9.685,13.239Z"/></g></svg>