<svg xmlns="http://www.w3.org/2000/svg" width="19" height="25.75" viewBox="0 0 19 25.75"><defs><style>.a{fill:#fff;}.b{fill:#ffa000;}</style></defs><g transform="translate(-1836 -1018.25)"><g transform="translate(1834 1021)"><path class="a" d="M18.25-2.75H4.75A2.752,2.752,0,0,0,2,0V20.25A2.752,2.752,0,0,0,4.75,23h13.5A2.752,2.752,0,0,0,21,20.25V0A2.752,2.752,0,0,0,18.25-2.75ZM7,8h5a1,1,0,0,1,0,2H7A1,1,0,0,1,7,8ZM17,18H7a1,1,0,0,1,0-2H17a1,1,0,0,1,0,2Zm0-4H7a1,1,0,0,1,0-2H17a1,1,0,0,1,0,2Z"/></g><path class="b" d="M371.345,370.759h-5v7.5l2.5-2.5,2.5,2.5Z" transform="translate(1474.155 647.491)"/></g></svg>