<svg xmlns="http://www.w3.org/2000/svg" width="10.125" height="13.5" viewBox="0 0 10.125 13.5"><defs><style>.a{fill:#04f;}</style></defs><g transform="translate(-63.996)"><g transform="translate(63.996)"><path class="a" d="M74.013.139A.421.421,0,0,0,73.7,0H64.418A.423.423,0,0,0,64,.464L65.264,13.12a.422.422,0,0,0,.42.38h6.75a.421.421,0,0,0,.419-.38L74.119.464A.416.416,0,0,0,74.013.139ZM72.89,4.285a3.7,3.7,0,0,1-3.563-.391,4.463,4.463,0,0,0-4.2-.593L64.885.844h8.348Z" transform="translate(-63.996)"/></g></g></svg>