<?xml version="1.0" standalone="no"?>
<!DOCTYPE svg PUBLIC "-//W3C//DTD SVG 1.1//EN" "http://www.w3.org/Graphics/SVG/1.1/DTD/svg11.dtd" >
<svg xmlns="http://www.w3.org/2000/svg" xmlns:xlink="http://www.w3.org/1999/xlink" version="1.1">
<metadata>
Created by FontForge 20170731 at Sat Jun 25 20:41:06 2016
 By Aleksey,,,
Copyright (c) 2016 Miguel Reyes under exclusive license to Schwartzco Inc. / Commercial Type. All rights reserved.
</metadata>
<defs>
<font id="Canela-Bold" horiz-adv-x="399" >
  <font-face 
    font-family="Canela"
    font-weight="700"
    font-stretch="normal"
    units-per-em="1000"
    panose-1="0 0 0 0 0 0 0 0 0 0"
    ascent="775"
    descent="-225"
    x-height="487"
    cap-height="732"
    bbox="-138 -260 1220 1146"
    underline-thickness="20"
    underline-position="-100"
    unicode-range="U+0020-FB04"
  />
<missing-glyph horiz-adv-x="161" 
 />
    <glyph glyph-name="f_b" unicode="fb" horiz-adv-x="933" 
d="M634 -15q-107 0 -173 51l-60 -39h-10v568q0 86 -25.5 140.5t-56.5 54.5q-30 0 -49 -49t-19 -129v-95h114v-22h-114v-308q0 -90 31 -155v-2h-223v2q31 65 31 155v308h-63v22h63v25q0 118 71.5 192t175.5 74q58 0 119 -28l106 29v-355h3q22 33 63 56t93 23q88 0 141.5 -69
t53.5 -181q0 -120 -69.5 -194t-202.5 -74zM645 3q93 0 93 219q0 104 -28 152t-86 48q-42 0 -72 -22v-241q0 -79 27.5 -117.5t65.5 -38.5z" />
    <glyph glyph-name="f_f_b" unicode="ffb" horiz-adv-x="1244" 
d="M945 -15q-107 0 -173 51l-60 -39h-10v568q0 86 -25.5 140.5t-56.5 54.5t-49.5 -48.5t-18.5 -129.5v-95h114v-22h-114v-308q0 -90 31 -155v-2h-223v2q31 65 31 155v308h-150v-308q0 -90 31 -155v-2h-223v2q31 65 31 155v308h-63v22h63v19q0 112 63.5 182t159.5 70
q40 0 78 -11l11 -119l-6 -2q-7 10 -20.5 30t-22 32t-19 25.5t-19.5 20t-16 6.5q-19 0 -33.5 -46t-14.5 -118v-89h150v25q0 118 71.5 192t175.5 74q56 0 119 -28l106 29v-355h3q22 33 63 56t93 23q88 0 141.5 -69t53.5 -181q0 -120 -69.5 -194t-202.5 -74zM956 3q93 0 93 219
q0 104 -28 152t-86 48q-42 0 -72 -22v-241q0 -79 27.5 -117.5t65.5 -38.5z" />
    <glyph glyph-name="f_f_h" unicode="ffh" horiz-adv-x="1243" 
d="M49 2q31 65 31 155v308h-63v22h63v19q0 112 63.5 182t159.5 70q40 0 78 -11l11 -119l-6 -2q-7 10 -20.5 30t-22 32t-19 25.5t-19.5 20t-16 6.5q-19 0 -33.5 -46t-14.5 -118v-89h150v25q0 118 71.5 192t175.5 74q62 0 121 -28l104 29v-372q60 96 168 96q67 0 108.5 -38
t41.5 -101v-188q0 -100 24 -174v-2h-209v2q24 72 24 173v179q0 34 -17 54t-51 20q-53 0 -89 -49v-222q0 -81 24 -155v-2h-209v2q24 70 24 155v408q0 86 -25.5 140.5t-56.5 54.5t-49.5 -48.5t-18.5 -129.5v-95h114v-22h-114v-308q0 -90 31 -155v-2h-223v2q31 65 31 155v308
h-150v-308q0 -90 31 -155v-2h-223v2z" />
    <glyph glyph-name="f_f_j" unicode="ffj" horiz-adv-x="914" 
d="M851 47q-2 -125 -65.5 -188.5t-172.5 -73.5l-2 7q85 42 85 173v329q0 66 -10.5 104t-36.5 67h-97v-308q0 -90 31 -155v-2h-223v2q31 65 31 155v308h-150v-308q0 -90 31 -155v-2h-223v2q31 65 31 155v308h-63v22h63v19q0 112 63.5 182t159.5 70q40 0 78 -11l11 -119l-6 -2
q-7 10 -20.5 30t-22 32t-19 25.5t-19.5 20t-16 6.5q-19 0 -33.5 -46t-14.5 -118v-89h150v25q0 118 72 192t181 74q49 0 121 -14l14 -166l-6 -2q-32 47 -51.5 74t-51.5 58.5t-54 31.5q-27 0 -45.5 -49.5t-18.5 -128.5v-95h132q109 0 172 21z" />
    <glyph glyph-name="f_f_k" unicode="ffk" horiz-adv-x="1208" 
d="M49 2q31 65 31 155v308h-63v22h63v19q0 112 63.5 182t159.5 70q40 0 78 -11l11 -119l-6 -2q-7 10 -20.5 30t-22 32t-19 25.5t-19.5 20t-16 6.5q-19 0 -33.5 -46t-14.5 -118v-89h150v25q0 118 71.5 192t175.5 74q62 0 121 -28l104 29v-524l120 109q22 20 29.5 44t3.5 43
t-14 34v2h176v-2q-20 -9 -37.5 -18.5t-35.5 -23.5t-27.5 -21.5t-30 -26t-26.5 -23.5l-32 -31l138 -234q4 -6 11 -18t10.5 -17.5t9.5 -15.5t10.5 -15.5t10.5 -13t12.5 -13.5t13.5 -12v-2h-196l-146 255v-98q0 -81 24 -155v-2h-209v2q24 70 24 155v408q0 86 -25.5 140.5
t-56.5 54.5t-49.5 -48.5t-18.5 -129.5v-95h114v-22h-114v-308q0 -90 31 -155v-2h-223v2q31 65 31 155v308h-150v-308q0 -90 31 -155v-2h-223v2z" />
    <glyph glyph-name="f_h" unicode="fh" horiz-adv-x="932" 
d="M49 0v2q31 65 31 155v308h-63v22h63v25q0 118 71.5 192t175.5 74q62 0 121 -28l104 29v-372q60 96 168 96q67 0 108.5 -38t41.5 -101v-188q0 -100 24 -174v-2h-209v2q25 77 25 173v179q0 34 -17.5 54t-51.5 20q-52 0 -89 -50v-221q0 -81 24 -155v-2h-209v2q24 70 24 155
v408q0 86 -25.5 140.5t-56.5 54.5q-30 0 -49 -49t-19 -129v-95h114v-22h-114v-308q0 -90 31 -155v-2h-223z" />
    <glyph glyph-name="f_j" unicode="fj" horiz-adv-x="602" 
d="M540 47q-2 -125 -65.5 -188.5t-172.5 -73.5l-2 7q85 42 85 173v329q0 66 -10.5 104t-36.5 67h-97v-308q0 -90 31 -155v-2h-223v2q31 65 31 155v308h-63v22h63v25q0 118 72 192t181 74q49 0 121 -14l14 -166l-6 -2q-32 47 -51.5 74t-51.5 58.5t-54 31.5q-27 0 -45.5 -49.5
t-18.5 -128.5v-95h132q110 0 172 21z" />
    <glyph glyph-name="f_k" unicode="fk" horiz-adv-x="897" 
d="M698 0l-146 255v-98q0 -81 24 -155v-2h-209v2q24 70 24 155v408q0 86 -25.5 140.5t-56.5 54.5q-30 0 -49 -49t-19 -129v-95h114v-22h-114v-308q0 -90 31 -155v-2h-223v2q31 65 31 155v308h-63v22h63v25q0 118 71.5 192t175.5 74q62 0 121 -28l104 29v-524l120 109
q22 20 29.5 44t3.5 43t-14 34v2h176v-2q-20 -9 -37.5 -18.5t-35.5 -23.5t-27.5 -21.5t-30 -26t-26.5 -23.5l-32 -31l138 -234q4 -6 11 -18t10.5 -17.5t9.5 -15.5t10.5 -15.5t10.5 -13t12.5 -13.5t13.5 -12v-2h-196z" />
    <glyph glyph-name="f_t" unicode="ft" horiz-adv-x="699" 
d="M678 63q-47 -78 -155 -78q-138 0 -138 139v341h-144v-308q0 -90 31 -155v-2h-223v2q31 65 31 155v308h-63v22h63v25q0 118 72 192t180 74q46 0 85 -11l14 -135l-6 -2q-8 11 -22.5 32.5t-25 36t-23.5 30t-25 23.5t-23 8q-27 0 -46 -49.5t-19 -128.5v-95h105l188 110h12
v-110h118v-22h-118v-337q0 -79 72 -79q16 0 30 4t20.5 8t6.5 5z" />
    <glyph glyph-name="f_f_t" unicode="fft" horiz-adv-x="1009" 
d="M988 63q-17 -33 -58 -55.5t-97 -22.5q-137 0 -137 139v341h-144v-308q0 -90 31 -155v-2h-223v2q31 65 31 155v308h-150v-308q0 -90 31 -155v-2h-223v2q31 65 31 155v308h-63v22h63v19q0 112 63.5 182t159.5 70q40 0 78 -11l11 -119l-6 -2q-7 10 -20.5 30t-22 32t-19 25.5
t-19.5 20t-16 6.5q-19 0 -33.5 -46t-14.5 -118v-89h150v25q0 118 72 192t180 74q46 0 85 -11l14 -135l-6 -2q-8 11 -22.5 32.5t-25 36t-23.5 30t-25 23.5t-23 8q-27 0 -46 -49.5t-19 -128.5v-95h105l188 110h12v-110h118v-22h-118v-337q0 -79 72 -79q16 0 30 4t20.5 8t6.5 5
z" />
    <glyph glyph-name="f_f" unicode="ff" horiz-adv-x="679" 
d="M49 2q31 65 31 155v308h-63v22h63v19q0 112 63.5 182t159.5 70q40 0 78 -11l11 -119l-6 -2q-7 10 -20.5 30t-22 32t-19 25.5t-19.5 20t-16 6.5q-19 0 -33.5 -46t-14.5 -118v-89h150v25q0 118 72 192t180 74q46 0 85 -11l14 -135l-6 -2q-8 11 -22.5 32.5t-25 36t-23.5 30
t-25 23.5t-23 8q-27 0 -46 -49.5t-19 -128.5v-95h114v-22h-114v-308q0 -90 31 -155v-2h-223v2q31 65 31 155v308h-150v-308q0 -90 31 -155v-2h-223v2z" />
    <glyph glyph-name="f_i" unicode="fi" horiz-adv-x="605" 
d="M49 0v2q31 65 31 155v308h-63v22h63v25q0 118 72 192t181 74q49 0 121 -14l14 -166l-6 -2q-32 47 -51.5 74t-51.5 58.5t-54 31.5q-27 0 -45.5 -49.5t-18.5 -128.5v-95h132q110 0 172 21v-332q0 -102 24 -174v-2h-209v2q25 94 25 174v118q0 66 -10.5 104t-36.5 67h-97
v-308q0 -90 31 -155v-2h-223z" />
    <glyph glyph-name="f_l" unicode="fl" horiz-adv-x="612" 
d="M272 0h-223v2q31 65 31 155v308h-63v22h63v25q0 118 71.5 192t175.5 74q62 0 121 -28l104 29v-622q0 -81 24 -155v-2h-209v2q24 70 24 155v408q0 86 -25.5 140.5t-56.5 54.5q-30 0 -49 -49t-19 -129v-95h114v-22h-114v-308q0 -90 31 -155v-2z" />
    <glyph glyph-name="f_f_i" unicode="ffi" horiz-adv-x="916" 
d="M49 0v2q31 65 31 155v308h-63v22h63v19q0 112 63.5 182t159.5 70q40 0 78 -11l11 -119l-6 -2q-7 10 -20.5 30t-22 32t-19 25.5t-19.5 20t-16 6.5q-19 0 -33.5 -46t-14.5 -118v-89h150v25q0 118 72 192t181 74q49 0 121 -14l14 -166l-6 -2q-32 47 -51.5 74t-51.5 58.5
t-54 31.5q-27 0 -45.5 -49.5t-18.5 -128.5v-95h132q109 0 172 21v-332q0 -102 24 -174v-2h-209v2q25 94 25 174v118q0 66 -10.5 104t-36.5 67h-97v-308q0 -90 31 -155v-2h-223v2q31 65 31 155v308h-150v-308q0 -90 31 -155v-2h-223z" />
    <glyph glyph-name="f_f_l" unicode="ffl" horiz-adv-x="923" 
d="M49 2q31 65 31 155v308h-63v22h63v19q0 112 63.5 182t159.5 70q40 0 78 -11l11 -119l-6 -2q-7 10 -20.5 30t-22 32t-19 25.5t-19.5 20t-16 6.5q-19 0 -33.5 -46t-14.5 -118v-89h150v25q0 118 71.5 192t175.5 74q62 0 121 -28l104 29v-622q0 -81 24 -155v-2h-209v2
q24 70 24 155v408q0 86 -25.5 140.5t-56.5 54.5t-49.5 -48.5t-18.5 -129.5v-95h114v-22h-114v-308q0 -90 31 -155v-2h-223v2q31 65 31 155v308h-150v-308q0 -90 31 -155v-2h-223v2z" />
    <glyph glyph-name=".notdef" horiz-adv-x="161" 
 />
    <glyph glyph-name=".null" horiz-adv-x="0" 
 />
    <glyph glyph-name="nonmarkingreturn" horiz-adv-x="333" 
 />
    <glyph glyph-name="space" unicode=" " horiz-adv-x="167" 
 />
    <glyph glyph-name="exclam" unicode="!" horiz-adv-x="241" 
d="M209 730l-80 -471h-17l-80 471v2h177v-2zM120 -5q-36 0 -61 25.5t-25 61.5t25 61.5t61 25.5q37 0 62.5 -25.5t25.5 -61.5q0 -35 -26 -61t-62 -26z" />
    <glyph glyph-name="quotedbl" unicode="&#x22;" horiz-adv-x="356" 
d="M20 732h148l-69 -240h-10zM188 732h148l-69 -240h-10z" />
    <glyph glyph-name="numbersign" unicode="#" horiz-adv-x="595" 
d="M413 480h-186l-42 -228h186zM367 230h-186l-43 -230h-27l43 230h-139v22h143l42 228h-138v22h142l43 230h27l-43 -230h186l43 230h27l-43 -230h140v-22h-144l-42 -228h139v-22h-143l-43 -230h-27z" />
    <glyph glyph-name="dollar" unicode="$" horiz-adv-x="587" 
d="M509 533l-11 -3q-59 98 -113 146q-38 34 -77 44v-233q5 -2 21 -10t25 -12q46 -23 75 -42t61.5 -50t48.5 -72t16 -92q0 -88 -47 -141t-125 -71q-40 -8 -75 -11v-100h-27v99h-3q-119 0 -218 45l-26 204l10 3q106 -176 196 -216q19 -7 41 -12v274l-27 14q-38 19 -61.5 32
t-54 36t-47.5 45.5t-29.5 55.5t-12.5 72q0 81 47 131t125 67q29 6 60 9v77h27v-75h16q83 0 158 -24zM397 42q32 35 32 82q0 83 -110 139l-11 6v-261q58 0 89 34zM275 724q-46 0 -75 -26.5t-29 -70.5q0 -53 56 -95q27 -18 54 -32v224h-6z" />
    <glyph glyph-name="percent" unicode="%" horiz-adv-x="826" 
d="M211 326q-76 0 -131 61t-55 150t55 150t131 61q77 0 134.5 -61t57.5 -150q0 -88 -58 -149.5t-134 -61.5zM211 345q57 0 57 192t-57 192q-30 0 -40.5 -48.5t-10.5 -143.5q0 -94 10.5 -143t40.5 -49zM609 -8q-76 0 -131 61t-55 150t55 149.5t131 60.5q77 0 134.5 -61
t57.5 -149t-58 -149.5t-134 -61.5zM609 10q56 0 56 193q0 192 -56 192q-31 0 -41.5 -49t-10.5 -143q0 -93 11 -143t41 -50zM145 17l520 726l21 -15l-520 -727z" />
    <glyph glyph-name="ampersand" unicode="&#x26;" horiz-adv-x="766" 
d="M584 -15q-83 0 -162 68q-76 -68 -186 -68q-109 0 -160.5 55t-51.5 134q0 71 41 124.5t115 84.5q-57 91 -57 167q0 87 54.5 142t142.5 55q74 0 114 -39.5t40 -97.5q0 -101 -135 -176q28 -37 61 -87q67 -106 112 -159q45 77 45 149q0 67 -52 91v6h226v-6q-53 -16 -83 -48
q-27 -27 -66 -101q-40 -78 -57 -106q69 -74 137 -74q70 0 96 51l5 -2q-13 -72 -58 -117.5t-121 -45.5zM243 626q0 -30 13 -61.5t25 -49t51 -70.5q74 61 74 158q0 54 -21.5 89.5t-61.5 35.5q-35 0 -57.5 -27t-22.5 -75zM327 56q41 0 76 15q-65 65 -153 206q-8 13 -28.5 42.5
t-29.5 44.5q-35 -47 -35 -121q0 -81 43.5 -134t126.5 -53z" />
    <glyph glyph-name="quotesingle" unicode="'" horiz-adv-x="188" 
d="M20 732h148l-69 -240h-10z" />
    <glyph glyph-name="parenleft" unicode="(" horiz-adv-x="346" 
d="M313 -130q-121 76 -189.5 189.5t-68.5 252.5t68.5 253t189.5 190l7 -10q-117 -163 -117 -433q0 -269 117 -432z" />
    <glyph glyph-name="parenright" unicode=")" horiz-adv-x="346" 
d="M26 -120q117 163 117 432q0 270 -117 433l7 10q121 -76 189.5 -190t68.5 -253t-68.5 -252.5t-189.5 -189.5z" />
    <glyph glyph-name="asterisk" unicode="*" horiz-adv-x="384" 
d="M233 425l-42 134l-42 -134l-93 67l112 81h-138l35 108l112 -82l-43 133h115l-45 -134l114 83l36 -108h-141l113 -81z" />
    <glyph glyph-name="plus" unicode="+" horiz-adv-x="532" 
d="M279 296v-208h-26v208h-208v24h208v208h26v-208h208v-24h-208z" />
    <glyph glyph-name="comma" unicode="," horiz-adv-x="261" 
d="M21 -131q35 24 55 53.5t20 54.5q0 32 -64 96v2l120 89q28 -18 45.5 -45.5t17.5 -56.5q0 -61 -56.5 -119t-132.5 -86z" />
    <glyph glyph-name="hyphen" unicode="-" horiz-adv-x="268" 
d="M23 239v89h221v-89h-221z" />
    <glyph glyph-name="period" unicode="." horiz-adv-x="250" 
d="M125 -5q-35 0 -59.5 24.5t-24.5 59.5t24.5 59.5t59.5 24.5t59.5 -24.5t24.5 -59.5t-24.5 -59.5t-59.5 -24.5z" />
    <glyph glyph-name="slash" unicode="/" horiz-adv-x="392" 
d="M351 784h31l-374 -914h-31z" />
    <glyph glyph-name="zero" unicode="0" horiz-adv-x="715" 
d="M354 -15q-133 0 -228 110t-95 271q0 162 94.5 271.5t228.5 109.5q136 0 233 -109.5t97 -271.5q0 -160 -97.5 -270.5t-232.5 -110.5zM354 7q139 0 139 359t-139 359q-38 0 -64.5 -26t-41 -76.5t-20.5 -112.5t-6 -144q0 -81 6 -143t20.5 -112.5t41 -77t64.5 -26.5z" />
    <glyph glyph-name="one" unicode="1" horiz-adv-x="380" 
d="M59 0v2q31 41 40.5 70t9.5 84v421h-88v10q156 65 256 162h11v-593q0 -55 9.5 -84t40.5 -70v-2h-279z" />
    <glyph glyph-name="two" unicode="2" horiz-adv-x="559" 
d="M2 0v12q183 177 256.5 298t73.5 236q0 84 -25 131.5t-71 47.5q-93 0 -190 -202l-10 2l26 190q77 32 180 32q134 0 202 -54t68 -143q0 -98 -89.5 -193.5t-279.5 -220.5h185q126 0 201 98l8 -2l-70 -232h-465z" />
    <glyph glyph-name="three" unicode="3" horiz-adv-x="573" 
d="M249 -15q-127 0 -203 44l-24 180l10 2q73 -119 105 -153q48 -51 102 -51q62 0 97.5 57.5t35.5 152.5q0 199 -141 199q-63 0 -125 -41l-10 13l254 208h-299l58 136h434v-10l-355 -289q41 13 91 13q110 0 191 -58.5t81 -170.5q0 -107 -83 -169.5t-219 -62.5z" />
    <glyph glyph-name="four" unicode="4" horiz-adv-x="602" 
d="M262 2q25 40 32.5 69.5t7.5 84.5v34h-304v11l324 531h211l-500 -515h269v201h184v-201h96l-8 -27h-88v-34q0 -55 7.5 -84.5t32.5 -69.5v-2h-264v2z" />
    <glyph glyph-name="five" unicode="5" horiz-adv-x="544" 
d="M219 -15q-109 0 -178 44l-24 180l10 2q30 -51 48 -79t44 -61.5t51 -48.5t52 -15q55 0 88 57t33 158q0 206 -156 206q-58 0 -117 -33l-8 4l56 333h389l-26 -136h-361l-30 -174q60 35 143 35q72 0 135 -23t107 -77.5t44 -130.5q0 -117 -90 -179t-210 -62z" />
    <glyph glyph-name="six" unicode="6" horiz-adv-x="627" 
d="M316 -15q-129 0 -208 86t-79 214q0 65 22 129t70.5 129.5t141 119.5t219.5 84l4 -11q-212 -77 -263 -336q39 86 145 86q98 0 166.5 -64.5t68.5 -172.5q0 -116 -83.5 -190t-203.5 -74zM322 7q48 0 74.5 58t26.5 167q0 202 -105 202q-73 0 -101 -72q-7 -50 -7 -104
q0 -107 28 -179t84 -72z" />
    <glyph glyph-name="seven" unicode="7" horiz-adv-x="517" 
d="M69 0q93 288 355 581h-404l36 151h475v-10q-228 -364 -287 -722h-175z" />
    <glyph glyph-name="eight" unicode="8" horiz-adv-x="598" 
d="M291 -15q-120 0 -197 52t-77 138q0 125 161 171q-128 74 -128 192q0 94 69 151.5t183 57.5q106 0 175.5 -48.5t69.5 -121.5q0 -46 -33.5 -86.5t-110.5 -62.5q178 -92 178 -229q0 -97 -82 -155.5t-208 -58.5zM291 8q64 0 103.5 35.5t39.5 92.5q0 61 -48.5 99t-166.5 90
l-21 10q-59 -58 -59 -153q0 -80 39.5 -127t112.5 -47zM364 447l18 -8q46 50 46 135q0 71 -32 110.5t-90 39.5q-54 0 -84.5 -31t-30.5 -79q0 -50 40 -88.5t133 -78.5z" />
    <glyph glyph-name="nine" unicode="9" horiz-adv-x="627" 
d="M141 -4q207 76 262 335q-41 -85 -146 -85q-97 0 -165.5 64.5t-68.5 172.5q0 116 84 190t204 74q128 0 207 -86t79 -214q0 -51 -12.5 -101.5t-45 -106t-82.5 -102t-130 -87.5t-182 -65zM309 298q32 0 59 18t41 53q8 42 8 106q0 106 -28.5 178t-83.5 72q-48 0 -74.5 -58
t-26.5 -166q0 -203 105 -203z" />
    <glyph glyph-name="colon" unicode=":" horiz-adv-x="250" 
d="M125 311q-35 0 -59.5 24.5t-24.5 59.5t24.5 59.5t59.5 24.5t59.5 -24.5t24.5 -59.5t-24.5 -59.5t-59.5 -24.5zM125 -5q-35 0 -59.5 24.5t-24.5 59.5t24.5 59.5t59.5 24.5t59.5 -24.5t24.5 -59.5t-24.5 -59.5t-59.5 -24.5z" />
    <glyph glyph-name="semicolon" unicode=";" horiz-adv-x="265" 
d="M21 -131q35 24 55 53.5t20 54.5q0 32 -64 96v2l120 89q28 -18 45.5 -45.5t17.5 -56.5q0 -61 -56.5 -119t-132.5 -86zM132 311q-35 0 -59.5 24.5t-24.5 59.5t24.5 59.5t59.5 24.5t59.5 -24.5t24.5 -59.5t-24.5 -59.5t-59.5 -24.5z" />
    <glyph glyph-name="less" unicode="&#x3c;" horiz-adv-x="530" 
d="M45 293v26l430 208v-29l-401 -192l401 -192v-29z" />
    <glyph glyph-name="equal" unicode="=" horiz-adv-x="532" 
d="M45 377v25h442v-25h-442zM45 234v25h442v-25h-442z" />
    <glyph glyph-name="greater" unicode="&#x3e;" horiz-adv-x="530" 
d="M55 85v29l401 192l-401 192v29l430 -208v-26z" />
    <glyph glyph-name="question" unicode="?" horiz-adv-x="433" 
d="M123 259q3 42 23 81.5t42 66t40.5 71t18.5 97.5q0 71 -21 111t-55 40q-16 0 -31.5 -9.5t-32 -31.5t-27.5 -39.5t-30 -50.5q-7 -13 -11 -19l-7 2l21 145q59 24 146 24q106 0 164 -39t58 -118q0 -51 -24.5 -91t-62 -67.5t-76.5 -51.5t-73 -55t-46 -66h-16zM143 -5
q-36 0 -61.5 26t-25.5 61q0 36 25.5 61.5t61.5 25.5q37 0 62.5 -25.5t25.5 -61.5q0 -35 -26 -61t-62 -26z" />
    <glyph glyph-name="at" unicode="@" horiz-adv-x="915" 
d="M449 -187q-185 0 -305.5 102t-120.5 279q0 194 142 331t352 137q171 0 273 -89.5t102 -243.5q0 -131 -74 -220.5t-187 -89.5q-64 0 -100.5 30.5t-42.5 79.5q-4 30 3 61l-27 -65q-53 -113 -134 -113q-46 0 -72.5 34.5t-26.5 99.5q0 55 18.5 110.5t54.5 105t96 80.5t135 31
q57 0 94 -14l66 14h6l-72 -275q-37 -149 43 -149q64 0 112 84.5t48 201.5q0 145 -86.5 226t-230.5 81q-94 0 -173 -37.5t-131 -100t-80.5 -143t-28.5 -168.5q0 -168 95 -264t256 -96q143 0 232 64l11 -16q-97 -68 -247 -68zM400 110q49 0 104 166l43 158q-8 20 -27 20
q-37 0 -71.5 -46t-54 -110.5t-19.5 -122.5q0 -65 25 -65z" />
    <glyph glyph-name="A" unicode="A" horiz-adv-x="704" 
d="M283 596l-108 -297h212zM187 0h-184v2q58 55 107 187l197 546h101l200 -551q43 -120 93 -182v-2h-298v2q61 80 18 200l-26 74h-228l-18 -49q-55 -155 38 -225v-2z" />
    <glyph glyph-name="B" unicode="B" horiz-adv-x="677" 
d="M42 0v2q23 56 31.5 97.5t8.5 111.5v310q0 70 -8.5 110.5t-31.5 98.5v2h99q23 0 70.5 0.5t68.5 0.5h85q255 0 255 -168q0 -140 -153 -182q96 -17 141.5 -66.5t45.5 -121.5q0 -92 -67.5 -143.5t-209.5 -51.5h-335zM318 20q77 0 114 48.5t37 130.5q0 170 -145 170h-63v-344
q32 -5 57 -5zM321 392q66 0 97.5 47t31.5 113q0 71 -31.5 115t-102.5 44q-32 0 -55 -4v-315h60z" />
    <glyph glyph-name="C" unicode="C" horiz-adv-x="768" 
d="M705 60q-20 -14 -49 -28.5t-90.5 -30.5t-126.5 -16q-175 0 -292.5 105t-117.5 267q0 164 119 277t299 113q117 0 254 -37l20 -184l-10 -3q-85 114 -141 157.5t-128 43.5q-220 0 -220 -367q0 -165 56.5 -257t161.5 -92q44 0 80.5 16.5t70.5 54.5t59.5 76t64.5 105l10 -3z
" />
    <glyph glyph-name="D" unicode="D" horiz-adv-x="803" 
d="M42 2q23 53 31.5 93t8.5 107v328q0 67 -8.5 106t-31.5 94v2q49 0 137 2t158 2q204 0 320.5 -95.5t116.5 -271.5q0 -177 -114 -273t-323 -96h-295v2zM340 25q135 0 187.5 81t52.5 249q0 184 -57 271t-189 85q-25 0 -73 -5v-677q44 -4 79 -4z" />
    <glyph glyph-name="E" unicode="E" horiz-adv-x="664" 
d="M598 0h-556v2q23 62 31.5 101.5t8.5 103.5v318q0 45 -5.5 81t-12 58t-22.5 66v2h519l37 -193l-10 -3q-11 10 -58.5 61t-81 78t-58.5 29l-129 9v-326h59q15 0 31 6t32.5 19t27.5 23t28.5 28t24.5 24h10v-227h-10q-9 7 -39.5 39.5t-55 48.5t-49.5 16h-59v-345l145 8
q47 2 113.5 67t119.5 139l10 -3z" />
    <glyph glyph-name="F" unicode="F" horiz-adv-x="622" 
d="M301 0h-259v2q23 56 31.5 97.5t8.5 111.5v310q0 70 -8.5 110.5t-31.5 98.5v2h529l37 -193l-11 -3q-11 11 -35.5 37.5t-43.5 45t-42 40t-43 33t-34 12.5l-138 10v-324h66q15 0 30.5 6t32 19t27.5 23t28.5 28t24.5 24h11v-227h-11q-7 6 -38.5 39t-55.5 49t-49 16h-66v-156
q0 -69 8.5 -110.5t31.5 -98.5v-2z" />
    <glyph glyph-name="G" unicode="G" horiz-adv-x="806" 
d="M743 97q-143 -112 -317 -112q-180 0 -288.5 103.5t-108.5 268.5q0 169 115 279.5t315 110.5q100 0 246 -37l20 -186l-11 -3q-83 114 -140.5 158.5t-128.5 44.5q-223 0 -223 -366q0 -350 206 -350q69 0 113.5 38.5t46.5 112.5q2 57 -11.5 94t-45.5 83v2h252v-2
q-23 -57 -31.5 -98.5t-8.5 -110.5v-30z" />
    <glyph glyph-name="H" unicode="H" horiz-adv-x="809" 
d="M42 2q23 56 31.5 97.5t8.5 111.5v310q0 70 -8.5 110.5t-31.5 98.5v2h260v-2q-23 -57 -32 -99t-9 -110v-136h287v136q0 69 -8.5 109.5t-32.5 99.5v2h260v-2q-23 -56 -31.5 -98.5t-8.5 -110.5v-310q0 -68 8.5 -110.5t31.5 -98.5v-2h-260v2q24 59 32.5 99.5t8.5 109.5v151
h-287v-151q0 -68 9 -110t32 -99v-2h-260v2z" />
    <glyph glyph-name="I" unicode="I" horiz-adv-x="344" 
d="M42 2q23 58 31.5 98.5t8.5 110.5v310q0 70 -8.5 110.5t-31.5 98.5v2h260v-2q-23 -57 -32 -99t-9 -110v-310q0 -68 9 -110t32 -99v-2h-260v2z" />
    <glyph glyph-name="J" unicode="J" horiz-adv-x="485" 
d="M412 208q0 -104 -66 -163.5t-174 -59.5q-72 0 -129 25l-23 198l11 3q6 -11 18 -32q30 -53 43.5 -76t31.5 -50t30 -36t24 -9q25 0 40.5 36t15.5 98v379q0 69 -8.5 110t-32.5 99v2h259v-2q-23 -56 -31.5 -98.5t-8.5 -110.5v-313z" />
    <glyph glyph-name="K" unicode="K" horiz-adv-x="732" 
d="M42 2q23 56 31.5 97.5t8.5 111.5v310q0 70 -8.5 110.5t-31.5 98.5v2h259v-2q-23 -57 -31.5 -98.5t-8.5 -110.5v-310q0 -69 8.5 -110.5t31.5 -98.5v-2h-259v2zM498 0l-234 361l177 190q98 102 39 179v2h239v-2q-130 -57 -234 -167l-81 -87l209 -319q40 -62 68.5 -97
t61.5 -58v-2h-245z" />
    <glyph glyph-name="L" unicode="L" horiz-adv-x="621" 
d="M42 0v2q23 56 31.5 97.5t8.5 111.5v310q0 70 -8.5 110.5t-31.5 98.5v2h259v-2q-23 -57 -31.5 -98.5t-8.5 -110.5v-499l114 7q47 2 112.5 67t112.5 137l11 -3l-52 -230h-517z" />
    <glyph glyph-name="M" unicode="M" horiz-adv-x="902" 
d="M14 0v2q40 61 54 102t14 113v355q-4 49 -19.5 82.5t-51.5 75.5v2h231l214 -493l211 493h223v-2q-41 -50 -56 -86t-15 -99v-334q0 -68 8.5 -110.5t31.5 -98.5v-2h-259v2q23 56 31.5 97.5t8.5 111.5v388l-247 -577h-28l-257 580l3 -385q0 -69 18 -111.5t66 -103.5v-2h-181z
" />
    <glyph glyph-name="N" unicode="N" horiz-adv-x="722" 
d="M108 605l4 -388q0 -69 16.5 -112t59.5 -103v-2h-180v2q43 61 58.5 102.5t15.5 112.5v355q-4 50 -20 83t-53 75v2h223l370 -465l-2 246q0 71 -16 114.5t-58 102.5v2h176v-2q-42 -62 -57.5 -103.5t-15.5 -111.5v-514l-34 -4z" />
    <glyph glyph-name="O" unicode="O" horiz-adv-x="834" 
d="M417 -15q-165 0 -276.5 109t-111.5 271q0 161 112 271.5t276 110.5t276 -110.5t112 -271.5q0 -162 -112 -271t-276 -109zM417 8q99 0 146.5 96t47.5 261t-47 262t-147 97t-147.5 -97t-47.5 -262t47.5 -261t147.5 -96z" />
    <glyph glyph-name="P" unicode="P" horiz-adv-x="640" 
d="M42 2q23 56 31.5 97.5t8.5 111.5v310q0 70 -8.5 110.5t-31.5 98.5v2h293q160 0 227.5 -53t67.5 -148q0 -104 -77 -167.5t-238 -63.5h-54v-89q0 -71 8.5 -113t32.5 -96v-2h-260v2zM291 709h-14q-10 0 -16 -1v-385h29q56 0 93 34t50.5 78.5t13.5 95.5q0 83 -39 130.5
t-117 47.5z" />
    <glyph glyph-name="Q" unicode="Q" horiz-adv-x="834" 
d="M673 -183q-64 0 -119 19t-89 48.5t-53.5 53t-30.5 45.5l-3 4q-60 5 -114 27q-106 44 -170.5 137.5t-64.5 213.5q0 161 112 271.5t276 110.5t276 -110.5t112 -271.5q0 -120 -64.5 -213.5t-171.5 -137.5q-64 -26 -137 -29q37 -19 86 -28q155 -31 327 11l-59 -130
q-47 -21 -113 -21zM417 8q99 0 146.5 96t47.5 261t-47 262t-147 97t-147.5 -97t-47.5 -262t47.5 -261t147.5 -96z" />
    <glyph glyph-name="R" unicode="R" horiz-adv-x="723" 
d="M42 2q23 56 31.5 97.5t8.5 111.5v310q0 70 -8.5 110.5t-31.5 98.5v2h313q152 0 218.5 -47t66.5 -133q0 -134 -134 -186l113 -230q28 -57 49.5 -84t59.5 -48v-4h-239l-162 339h-66v-128q0 -69 8.5 -110.5t31.5 -98.5v-2h-259v2zM312 710h-23q-18 0 -28 -1v-347h55
q76 0 108.5 53.5t32.5 133.5q0 161 -145 161z" />
    <glyph glyph-name="S" unicode="S" horiz-adv-x="585" 
d="M509 533l-11 -3q-60 99 -113.5 146.5t-109.5 47.5q-46 0 -75 -26.5t-29 -70.5q0 -27 10.5 -48t41.5 -42.5t45.5 -29.5t63.5 -31q15 -7 22 -11q46 -23 75 -42t61.5 -50t48.5 -72t16 -92q0 -115 -78 -169.5t-199 -54.5q-119 0 -218 45l-26 204l10 3q73 -121 134 -175
t128 -54q58 0 90.5 33t32.5 83q0 26 -11 48.5t-23 37t-42.5 33.5t-44 26.5t-54.5 27.5q-38 19 -61.5 32t-54 36t-47.5 45.5t-29.5 55.5t-12.5 72q0 107 78.5 158t196.5 51q83 0 158 -24z" />
    <glyph glyph-name="T" unicode="T" horiz-adv-x="742" 
d="M501 0h-260v2q23 56 32 98t9 111v500l-49 -3q-12 -1 -26.5 -9t-32 -26.5t-29.5 -32.5t-33 -43t-29 -41l-30 -45t-24 -37l-11 3l44 255h618l44 -255l-11 -3q-3 4 -19 28t-22 33.5t-22 33t-25 35t-24 30.5t-25.5 29.5t-23 22t-23.5 16.5t-20 6l-48 3v-500q0 -69 8.5 -110.5
t31.5 -98.5v-2z" />
    <glyph glyph-name="U" unicode="U" horiz-adv-x="734" 
d="M384 -15q-137 0 -218 69.5t-81 213.5v253q0 70 -8.5 110t-32.5 99v2h262v-2q-23 -52 -32 -95.5t-9 -113.5v-262q0 -238 172 -238q96 0 138.5 69.5t42.5 183.5v239q0 73 -18 117t-66 100v2h195l2 -2q-48 -61 -66 -104t-18 -113v-232q0 -68 -11.5 -118.5t-39.5 -92.5
t-81.5 -63.5t-130.5 -21.5z" />
    <glyph glyph-name="V" unicode="V" horiz-adv-x="711" 
d="M302 -3l-202 551q-43 128 -97 182v2h312v-2q-66 -76 -19 -200l136 -376l126 346q29 78 19 139t-55 91v2h187v-2q-60 -54 -106 -185l-200 -548h-101z" />
    <glyph glyph-name="W" unicode="W" horiz-adv-x="1065" 
d="M267 -3l-174 551q-42 132 -89 182v2h306v-2q-59 -68 -17 -200l108 -345l120 335l-9 28q-43 133 -89 182v2h306v-2q-59 -70 -18 -200l110 -337l100 315q51 157 -40 222v2h180v-2q-57 -54 -100 -189l-174 -544h-93l-159 481l-174 -481h-94z" />
    <glyph glyph-name="X" unicode="X" horiz-adv-x="728" 
d="M222 0h-216v2q50 31 87 70.5t79 101.5l114 169l-122 220q-38 69 -65.5 106t-62.5 60v3h321v-3q-20 -24 -17.5 -65.5t28.5 -88.5l68 -123l51 84q67 108 2 194v2h216v-2q-102 -63 -169 -172l-84 -135l141 -254q39 -71 66.5 -107.5t62.5 -58.5v-3h-322v3q21 23 18.5 65
t-28.5 89l-89 160l-81 -120q-19 -28 -26.5 -54.5t-9 -43t7.5 -39.5t13 -29.5t17 -28.5v-2z" />
    <glyph glyph-name="Y" unicode="Y" horiz-adv-x="660" 
d="M190 2q23 48 32 84t9 95v170l-116 213q-39 73 -62.5 107.5t-53.5 57.5v3h318v-3q-25 -21 -30 -65.5t24 -107.5l91 -167l79 141q66 118 -27 200v2h208v-2q-43 -33 -73.5 -73.5t-66.5 -104.5l-112 -201v-170q0 -59 8.5 -95t31.5 -84v-2h-260v2z" />
    <glyph glyph-name="Z" unicode="Z" horiz-adv-x="669" 
d="M15 0v8l417 704l-128 -7q-64 -2 -131.5 -60.5t-116.5 -126.5l-8 3l51 211h547v-8l-415 -704l153 7q65 2 136 69t124 147l8 -3l-53 -240h-584z" />
    <glyph glyph-name="bracketleft" unicode="[" horiz-adv-x="373" 
d="M70 755h281v-22h-136v-841h136v-22h-281v885z" />
    <glyph glyph-name="backslash" unicode="\" horiz-adv-x="392" 
d="M384 -130l-374 914h31l374 -914h-31z" />
    <glyph glyph-name="bracketright" unicode="]" horiz-adv-x="373" 
d="M303 -130h-281v22h136v841h-136v22h281v-885z" />
    <glyph glyph-name="asciicircum" unicode="^" horiz-adv-x="412" 
d="M206 606l-167 -134l-9 10l173 273h6l173 -273l-9 -10z" />
    <glyph glyph-name="underscore" unicode="_" horiz-adv-x="503" 
d="M36 -100v24h430v-24h-430z" />
    <glyph glyph-name="grave" unicode="`" horiz-adv-x="398" 
d="M306 531l-224 122l91 96l142 -209z" />
    <glyph glyph-name="a" unicode="a" horiz-adv-x="525" 
d="M231 72q25 0 42 10v161q-52 -14 -80.5 -42t-28.5 -64q0 -30 17.5 -47.5t49.5 -17.5zM383 -14q-44 0 -72 21t-35 56q-53 -78 -140 -78q-49 0 -81 25.5t-32 74.5q0 126 250 179v62q0 45 -21.5 65.5t-74.5 20.5q-66 0 -130 -27l-4 7q90 111 235 111q79 0 117.5 -35t38.5 -96
v-257q0 -45 43 -45q21 0 38 12l2 -4q-39 -92 -134 -92z" />
    <glyph glyph-name="b" unicode="b" horiz-adv-x="595" 
d="M296 -15q-106 0 -173 50l-60 -38h-10v563q0 97 -50 159v2l211 58v-355h3q59 79 156 79q88 0 141.5 -69t53.5 -181q0 -120 -69.5 -194t-202.5 -74zM307 3q94 0 94 219q-1 104 -29 152t-85 48q-42 0 -73 -22v-241q0 -79 27.5 -117.5t65.5 -38.5z" />
    <glyph glyph-name="c" unicode="c" horiz-adv-x="497" 
d="M471 136q-21 -71 -74.5 -111t-134.5 -40q-106 0 -171.5 67.5t-65.5 180.5q0 118 78 194t201 76q77 0 136 -24l15 -144l-10 -2q-96 150 -155 150q-44 0 -73.5 -50.5t-29.5 -134.5q0 -102 45.5 -151t117.5 -49q75 0 116 41z" />
    <glyph glyph-name="d" unicode="d" horiz-adv-x="612" 
d="M294 67q54 0 85 37v275q-13 106 -80 106q-50 0 -78 -56t-28 -168q0 -194 101 -194zM380 84q-24 -43 -66.5 -71t-98.5 -28q-85 0 -136.5 65.5t-51.5 170.5q0 119 69.5 200.5t193.5 81.5q50 0 89 -13v69q0 98 -50 160v2l211 58v-569q0 -77 11.5 -112t39.5 -65v-2l-209 -45
v98h-2z" />
    <glyph glyph-name="e" unicode="e" horiz-adv-x="511" 
d="M266 485q-37 0 -57.5 -50.5t-20.5 -123.5l142 2v38q0 134 -64 134zM485 143q-21 -73 -77 -115.5t-140 -42.5q-111 0 -177 71t-66 179q0 116 71 192t176 76q99 0 157.5 -65.5t56.5 -147.5l-298 1q7 -193 163 -193q83 0 129 48z" />
    <glyph glyph-name="f" unicode="f" horiz-adv-x="368" 
d="M49 2q31 65 31 155v308h-63v22h63v25q0 118 72 192t180 74q46 0 85 -11l14 -135l-6 -2q-8 11 -22.5 32.5t-25 36t-23.5 30t-25 23.5t-23 8q-27 0 -46 -49.5t-19 -128.5v-95h114v-22h-114v-308q0 -90 31 -155v-2h-223v2z" />
    <glyph glyph-name="g" unicode="g" horiz-adv-x="563" 
d="M254 173q62 0 62 155q0 157 -63 157q-34 0 -47.5 -39t-13.5 -118q0 -155 62 -155zM536 -61q-1 -79 -78.5 -124t-217.5 -45q-109 0 -171 26.5t-62 73.5q0 31 27 53t68 31q-75 27 -75 99q0 51 32 82.5t76 46.5q-98 51 -98 146q0 75 61 125t155 50q83 0 145 -43l138 86l2 -2
v-113h-4l-117 14q53 -50 53 -117q0 -73 -61 -123t-155 -50q-56 0 -106 21q-19 -15 -19 -39q0 -25 20.5 -36.5t70.5 -13.5l89 -4q110 -6 169 -42t58 -102zM275 -204q78 0 119.5 20t41.5 56q0 29 -33.5 42.5t-113.5 18.5l-99 5q-59 6 -73 11q-16 -24 -16 -53q0 -51 47.5 -75.5
t126.5 -24.5z" />
    <glyph glyph-name="h" unicode="h" horiz-adv-x="603" 
d="M38 0v2q24 72 24 174v384q0 97 -50 159v2l211 58v-372q60 96 168 96q67 0 108.5 -38t41.5 -101v-188q0 -100 24 -174v-2h-209v2q24 72 24 173v179q0 34 -17 54t-51 20q-53 0 -89 -49v-203q0 -100 24 -174v-2h-209z" />
    <glyph glyph-name="i" unicode="i" horiz-adv-x="285" 
d="M218 655q0 -36 -26 -61.5t-62 -25.5t-61 25.5t-25 61.5q0 35 25 60.5t61 25.5t62 -25.5t26 -60.5zM40 2q25 94 25 174v112q0 97 -51 158v4l211 58v-332q0 -102 24 -174v-2h-209v2z" />
    <glyph glyph-name="j" unicode="j" horiz-adv-x="280" 
d="M215 655q0 -36 -26 -61.5t-63 -25.5q-36 0 -60.5 25.5t-24.5 61.5t24.5 61t60.5 25q37 0 63 -25.5t26 -60.5zM-23 -208q84 41 84 173v336q0 86 -50 145v4l211 58l-5 -461q-2 -125 -65.5 -188.5t-172.5 -73.5z" />
    <glyph glyph-name="k" unicode="k" horiz-adv-x="569" 
d="M370 0l-146 255v-98q0 -88 31 -155v-2h-216v2q24 70 24 155v403q0 97 -50 159v2l211 58v-524l120 109q22 20 29.5 44t3.5 43t-14 34v2h176v-2q-24 -10 -49.5 -26t-35 -23.5t-40.5 -35t-32 -28.5l-32 -31l138 -234q4 -6 11 -18t10.5 -17.5t9.5 -15.5t10.5 -15.5t10.5 -13
t12.5 -13.5t13.5 -12v-2h-196z" />
    <glyph glyph-name="l" unicode="l" horiz-adv-x="284" 
d="M39 2q24 70 24 155v403q0 97 -50 159v2l211 58v-622q0 -81 24 -155v-2h-209v2z" />
    <glyph glyph-name="m" unicode="m" horiz-adv-x="883" 
d="M244 0h-209v2q24 72 24 174v113q0 55 -11.5 90.5t-38.5 68.5v2l207 58v-100l4 -1q22 39 63.5 67.5t97.5 28.5q54 0 90 -25t47 -70l3 -1q60 96 162 96q64 0 102 -36t38 -99v-191q0 -101 24 -175v-2h-208v2q24 72 24 173v186q0 67 -58 67q-53 0 -84 -52v-199
q0 -101 25 -175v-2h-209v2q24 72 24 173v186q0 67 -58 67q-52 0 -83 -52v-200q0 -100 24 -174v-2z" />
    <glyph glyph-name="n" unicode="n" horiz-adv-x="606" 
d="M250 0h-209v2q25 75 25 174l-1 113q0 56 -11.5 91t-38.5 68v2l207 58v-100l4 -1q60 96 168 96q67 0 108.5 -38t41.5 -101v-187q0 -101 24 -175v-2h-209v2q24 72 24 173v179q0 34 -17 54t-52 20q-54 0 -88 -49v-203q0 -100 24 -174v-2z" />
    <glyph glyph-name="o" unicode="o" horiz-adv-x="588" 
d="M294 -15q-110 0 -189.5 76.5t-79.5 181.5t79.5 182.5t189.5 77.5t189.5 -77.5t79.5 -182.5t-79.5 -181.5t-189.5 -76.5zM294 4q51 0 77 64.5t26 174.5q0 111 -26 176t-77 65q-52 0 -77.5 -64.5t-25.5 -176.5q0 -110 26 -174.5t77 -64.5z" />
    <glyph glyph-name="p" unicode="p" horiz-adv-x="604" 
d="M310 3q48 0 74 58t26 161q0 104 -28 152t-87 48q-42 0 -71 -21v-242q0 -80 24.5 -118t61.5 -38zM38 -225v2q25 75 25 174v338q0 55 -11.5 90.5t-38.5 68.5v2l207 58v-83l6 -1q59 79 158 79q87 0 140.5 -69t53.5 -181q0 -120 -67 -194t-196 -74q-48 0 -91 12v-46
q0 -104 23 -174v-2h-209z" />
    <glyph glyph-name="q" unicode="q" horiz-adv-x="600" 
d="M355 -223q24 72 24 174v131q-24 -42 -66 -69.5t-98 -27.5q-85 0 -136.5 65.5t-51.5 169.5q0 57 16.5 106.5t48.5 89.5t86 63.5t122 23.5q103 0 178 -43l58 41h4v-550q0 -100 24 -174v-2h-209v2zM298 67q54 0 81 36v279q-7 51 -28 77t-53 26q-48 0 -76.5 -55.5
t-28.5 -163.5q0 -199 105 -199z" />
    <glyph glyph-name="r" unicode="r" horiz-adv-x="417" 
d="M41 0v2q24 72 24 174v113q0 56 -11.5 91t-38.5 68v2l207 58v-121q6 6 32 35t41 42.5t44.5 27t59.5 11.5l-18 -168h-5q-16 24 -50 41.5t-54 17.5t-46 -29v-189q0 -100 24 -174v-2h-209z" />
    <glyph glyph-name="s" unicode="s" horiz-adv-x="429" 
d="M373 360l-9 -2q-49 68 -84 97t-72 29q-31 0 -52 -17.5t-21 -46.5q0 -24 19.5 -44t38 -29t61.5 -26q8 -3 12 -5q32 -14 52.5 -27t43 -33t34 -49t11.5 -65q0 -80 -57.5 -118.5t-149.5 -38.5q-91 0 -163 31l-14 140l9 2q51 -78 97 -116.5t95 -38.5q36 0 53.5 18.5t17.5 46.5
q0 19 -8 34t-28 28.5t-35 21.5t-47 22q-34 16 -53.5 27t-44 32t-36.5 50t-12 66q0 77 57.5 115t147.5 38q73 0 124 -17z" />
    <glyph glyph-name="t" unicode="t" horiz-adv-x="377" 
d="M201 -15q-64 0 -101 33.5t-37 105.5v341h-56v9l206 129h11v-116h119v-22h-119v-337q0 -79 72 -79q40 0 57 17l3 -3q-19 -33 -59 -55.5t-96 -22.5z" />
    <glyph glyph-name="u" unicode="u" horiz-adv-x="581" 
d="M349 96q-21 -41 -63.5 -76t-100.5 -35q-64 0 -99.5 43t-35.5 116v227q0 41 -9 65t-29 48v3h198v-344q0 -33 16 -54t48 -21q45 0 73 49v255q0 42 -9 66.5t-29 46.5v2h199v-279q0 -80 10.5 -113.5t39.5 -61.5v-2l-206 -45v109z" />
    <glyph glyph-name="v" unicode="v" horiz-adv-x="482" 
d="M67 335q-43 110 -79 150v2h249v-2q-15 -19 -16 -60t16 -89l61 -159l63 150q15 35 16 69.5t-5.5 55t-16.5 33.5v2h125v-2q-29 -31 -49 -62t-44 -89l-143 -341h-39z" />
    <glyph glyph-name="w" unicode="w" horiz-adv-x="742" 
d="M64 335q-38 104 -76 150v2h249v-2q-14 -18 -15.5 -60t13.5 -89l50 -153l68 169q-23 62 -36 88.5t-31 44.5v2h245v-2q-13 -18 -14.5 -58.5t12.5 -90.5l43 -138l50 129q15 35 16 69.5t-7 56t-19 32.5v2h128v-2q-30 -33 -50 -63.5t-43 -87.5l-133 -341h-38l-112 328
l-136 -328h-38z" />
    <glyph glyph-name="x" unicode="x" horiz-adv-x="518" 
d="M136 0h-135v2q28 23 44 38t41 43.5t54 69.5l49 66l-71 119q-40 67 -61 95t-47 52v2h253v-2q-28 -43 27 -137l30 -49l20 28q26 34 37 66t8.5 54.5t-13.5 37.5v2h135v-2q-63 -52 -137 -151l-39 -54l78 -131q40 -67 60.5 -95t47.5 -52v-2h-252v2q26 42 -28 137l-37 62
l-30 -41q-75 -97 -34 -158v-2z" />
    <glyph glyph-name="y" unicode="y" horiz-adv-x="480" 
d="M19 -93q145 -13 191 65l-146 363q-50 121 -76 150v2h245v-2q-15 -19 -16.5 -61.5t17.5 -94.5l60 -156l66 158q14 34 14.5 66.5t-6.5 53.5t-18 34v2h128v-2q-29 -32 -49 -63t-44 -88l-135 -323q-29 -69 -55.5 -112.5t-57 -67.5t-53.5 -34t-65 -22v132z" />
    <glyph glyph-name="z" unicode="z" horiz-adv-x="487" 
d="M15 0v8l257 463l-76 -4q-15 -1 -30.5 -8t-34 -23.5t-30 -27.5t-36 -37.5t-33.5 -36.5l-7 2l41 151h385v-8l-257 -464l93 4q42 1 79.5 36.5t94.5 116.5l7 -2l-40 -170h-413z" />
    <glyph glyph-name="braceleft" unicode="{" horiz-adv-x="381" 
d="M329 -130q-116 0 -177.5 35t-61.5 102q0 44 39.5 114t39.5 101q0 37 -28.5 58t-78.5 21h-25v23h25q51 0 79 20.5t28 58.5q0 31 -39.5 100.5t-39.5 114.5q0 67 61.5 102t177.5 35h30v-22h-30q-43 0 -67.5 -19.5t-24.5 -78.5q0 -31 16 -90.5t16 -93.5q0 -68 -42.5 -99.5
t-120.5 -38.5v-1q78 -6 120 -38t42 -101q0 -34 -15.5 -93.5t-15.5 -89.5q0 -58 24.5 -78t67.5 -20h30v-22h-30z" />
    <glyph glyph-name="bar" unicode="|" horiz-adv-x="205" 
d="M89 -130v911h27v-911h-27z" />
    <glyph glyph-name="braceright" unicode="}" horiz-adv-x="381" 
d="M22 -130v22h30q43 0 67.5 20t24.5 78q0 30 -15.5 89.5t-15.5 93.5q0 69 42 101t120 38v1q-78 7 -120.5 38.5t-42.5 99.5q0 34 16 93.5t16 90.5q0 59 -24.5 78.5t-67.5 19.5h-30v22h30q116 0 177.5 -35t61.5 -102q0 -45 -39.5 -114.5t-39.5 -100.5q0 -38 28 -58.5
t79 -20.5h25v-23h-25q-50 0 -78.5 -21t-28.5 -58q0 -31 39.5 -101t39.5 -114q0 -67 -61.5 -102t-177.5 -35h-30z" />
    <glyph glyph-name="asciitilde" unicode="~" horiz-adv-x="452" 
d="M145 350q25 0 88.5 -25t101.5 -25q31 0 46.5 14t24.5 45l11 -1q-8 -156 -109 -156q-32 0 -97.5 25t-93.5 25q-54 0 -68 -61l-12 1q1 25 6.5 48.5t16.5 50t33 43t52 16.5z" />
    <glyph glyph-name="uni00A0" unicode="&#xa0;" horiz-adv-x="167" 
 />
    <glyph glyph-name="exclamdown" unicode="&#xa1;" horiz-adv-x="241" 
d="M209 -245h-177v2l80 471h17l80 -471v-2zM120 492q36 0 62 -26t26 -61q0 -36 -25.5 -61.5t-62.5 -25.5q-36 0 -61 25.5t-25 61.5t25 61.5t61 25.5z" />
    <glyph glyph-name="cent" unicode="&#xa2;" horiz-adv-x="493" 
d="M471 136q-19 -69 -73 -110q-42 -31 -101 -39v-101h-27v99h-8q-106 0 -171.5 67.5t-65.5 180.5q0 87 44.5 153.5t121.5 96.5q38 14 79 18v69h27v-67h7q77 0 136 -24l15 -144l-10 -2q-42 66 -83 109q-34 37 -65 40v-376q27 -8 53 -8q75 0 116 41zM217 433q-30 -49 -30 -135
q0 -101 48 -154q20 -20 35 -28v364q-30 -9 -53 -47z" />
    <glyph glyph-name="sterling" unicode="&#xa3;" horiz-adv-x="599" 
d="M515 0h-518v8q37 22 56 37.5t37 38.5t27 60.5t16 87t15 135.5h-88l5 23h85q0 2 0.5 6t0.5 6l5 70q5 70 28.5 124.5t59.5 86.5t76 48t82 16q33 0 67 -8t50 -17l16 -189l-11 -3q-12 21 -32.5 60t-30.5 57t-24 40t-25 31t-21 9q-51 0 -67 -237l-3 -32q-6 -46 -11 -68h121
l-5 -23h-121q-45 -170 -158 -239h278q58 0 93 20.5t67 66.5l8 -3z" />
    <glyph glyph-name="yen" unicode="&#xa5;" horiz-adv-x="605" 
d="M161 2q23 49 31.5 84.5t8.5 94.5v13h-136v24h136v110h-136v23h134l-98 213q-30 70 -56 105.5t-64 59.5v3h308v-3q-19 -17 -18 -65.5t26 -107.5l74 -168l64 142q50 112 -12 200v2h201v-2q-53 -40 -89 -81t-61 -97l-92 -201h135v-23h-137v-110h137v-24h-137v-13
q0 -59 8.5 -95t31.5 -84v-2h-259v2z" />
    <glyph glyph-name="brokenbar" unicode="&#xa6;" horiz-adv-x="205" 
d="M89 365v416h27v-416h-27zM89 -130v415h27v-415h-27z" />
    <glyph glyph-name="section" unicode="&#xa7;" horiz-adv-x="488" 
d="M226 -164q-75 0 -137 22l-12 145l6 2q80 -150 156 -150q34 0 54.5 24.5t20.5 60.5q0 21 -8.5 40t-18.5 31.5t-33.5 29t-35.5 23.5t-43 24q-33 20 -53.5 34.5t-43.5 37.5t-34 51.5t-11 63.5q0 61 33.5 102.5t88.5 56.5q-74 60 -74 143q0 75 49.5 122.5t140.5 47.5
q74 0 125 -20l12 -125l-6 -2q-80 128 -149 128q-38 0 -59 -27t-21 -65q0 -26 10 -46.5t35.5 -40.5t40.5 -29.5t54 -31.5q32 -19 52.5 -33.5t43.5 -37.5t34 -51.5t11 -63.5q0 -59 -32 -100.5t-87 -56.5q72 -59 72 -147q0 -74 -47 -118t-134 -44zM257 196l34 -20
q22 -14 33 -22q47 24 47 84q0 10 -2.5 20t-5 18t-9.5 16.5t-11 14.5t-15 14.5t-16 12.5t-19 13t-19 12t-21.5 12.5t-21.5 12.5q-43 24 -65 42q-23 -11 -36.5 -34.5t-13.5 -50.5q0 -24 8.5 -43t33 -38.5t37 -27.5t50.5 -29q8 -5 12 -7z" />
    <glyph glyph-name="dieresis" unicode="&#xa8;" 
d="M392 655q0 -35 -24.5 -59t-59.5 -24t-58 24t-23 59q0 34 23 58t58 24t59.5 -24t24.5 -58zM172 655q0 -35 -24.5 -59t-59.5 -24q-34 0 -57.5 24t-23.5 59q0 34 23.5 58t57.5 24q35 0 59.5 -24t24.5 -58z" />
    <glyph glyph-name="copyright" unicode="&#xa9;" horiz-adv-x="810" 
d="M23 366q0 159 111 269.5t270 110.5t270.5 -110.5t111.5 -269.5t-111.5 -270t-270.5 -111t-270 111t-111 270zM52 366q0 -148 103 -252.5t249 -104.5q147 0 250 104.5t103 252.5t-103 252t-250 104q-146 0 -249 -104t-103 -252zM567 199q-61 -42 -151 -42
q-100 0 -166.5 57.5t-66.5 146.5q0 90 68 152.5t169 62.5q62 0 144 -21l11 -112l-7 -2q-50 68 -80 92.5t-71 24.5q-118 0 -118 -197q0 -90 30 -139t87 -49q46 0 80.5 35.5t74.5 111.5l6 -2z" />
    <glyph glyph-name="ordfeminine" unicode="&#xaa;" horiz-adv-x="414" 
d="M183 427q15 0 26 7v120q-70 -19 -70 -78q0 -49 44 -49zM300 348q-38 0 -60 18.5t-26 49.5q-36 -69 -111 -69q-38 0 -62 20t-24 59q0 60 56 95t136 50v29q0 37 -19 53t-60 16q-46 0 -91 -17l-2 7q79 89 188 89q60 0 91.5 -27.5t31.5 -77.5v-185q0 -37 33 -37q12 0 24 7
l3 -3q-8 -28 -35.5 -52.5t-72.5 -24.5z" />
    <glyph glyph-name="guillemotleft" unicode="&#xab;" horiz-adv-x="432" 
d="M361 52l-164 175v20l164 175l8 -6l-73 -179l73 -179zM204 52l-164 175v20l164 175l8 -6l-73 -179l73 -179z" />
    <glyph glyph-name="registered" unicode="&#xae;" horiz-adv-x="440" 
d="M10 541q0 86 62 146t150 60q87 0 147.5 -59.5t60.5 -146.5q0 -86 -62 -145.5t-149 -59.5q-88 0 -148.5 59t-60.5 146zM37 541q0 -77 53 -129.5t130 -52.5q78 0 130.5 52t52.5 130t-53 130.5t-130 52.5q-78 0 -130.5 -52.5t-52.5 -130.5zM128 434q12 28 12 63v92
q0 34 -12 62v2h100q46 0 65 -14t19 -42q0 -40 -39 -55l31 -68q13 -27 33 -40v-2h-76l-46 101h-18v-36q0 -34 11 -63v-2h-80v2zM214 640h-7q-7 0 -10 -1v-93h19q39 0 39 49q0 45 -41 45z" />
    <glyph glyph-name="macron" unicode="&#xaf;" horiz-adv-x="398" 
d="M50 648h298v-67h-298v67z" />
    <glyph glyph-name="degree" unicode="&#xb0;" horiz-adv-x="298" 
d="M16 615q0 54 39.5 93t95.5 39t93 -38.5t37 -93.5t-39.5 -94t-94.5 -39q-56 0 -93.5 38.5t-37.5 94.5zM44 615q0 -48 29 -78.5t76 -30.5q46 0 75 31t29 78q0 46 -29.5 77t-74.5 31q-47 0 -76 -31t-29 -77z" />
    <glyph glyph-name="acute" unicode="&#xb4;" horiz-adv-x="398" 
d="M244 749l89 -96l-223 -119l-9 9z" />
    <glyph glyph-name="paragraph" unicode="&#xb6;" horiz-adv-x="480" 
d="M363 0v1q15 70 15 145v440q0 90 -15 145v1h64v-1q-15 -58 -15 -145v-440q0 -90 15 -145v-1h-64zM253 0v1q15 70 15 145v195h-62q-81 0 -138.5 58t-57.5 138q0 81 57.5 138t138.5 57h111v-1q-15 -58 -15 -145v-440q0 -90 15 -145v-1h-64z" />
    <glyph glyph-name="periodcentered" unicode="&#xb7;" horiz-adv-x="258" 
d="M129 205q-35 0 -59.5 24.5t-24.5 59.5t24.5 59.5t59.5 24.5t59.5 -24.5t24.5 -59.5t-24.5 -59.5t-59.5 -24.5z" />
    <glyph glyph-name="cedilla" unicode="&#xb8;" horiz-adv-x="398" 
d="M119 -247q72 32 72 79q0 26 -21 35t-43 6l-2 2l79 127h28l-32 -50q41 -5 65 -26.5t24 -55.5q0 -46 -43 -79.5t-123 -47.5z" />
    <glyph glyph-name="ordmasculine" unicode="&#xba;" horiz-adv-x="468" 
d="M234 347q-85 0 -148 59.5t-63 140.5t62.5 141t148.5 60t148.5 -60t62.5 -141t-62.5 -140.5t-148.5 -59.5zM235 364q68 0 68 183t-69 183q-37 0 -52.5 -46t-15.5 -137q0 -183 69 -183z" />
    <glyph glyph-name="guillemotright" unicode="&#xbb;" horiz-adv-x="432" 
d="M220 58l73 179l-73 179l8 6l164 -175v-20l-164 -175zM64 58l73 179l-73 179l8 6l164 -175v-20l-164 -175z" />
    <glyph glyph-name="onequarter" unicode="&#xbc;" horiz-adv-x="687" 
d="M37 334v2q18 21 23.5 38t5.5 47v228h-49v10q103 33 172 92h5v-330q0 -30 5.5 -46.5t22.5 -38.5v-2h-185zM68 17l520 726l21 -15l-520 -727zM455 2q22 38 22 85v13h-150v5l169 295h155l-300 -283h126v100h134v-100h56l-5 -17h-51v-13q0 -51 22 -85v-2h-178v2z" />
    <glyph glyph-name="onehalf" unicode="&#xbd;" horiz-adv-x="733" 
d="M65 17l520 726l21 -15l-520 -727zM392 0v5q92 98 130.5 169.5t38.5 140.5q0 83 -38 83q-21 0 -52 -34.5t-52 -85.5l-8 2l14 115q45 18 104 18q80 0 120.5 -30.5t40.5 -78.5q0 -52 -49 -100.5t-156 -111.5h109q65 0 104 60l7 -2l-41 -150h-272zM37 334v2q18 21 23.5 38
t5.5 47v228h-49v10q103 33 172 92h5v-330q0 -30 5.5 -46.5t22.5 -38.5v-2h-185z" />
    <glyph glyph-name="threequarters" unicode="&#xbe;" horiz-adv-x="738" 
d="M154 326q-79 0 -119 25l-12 98l10 3q26 -41 38.5 -59t31.5 -33.5t38 -15.5q28 0 45.5 28.5t17.5 78.5q0 99 -68 99q-26 0 -64 -22l-7 10l126 103h-151l28 93h260v-5l-200 -163q25 5 45 5q62 0 109 -30t47 -90q0 -59 -48 -92t-127 -33zM119 17l520 726l21 -15l-520 -727z
M506 2q22 38 22 85v13h-150v5l169 295h155l-300 -283h126v100h134v-100h56l-5 -17h-51v-13q0 -51 22 -85v-2h-178v2z" />
    <glyph glyph-name="questiondown" unicode="&#xbf;" horiz-adv-x="433" 
d="M317 228q-3 -42 -23 -81.5t-42 -66t-40.5 -71t-18.5 -97.5q0 -71 21 -111t55 -40q16 0 31.5 9.5t32 31.5t27.5 39.5t30 50.5q7 13 11 19l7 -2l-21 -145q-59 -24 -146 -24q-106 0 -164 39t-58 118q0 51 24.5 91t62 67.5t76.5 51.5t73 55t46 66h16zM297 492q36 0 61.5 -26
t25.5 -61q0 -36 -25.5 -61.5t-61.5 -25.5q-37 0 -62.5 25.5t-25.5 61.5q0 35 26 61t62 26z" />
    <glyph glyph-name="Agrave" unicode="&#xc0;" horiz-adv-x="704" 
d="M283 596l-108 -297h212zM187 0h-184v2q58 55 107 187l197 546h101l200 -551q43 -120 93 -182v-2h-298v2q61 80 18 200l-26 74h-228l-18 -49q-55 -155 38 -225v-2zM457 782l-280 54l52 123l234 -164z" />
    <glyph glyph-name="Aacute" unicode="&#xc1;" horiz-adv-x="704" 
d="M283 596l-108 -297h212zM187 0h-184v2q58 55 107 187l197 546h101l200 -551q43 -120 93 -182v-2h-298v2q61 80 18 200l-26 74h-228l-18 -49q-55 -155 38 -225v-2zM465 959l53 -123l-279 -54l-6 13z" />
    <glyph glyph-name="Acircumflex" unicode="&#xc2;" horiz-adv-x="704" 
d="M283 596l-108 -297h212zM187 0h-184v2q58 55 107 187l197 546h101l200 -551q43 -120 93 -182v-2h-298v2q61 80 18 200l-26 74h-228l-18 -49q-55 -155 38 -225v-2zM358 842l-155 -60l-8 11l159 163h9l159 -163l-9 -11z" />
    <glyph glyph-name="Atilde" unicode="&#xc3;" horiz-adv-x="704" 
d="M283 596l-108 -297h212zM187 0h-184v2q58 55 107 187l197 546h101l200 -551q43 -120 93 -182v-2h-298v2q61 80 18 200l-26 74h-228l-18 -49q-55 -155 38 -225v-2zM281 916q31 0 83.5 -19t84.5 -19q60 0 71 50l14 -2q6 -140 -99 -140q-30 0 -82.5 19t-85.5 19
q-59 0 -70 -51l-14 2q-6 141 98 141z" />
    <glyph glyph-name="Adieresis" unicode="&#xc4;" horiz-adv-x="704" 
d="M283 596l-108 -297h212zM187 0h-184v2q58 55 107 187l197 546h101l200 -551q43 -120 93 -182v-2h-298v2q61 80 18 200l-26 74h-228l-18 -49q-55 -155 38 -225v-2zM564 868q0 -35 -24.5 -58.5t-59.5 -23.5t-58 23.5t-23 58.5q0 34 23 58t58 24t59.5 -24t24.5 -58zM318 868
q0 -35 -24.5 -58.5t-59.5 -23.5t-58 23.5t-23 58.5q0 34 23 58t58 24t59.5 -24t24.5 -58z" />
    <glyph glyph-name="Aring" unicode="&#xc5;" horiz-adv-x="704" 
d="M283 596l-108 -297h212zM187 0h-184v2q58 55 107 187l197 546h101l200 -551q43 -120 93 -182v-2h-298v2q61 80 18 200l-26 74h-228l-18 -49q-55 -155 38 -225v-2zM265 867q0 39 26.5 64t66.5 25q41 0 67 -24.5t26 -64.5q0 -38 -27 -63t-66 -25t-66 25t-27 63zM310 867
q0 -32 13 -49.5t35 -17.5t35 17.5t13 49.5q0 33 -13 51t-35 18t-35 -18t-13 -51z" />
    <glyph glyph-name="AE" unicode="&#xc6;" horiz-adv-x="1059" 
d="M480 525q0 86 -11 119l-211 -345h222v226zM195 0h-186v2q77 59 154 186l294 484q-16 31 -51 58v2h552l38 -193l-11 -3q-11 11 -58.5 61.5t-80.5 77.5t-59 29l-128 9v-326h59q19 0 40.5 11.5t35 23t37 35.5t30.5 30h11v-227h-11q-9 8 -39.5 39.5t-54.5 48t-49 16.5h-59
v-345l145 8q47 2 113.5 67t119.5 139l10 -3l-51 -230h-556v2q23 62 31.5 101.5t8.5 103.5v69h-236l-35 -58q-80 -131 -14 -216v-2z" />
    <glyph glyph-name="Ccedilla" unicode="&#xc7;" horiz-adv-x="768" 
d="M310 -247q72 32 72 79q0 26 -21 35t-43 6l-2 2l70 113q-58 6 -109 24q-113 42 -180.5 133.5t-67.5 211.5q0 164 119 277t299 113q117 0 254 -37l20 -184l-10 -3q-85 114 -141 157.5t-128 43.5q-220 0 -220 -367q0 -165 56.5 -257t161.5 -92q44 0 80.5 16.5t70.5 54.5
t59.5 76t64.5 105l10 -3l-20 -197q-20 -14 -49 -28.5t-90.5 -30.5t-126.5 -16q-18 0 -27 1l-21 -34q41 -5 65 -26.5t24 -55.5q0 -46 -43 -79.5t-123 -47.5z" />
    <glyph glyph-name="Egrave" unicode="&#xc8;" horiz-adv-x="664" 
d="M598 0h-556v2q23 62 31.5 101.5t8.5 103.5v318q0 45 -5.5 81t-12 58t-22.5 66v2h519l37 -193l-10 -3q-11 10 -58.5 61t-81 78t-58.5 29l-129 9v-326h59q15 0 31 6t32.5 19t27.5 23t28.5 28t24.5 24h10v-227h-10q-9 7 -39.5 39.5t-55 48.5t-49.5 16h-59v-345l145 8
q47 2 113.5 67t119.5 139l10 -3zM458 782l-280 54l52 123l234 -164z" />
    <glyph glyph-name="Eacute" unicode="&#xc9;" horiz-adv-x="664" 
d="M598 0h-556v2q23 62 31.5 101.5t8.5 103.5v318q0 45 -5.5 81t-12 58t-22.5 66v2h519l37 -193l-10 -3q-11 10 -58.5 61t-81 78t-58.5 29l-129 9v-326h59q15 0 31 6t32.5 19t27.5 23t28.5 28t24.5 24h10v-227h-10q-9 7 -39.5 39.5t-55 48.5t-49.5 16h-59v-345l145 8
q47 2 113.5 67t119.5 139l10 -3zM447 959l53 -123l-279 -54l-6 13z" />
    <glyph glyph-name="Ecircumflex" unicode="&#xca;" horiz-adv-x="664" 
d="M598 0h-556v2q23 62 31.5 101.5t8.5 103.5v318q0 45 -5.5 81t-12 58t-22.5 66v2h519l37 -193l-10 -3q-11 10 -58.5 61t-81 78t-58.5 29l-129 9v-326h59q15 0 31 6t32.5 19t27.5 23t28.5 28t24.5 24h10v-227h-10q-9 7 -39.5 39.5t-55 48.5t-49.5 16h-59v-345l145 8
q47 2 113.5 67t119.5 139l10 -3zM330 842l-155 -60l-8 11l159 163h9l159 -163l-9 -11z" />
    <glyph glyph-name="Edieresis" unicode="&#xcb;" horiz-adv-x="664" 
d="M598 0h-556v2q23 62 31.5 101.5t8.5 103.5v318q0 45 -5.5 81t-12 58t-22.5 66v2h519l37 -193l-10 -3q-11 10 -58.5 61t-81 78t-58.5 29l-129 9v-326h59q15 0 31 6t32.5 19t27.5 23t28.5 28t24.5 24h10v-227h-10q-9 7 -39.5 39.5t-55 48.5t-49.5 16h-59v-345l145 8
q47 2 113.5 67t119.5 139l10 -3zM535 868q0 -35 -24.5 -58.5t-59.5 -23.5t-58 23.5t-23 58.5q0 34 23 58t58 24t59.5 -24t24.5 -58zM289 868q0 -35 -24.5 -58.5t-59.5 -23.5t-58 23.5t-23 58.5q0 34 23 58t58 24t59.5 -24t24.5 -58z" />
    <glyph glyph-name="Igrave" unicode="&#xcc;" horiz-adv-x="344" 
d="M42 2q23 58 31.5 98.5t8.5 110.5v310q0 70 -8.5 110.5t-31.5 98.5v2h260v-2q-23 -57 -32 -99t-9 -110v-310q0 -68 9 -110t32 -99v-2h-260v2zM283 782l-280 54l52 123l234 -164z" />
    <glyph glyph-name="Iacute" unicode="&#xcd;" horiz-adv-x="344" 
d="M42 2q23 58 31.5 98.5t8.5 110.5v310q0 70 -8.5 110.5t-31.5 98.5v2h260v-2q-23 -57 -32 -99t-9 -110v-310q0 -68 9 -110t32 -99v-2h-260v2zM278 959l53 -123l-279 -54l-6 13z" />
    <glyph glyph-name="Icircumflex" unicode="&#xce;" horiz-adv-x="344" 
d="M42 2q23 58 31.5 98.5t8.5 110.5v310q0 70 -8.5 110.5t-31.5 98.5v2h260v-2q-23 -57 -32 -99t-9 -110v-310q0 -68 9 -110t32 -99v-2h-260v2zM172 842l-155 -60l-8 11l159 163h9l159 -163l-9 -11z" />
    <glyph glyph-name="Idieresis" unicode="&#xcf;" horiz-adv-x="344" 
d="M364 868q0 -35 -24.5 -58.5t-59.5 -23.5t-58 23.5t-23 58.5q0 34 23 58t58 24t59.5 -24t24.5 -58zM144 868q0 -35 -24 -58.5t-59 -23.5t-58.5 23.5t-23.5 58.5q0 34 23.5 58t58.5 24t59 -24t24 -58zM42 2q23 58 31.5 98.5t8.5 110.5v310q0 70 -8.5 110.5t-31.5 98.5v2
h260v-2q-23 -57 -32 -99t-9 -110v-310q0 -68 9 -110t32 -99v-2h-260v2z" />
    <glyph glyph-name="Eth" unicode="&#xd0;" horiz-adv-x="811" 
d="M1 365h90v165q0 67 -8.5 106t-31.5 94v2q49 0 137 2t158 2q204 0 320.5 -95.5t116.5 -271.5q0 -177 -114 -273t-323 -96h-295v2q23 53 31.5 93t8.5 107v140h-90v23zM349 25q135 0 187.5 81t52.5 249q0 184 -57 271t-189 85q-25 0 -73 -5v-341h129v-23h-129v-313
q44 -4 79 -4z" />
    <glyph glyph-name="Ntilde" unicode="&#xd1;" horiz-adv-x="722" 
d="M108 605l4 -388q0 -69 16.5 -112t59.5 -103v-2h-180v2q43 61 58.5 102.5t15.5 112.5v355q-4 50 -20 83t-53 75v2h223l370 -465l-2 246q0 71 -16 114.5t-58 102.5v2h176v-2q-42 -62 -57.5 -103.5t-15.5 -111.5v-514l-34 -4zM310 916q31 0 83.5 -19t84.5 -19q60 0 71 50
l14 -2q6 -140 -99 -140q-30 0 -82.5 19t-85.5 19q-59 0 -70 -51l-14 2q-6 141 98 141z" />
    <glyph glyph-name="Ograve" unicode="&#xd2;" horiz-adv-x="834" 
d="M417 -15q-165 0 -276.5 109t-111.5 271q0 161 112 271.5t276 110.5t276 -110.5t112 -271.5q0 -162 -112 -271t-276 -109zM417 8q99 0 146.5 96t47.5 261t-47 262t-147 97t-147.5 -97t-47.5 -262t47.5 -261t147.5 -96zM522 782l-280 54l52 123l234 -164z" />
    <glyph glyph-name="Oacute" unicode="&#xd3;" horiz-adv-x="834" 
d="M417 -15q-165 0 -276.5 109t-111.5 271q0 161 112 271.5t276 110.5t276 -110.5t112 -271.5q0 -162 -112 -271t-276 -109zM417 8q99 0 146.5 96t47.5 261t-47 262t-147 97t-147.5 -97t-47.5 -262t47.5 -261t147.5 -96zM534 959l53 -123l-279 -54l-6 13z" />
    <glyph glyph-name="Ocircumflex" unicode="&#xd4;" horiz-adv-x="834" 
d="M417 -15q-165 0 -276.5 109t-111.5 271q0 161 112 271.5t276 110.5t276 -110.5t112 -271.5q0 -162 -112 -271t-276 -109zM417 8q99 0 146.5 96t47.5 261t-47 262t-147 97t-147.5 -97t-47.5 -262t47.5 -261t147.5 -96zM417 842l-155 -60l-8 11l159 163h9l159 -163l-9 -11z
" />
    <glyph glyph-name="Otilde" unicode="&#xd5;" horiz-adv-x="834" 
d="M417 -15q-165 0 -276.5 109t-111.5 271q0 161 112 271.5t276 110.5t276 -110.5t112 -271.5q0 -162 -112 -271t-276 -109zM417 8q99 0 146.5 96t47.5 261t-47 262t-147 97t-147.5 -97t-47.5 -262t47.5 -261t147.5 -96zM339 916q31 0 83.5 -19t84.5 -19q60 0 71 50l14 -2
q6 -140 -99 -140q-30 0 -82.5 19t-85.5 19q-59 0 -70 -51l-14 2q-6 141 98 141z" />
    <glyph glyph-name="Odieresis" unicode="&#xd6;" horiz-adv-x="834" 
d="M417 -15q-165 0 -276.5 109t-111.5 271q0 161 112 271.5t276 110.5t276 -110.5t112 -271.5q0 -162 -112 -271t-276 -109zM417 8q99 0 146.5 96t47.5 261t-47 262t-147 97t-147.5 -97t-47.5 -262t47.5 -261t147.5 -96zM622 868q0 -35 -24.5 -58.5t-59.5 -23.5t-58 23.5
t-23 58.5q0 34 23 58t58 24t59.5 -24t24.5 -58zM376 868q0 -35 -24.5 -58.5t-59.5 -23.5t-58 23.5t-23 58.5q0 34 23 58t58 24t59.5 -24t24.5 -58z" />
    <glyph glyph-name="multiply" unicode="&#xd7;" horiz-adv-x="472" 
d="M236 288l-168 -168l-19 19l168 168l-168 168l19 19l168 -168l168 168l19 -19l-168 -168l168 -168l-19 -19z" />
    <glyph glyph-name="Oslash" unicode="&#xd8;" horiz-adv-x="834" 
d="M222 365q0 -142 35 -234l306 498q-49 95 -146 95q-100 0 -147.5 -97t-47.5 -262zM417 8q99 0 146.5 96t47.5 261q0 146 -35 235l-305 -497q49 -95 146 -95zM417 -15q-101 0 -190 46l-53 -86h-31l61 100q-81 50 -128 134.5t-47 185.5q0 161 112 271.5t276 110.5
q104 0 189 -47l54 88h31l-62 -101q81 -51 128.5 -136t47.5 -186q0 -162 -112 -271t-276 -109z" />
    <glyph glyph-name="Ugrave" unicode="&#xd9;" horiz-adv-x="734" 
d="M384 -15q-137 0 -218 69.5t-81 213.5v253q0 70 -8.5 110t-32.5 99v2h262v-2q-23 -52 -32 -95.5t-9 -113.5v-262q0 -238 172 -238q96 0 138.5 69.5t42.5 183.5v239q0 73 -18 117t-66 100v2h195l2 -2q-48 -61 -66 -104t-18 -113v-232q0 -68 -11.5 -118.5t-39.5 -92.5
t-81.5 -63.5t-130.5 -21.5zM535 782l-280 54l52 123l234 -164z" />
    <glyph glyph-name="Uacute" unicode="&#xda;" horiz-adv-x="734" 
d="M384 -15q-137 0 -218 69.5t-81 213.5v253q0 70 -8.5 110t-32.5 99v2h262v-2q-23 -52 -32 -95.5t-9 -113.5v-262q0 -238 172 -238q96 0 138.5 69.5t42.5 183.5v239q0 73 -18 117t-66 100v2h195l2 -2q-48 -61 -66 -104t-18 -113v-232q0 -68 -11.5 -118.5t-39.5 -92.5
t-81.5 -63.5t-130.5 -21.5zM544 959l53 -123l-279 -54l-6 13z" />
    <glyph glyph-name="Ucircumflex" unicode="&#xdb;" horiz-adv-x="734" 
d="M384 -15q-137 0 -218 69.5t-81 213.5v253q0 70 -8.5 110t-32.5 99v2h262v-2q-23 -52 -32 -95.5t-9 -113.5v-262q0 -238 172 -238q96 0 138.5 69.5t42.5 183.5v239q0 73 -18 117t-66 100v2h195l2 -2q-48 -61 -66 -104t-18 -113v-232q0 -68 -11.5 -118.5t-39.5 -92.5
t-81.5 -63.5t-130.5 -21.5zM420 842l-155 -60l-8 11l159 163h9l159 -163l-9 -11z" />
    <glyph glyph-name="Udieresis" unicode="&#xdc;" horiz-adv-x="734" 
d="M384 -15q-137 0 -218 69.5t-81 213.5v253q0 70 -8.5 110t-32.5 99v2h262v-2q-23 -52 -32 -95.5t-9 -113.5v-262q0 -238 172 -238q96 0 138.5 69.5t42.5 183.5v239q0 73 -18 117t-66 100v2h195l2 -2q-48 -61 -66 -104t-18 -113v-232q0 -68 -11.5 -118.5t-39.5 -92.5
t-81.5 -63.5t-130.5 -21.5zM626 868q0 -35 -24.5 -58.5t-59.5 -23.5t-58 23.5t-23 58.5q0 34 23 58t58 24t59.5 -24t24.5 -58zM380 868q0 -35 -24.5 -58.5t-59.5 -23.5t-58 23.5t-23 58.5q0 34 23 58t58 24t59.5 -24t24.5 -58z" />
    <glyph glyph-name="Yacute" unicode="&#xdd;" horiz-adv-x="660" 
d="M190 2q23 48 32 84t9 95v170l-116 213q-39 73 -62.5 107.5t-53.5 57.5v3h318v-3q-25 -21 -30 -65.5t24 -107.5l91 -167l79 141q66 118 -27 200v2h208v-2q-43 -33 -73.5 -73.5t-66.5 -104.5l-112 -201v-170q0 -59 8.5 -95t31.5 -84v-2h-260v2zM493 959l53 -123l-279 -54
l-6 13z" />
    <glyph glyph-name="Thorn" unicode="&#xde;" horiz-adv-x="630" 
d="M302 0h-260v2q23 58 31.5 98.5t8.5 110.5v310q0 70 -8.5 110.5t-31.5 98.5v2h260v-2q-33 -83 -39 -148h72q292 0 292 -192q0 -100 -76 -161.5t-236 -61.5h-53q3 -75 40 -165v-2zM290 190q79 0 116.5 59t37.5 141q0 78 -38 123.5t-115 45.5h-14q-10 0 -15 -1q-1 -5 -1 -18
v-350h29z" />
    <glyph glyph-name="germandbls" unicode="&#xdf;" horiz-adv-x="648" 
d="M452 -15q-77 0 -147 31l-13 140l9 2q52 -82 88 -118.5t76 -36.5q29 0 44 17t15 45q0 33 -22.5 57.5t-54.5 42t-64 36.5t-54.5 51.5t-22.5 76.5q0 34 13.5 61t32.5 46.5t38 41t32.5 58.5t13.5 86q0 61 -21 100t-65 39q-51 0 -80 -56t-29 -159v-546h-192v2q31 65 31 155
v308h-63v22h63q4 131 79.5 211.5t197.5 80.5q81 0 137.5 -36t56.5 -104q0 -33 -15.5 -60t-38 -44.5t-45 -32.5t-38 -33.5t-15.5 -39.5q0 -26 24.5 -47.5t59.5 -40.5t69.5 -42t59 -62.5t24.5 -91.5q0 -79 -52 -119.5t-132 -40.5z" />
    <glyph glyph-name="agrave" unicode="&#xe0;" horiz-adv-x="525" 
d="M231 72q25 0 42 10v161q-52 -14 -80.5 -42t-28.5 -64q0 -30 17.5 -47.5t49.5 -17.5zM383 -14q-44 0 -72 21t-35 56q-53 -78 -140 -78q-49 0 -81 25.5t-32 74.5q0 126 250 179v62q0 45 -21.5 65.5t-74.5 20.5q-66 0 -130 -27l-4 7q90 111 235 111q79 0 117.5 -35t38.5 -96
v-257q0 -45 43 -45q21 0 38 12l2 -4q-39 -92 -134 -92zM320 531l-224 122l91 96l142 -209z" />
    <glyph glyph-name="aacute" unicode="&#xe1;" horiz-adv-x="525" 
d="M231 72q25 0 42 10v161q-52 -14 -80.5 -42t-28.5 -64q0 -30 17.5 -47.5t49.5 -17.5zM383 -14q-44 0 -72 21t-35 56q-53 -78 -140 -78q-49 0 -81 25.5t-32 74.5q0 126 250 179v62q0 45 -21.5 65.5t-74.5 20.5q-66 0 -130 -27l-4 7q90 111 235 111q79 0 117.5 -35t38.5 -96
v-257q0 -45 43 -45q21 0 38 12l2 -4q-39 -92 -134 -92zM301 749l89 -96l-223 -119l-9 9z" />
    <glyph glyph-name="acircumflex" unicode="&#xe2;" horiz-adv-x="525" 
d="M231 72q25 0 42 10v161q-52 -14 -80.5 -42t-28.5 -64q0 -30 17.5 -47.5t49.5 -17.5zM383 -14q-44 0 -72 21t-35 56q-53 -78 -140 -78q-49 0 -81 25.5t-32 74.5q0 126 250 179v62q0 45 -21.5 65.5t-74.5 20.5q-66 0 -130 -27l-4 7q90 111 235 111q79 0 117.5 -35t38.5 -96
v-257q0 -45 43 -45q21 0 38 12l2 -4q-39 -92 -134 -92zM250 608l-141 -68l-9 11l145 181h9l144 -181l-8 -11z" />
    <glyph glyph-name="atilde" unicode="&#xe3;" horiz-adv-x="525" 
d="M231 72q25 0 42 10v161q-52 -14 -80.5 -42t-28.5 -64q0 -30 17.5 -47.5t49.5 -17.5zM383 -14q-44 0 -72 21t-35 56q-53 -78 -140 -78q-49 0 -81 25.5t-32 74.5q0 126 250 179v62q0 45 -21.5 65.5t-74.5 20.5q-66 0 -130 -27l-4 7q90 111 235 111q79 0 117.5 -35t38.5 -96
v-257q0 -45 43 -45q21 0 38 12l2 -4q-39 -92 -134 -92zM186 694q23 0 70 -17.5t71 -17.5q50 0 63 47l14 -2q0 -55 -21.5 -96t-71.5 -41q-21 0 -69 17.5t-72 17.5q-50 0 -63 -47l-14 2q0 54 22 95.5t71 41.5z" />
    <glyph glyph-name="adieresis" unicode="&#xe4;" horiz-adv-x="525" 
d="M231 72q25 0 42 10v161q-52 -14 -80.5 -42t-28.5 -64q0 -30 17.5 -47.5t49.5 -17.5zM383 -14q-44 0 -72 21t-35 56q-53 -78 -140 -78q-49 0 -81 25.5t-32 74.5q0 126 250 179v62q0 45 -21.5 65.5t-74.5 20.5q-66 0 -130 -27l-4 7q90 111 235 111q79 0 117.5 -35t38.5 -96
v-257q0 -45 43 -45q21 0 38 12l2 -4q-39 -92 -134 -92zM441 655q0 -35 -24.5 -59t-59.5 -24t-58 24t-23 59q0 34 23 58t58 24t59.5 -24t24.5 -58zM221 655q0 -35 -24.5 -59t-59.5 -24q-34 0 -57.5 24t-23.5 59q0 34 23.5 58t57.5 24q35 0 59.5 -24t24.5 -58z" />
    <glyph glyph-name="aring" unicode="&#xe5;" horiz-adv-x="525" 
d="M231 72q25 0 42 10v161q-52 -14 -80.5 -42t-28.5 -64q0 -30 17.5 -47.5t49.5 -17.5zM383 -14q-44 0 -72 21t-35 56q-53 -78 -140 -78q-49 0 -81 25.5t-32 74.5q0 126 250 179v62q0 45 -21.5 65.5t-74.5 20.5q-66 0 -130 -27l-4 7q90 111 235 111q79 0 117.5 -35t38.5 -96
v-257q0 -45 43 -45q21 0 38 12l2 -4q-39 -92 -134 -92zM155 652q0 39 26.5 64.5t66.5 25.5q41 0 67 -25t26 -65q0 -38 -27 -62.5t-66 -24.5t-66 24.5t-27 62.5zM200 652q0 -32 13 -49.5t35 -17.5t35 17.5t13 49.5q0 33 -13 51.5t-35 18.5t-35 -18.5t-13 -51.5z" />
    <glyph glyph-name="ae" unicode="&#xe6;" horiz-adv-x="743" 
d="M513 485q-35 0 -55.5 -49t-22.5 -125l131 2v38q0 134 -53 134zM723 136q-21 -70 -76.5 -110.5t-138.5 -40.5q-135 0 -197 102q-64 -102 -170 -102q-53 0 -85.5 26t-32.5 74q0 126 250 179v62q0 45 -21.5 65.5t-74.5 20.5q-66 0 -130 -27l-4 7q90 111 235 111
q72 0 110 -39q58 39 130 39q97 0 151.5 -65t52.5 -148l-287 1q2 -102 46 -147.5t115 -45.5q42 0 74.5 13t46.5 28zM232 72q42 0 72 27q-31 58 -31 134q0 8 1 10q-110 -29 -110 -106q0 -30 18 -47.5t50 -17.5z" />
    <glyph glyph-name="ccedilla" unicode="&#xe7;" horiz-adv-x="497" 
d="M174 -247q72 32 72 79q0 26 -21 35t-43 6l-2 2l68 110q-44 1 -83 17q-66 28 -103 87.5t-37 143.5q0 118 78 194t201 76q77 0 136 -24l15 -144l-10 -2q-96 150 -155 150q-44 0 -73.5 -50.5t-29.5 -134.5q0 -102 45.5 -151t117.5 -49q75 0 116 41l5 -3q-19 -69 -73 -110
q-48 -36 -122 -41l-21 -33q41 -5 65 -26.5t24 -55.5q0 -46 -43 -79.5t-123 -47.5z" />
    <glyph glyph-name="egrave" unicode="&#xe8;" horiz-adv-x="511" 
d="M266 485q-37 0 -57.5 -50.5t-20.5 -123.5l142 2v38q0 134 -64 134zM485 143q-21 -73 -77 -115.5t-140 -42.5q-111 0 -177 71t-66 179q0 116 71 192t176 76q99 0 157.5 -65.5t56.5 -147.5l-298 1q7 -193 163 -193q83 0 129 48zM331 531l-224 122l91 96l142 -209z" />
    <glyph glyph-name="eacute" unicode="&#xe9;" horiz-adv-x="511" 
d="M266 485q-37 0 -57.5 -50.5t-20.5 -123.5l142 2v38q0 134 -64 134zM485 143q-21 -73 -77 -115.5t-140 -42.5q-111 0 -177 71t-66 179q0 116 71 192t176 76q99 0 157.5 -65.5t56.5 -147.5l-298 1q7 -193 163 -193q83 0 129 48zM312 749l89 -96l-223 -119l-9 9z" />
    <glyph glyph-name="ecircumflex" unicode="&#xea;" horiz-adv-x="511" 
d="M266 485q-37 0 -57.5 -50.5t-20.5 -123.5l142 2v38q0 134 -64 134zM485 143q-21 -73 -77 -115.5t-140 -42.5q-111 0 -177 71t-66 179q0 116 71 192t176 76q99 0 157.5 -65.5t56.5 -147.5l-298 1q7 -193 163 -193q83 0 129 48zM260 608l-141 -68l-9 11l145 181h9l144 -181
l-8 -11z" />
    <glyph glyph-name="edieresis" unicode="&#xeb;" horiz-adv-x="511" 
d="M266 485q-37 0 -57.5 -50.5t-20.5 -123.5l142 2v38q0 134 -64 134zM485 143q-21 -73 -77 -115.5t-140 -42.5q-111 0 -177 71t-66 179q0 116 71 192t176 76q99 0 157.5 -65.5t56.5 -147.5l-298 1q7 -193 163 -193q83 0 129 48zM452 655q0 -35 -24.5 -59t-59.5 -24t-58 24
t-23 59q0 34 23 58t58 24t59.5 -24t24.5 -58zM232 655q0 -35 -24.5 -59t-59.5 -24q-34 0 -57.5 24t-23.5 59q0 34 23.5 58t57.5 24q35 0 59.5 -24t24.5 -58z" />
    <glyph glyph-name="igrave" unicode="&#xec;" horiz-adv-x="285" 
d="M41 2q24 89 24 174v112q0 54 -11.5 89.5t-38.5 68.5v4l211 58v-332q0 -102 24 -174v-2h-209v2zM220 531l-224 122l91 96l142 -209z" />
    <glyph glyph-name="iacute" unicode="&#xed;" horiz-adv-x="285" 
d="M41 2q24 89 24 174v112q0 54 -11.5 89.5t-38.5 68.5v4l211 58v-332q0 -102 24 -174v-2h-209v2zM200 749l89 -96l-223 -119l-9 9z" />
    <glyph glyph-name="icircumflex" unicode="&#xee;" horiz-adv-x="285" 
d="M41 2q24 89 24 174v112q0 54 -11.5 89.5t-38.5 68.5v4l211 58v-332q0 -102 24 -174v-2h-209v2zM149 608l-141 -68l-9 11l145 181h9l144 -181l-8 -11z" />
    <glyph glyph-name="idieresis" unicode="&#xef;" horiz-adv-x="285" 
d="M328 655q0 -35 -24.5 -59t-59.5 -24t-58 24t-23 59q0 34 23 58t58 24t59.5 -24t24.5 -58zM132 655q0 -35 -24.5 -59t-59.5 -24q-34 0 -57.5 24t-23.5 59q0 34 23.5 58t57.5 24q35 0 59.5 -24t24.5 -58zM41 2q24 89 24 174v112q0 54 -11.5 89.5t-38.5 68.5v4l211 58v-332
q0 -102 24 -174v-2h-209v2z" />
    <glyph glyph-name="eth" unicode="&#xf0;" horiz-adv-x="604" 
d="M297 -15q-117 0 -195 75.5t-78 195.5q0 108 72.5 175.5t164.5 67.5q94 0 134 -74q-26 119 -86 204l-119 -80l-12 17l119 80q-60 79 -141 122l4 10q105 -34 195 -93l105 70l12 -17l-99 -66q105 -79 155 -176.5t50 -199.5q0 -133 -78 -222t-203 -89zM296 7q58 0 87 73
t29 182q0 35 -3 71q-15 71 -47 106.5t-71 35.5q-100 0 -100 -235q0 -114 27 -173.5t78 -59.5z" />
    <glyph glyph-name="ntilde" unicode="&#xf1;" horiz-adv-x="606" 
d="M250 0h-209v2q25 75 25 174l-1 113q0 56 -11.5 91t-38.5 68v2l207 58v-100l4 -1q60 96 168 96q67 0 108.5 -38t41.5 -101v-187q0 -101 24 -175v-2h-209v2q24 72 24 173v179q0 34 -17 54t-52 20q-54 0 -88 -49v-203q0 -100 24 -174v-2zM240 694q23 0 70 -17.5t71 -17.5
q50 0 63 47l14 -2q0 -55 -21.5 -96t-71.5 -41q-21 0 -69 17.5t-72 17.5q-50 0 -63 -47l-14 2q0 54 22 95.5t71 41.5z" />
    <glyph glyph-name="ograve" unicode="&#xf2;" horiz-adv-x="588" 
d="M294 -15q-110 0 -189.5 76.5t-79.5 181.5t79.5 182.5t189.5 77.5t189.5 -77.5t79.5 -182.5t-79.5 -181.5t-189.5 -76.5zM294 4q51 0 77 64.5t26 174.5q0 111 -26 176t-77 65q-52 0 -77.5 -64.5t-25.5 -176.5q0 -110 26 -174.5t77 -64.5zM372 531l-224 122l91 96l142 -209
z" />
    <glyph glyph-name="oacute" unicode="&#xf3;" horiz-adv-x="588" 
d="M294 -15q-110 0 -189.5 76.5t-79.5 181.5t79.5 182.5t189.5 77.5t189.5 -77.5t79.5 -182.5t-79.5 -181.5t-189.5 -76.5zM294 4q51 0 77 64.5t26 174.5q0 111 -26 176t-77 65q-52 0 -77.5 -64.5t-25.5 -176.5q0 -110 26 -174.5t77 -64.5zM353 749l89 -96l-223 -119l-9 9z
" />
    <glyph glyph-name="ocircumflex" unicode="&#xf4;" horiz-adv-x="588" 
d="M294 -15q-110 0 -189.5 76.5t-79.5 181.5t79.5 182.5t189.5 77.5t189.5 -77.5t79.5 -182.5t-79.5 -181.5t-189.5 -76.5zM294 4q51 0 77 64.5t26 174.5q0 111 -26 176t-77 65q-52 0 -77.5 -64.5t-25.5 -176.5q0 -110 26 -174.5t77 -64.5zM295 608l-141 -68l-9 11l145 181
h9l144 -181l-8 -11z" />
    <glyph glyph-name="otilde" unicode="&#xf5;" horiz-adv-x="588" 
d="M294 -15q-110 0 -189.5 76.5t-79.5 181.5t79.5 182.5t189.5 77.5t189.5 -77.5t79.5 -182.5t-79.5 -181.5t-189.5 -76.5zM294 4q51 0 77 64.5t26 174.5q0 111 -26 176t-77 65q-52 0 -77.5 -64.5t-25.5 -176.5q0 -110 26 -174.5t77 -64.5zM231 694q23 0 70 -17.5t71 -17.5
q50 0 63 47l14 -2q0 -55 -21.5 -96t-71.5 -41q-22 0 -69 17.5t-72 17.5q-50 0 -63 -47l-14 2q0 54 22 95.5t71 41.5z" />
    <glyph glyph-name="odieresis" unicode="&#xf6;" horiz-adv-x="588" 
d="M294 -15q-110 0 -189.5 76.5t-79.5 181.5t79.5 182.5t189.5 77.5t189.5 -77.5t79.5 -182.5t-79.5 -181.5t-189.5 -76.5zM294 4q51 0 77 64.5t26 174.5q0 111 -26 176t-77 65q-52 0 -77.5 -64.5t-25.5 -176.5q0 -110 26 -174.5t77 -64.5zM486 655q0 -35 -24.5 -59
t-59.5 -24t-58 24t-23 59q0 34 23 58t58 24t59.5 -24t24.5 -58zM266 655q0 -35 -24.5 -59t-59.5 -24q-34 0 -57.5 24t-23.5 59q0 34 23.5 58t57.5 24q35 0 59.5 -24t24.5 -58z" />
    <glyph glyph-name="divide" unicode="&#xf7;" horiz-adv-x="546" 
d="M52 296v24h442v-24h-442zM273 60q-35 0 -59.5 24.5t-24.5 59.5t24.5 59.5t59.5 24.5t59.5 -24.5t24.5 -59.5t-24.5 -59.5t-59.5 -24.5zM273 386q-35 0 -59.5 24.5t-24.5 59.5t24.5 59.5t59.5 24.5t59.5 -24.5t24.5 -59.5t-24.5 -59.5t-59.5 -24.5z" />
    <glyph glyph-name="oslash" unicode="&#xf8;" horiz-adv-x="588" 
d="M294 -15q-75 0 -134 35l-60 -87h-30l69 101q-53 36 -83.5 91t-30.5 118q0 105 79.5 182.5t189.5 77.5q76 0 138 -39l55 80h31l-64 -94q51 -37 80 -91.5t29 -115.5q0 -105 -79.5 -181.5t-189.5 -76.5zM191 243q0 -72 10 -119l180 264q-26 96 -87 96q-52 0 -77.5 -64.5
t-25.5 -176.5zM294 4q51 0 77 64.5t26 174.5q0 63 -9 111l-180 -263q26 -87 86 -87z" />
    <glyph glyph-name="ugrave" unicode="&#xf9;" horiz-adv-x="581" 
d="M349 96q-21 -41 -63.5 -76t-100.5 -35q-64 0 -99.5 43t-35.5 116v227q0 41 -9 65t-29 48v3h198v-344q0 -33 16 -54t48 -21q45 0 73 49v255q0 42 -9 66.5t-29 46.5v2h199v-279q0 -80 10.5 -113.5t39.5 -61.5v-2l-206 -45v109zM357 531l-224 122l91 96l142 -209z" />
    <glyph glyph-name="uacute" unicode="&#xfa;" horiz-adv-x="581" 
d="M349 96q-21 -41 -63.5 -76t-100.5 -35q-64 0 -99.5 43t-35.5 116v227q0 41 -9 65t-29 48v3h198v-344q0 -33 16 -54t48 -21q45 0 73 49v255q0 42 -9 66.5t-29 46.5v2h199v-279q0 -80 10.5 -113.5t39.5 -61.5v-2l-206 -45v109zM337 749l89 -96l-223 -119l-9 9z" />
    <glyph glyph-name="ucircumflex" unicode="&#xfb;" horiz-adv-x="581" 
d="M349 96q-21 -41 -63.5 -76t-100.5 -35q-64 0 -99.5 43t-35.5 116v227q0 41 -9 65t-29 48v3h198v-344q0 -33 16 -54t48 -21q45 0 73 49v255q0 42 -9 66.5t-29 46.5v2h199v-279q0 -80 10.5 -113.5t39.5 -61.5v-2l-206 -45v109zM286 608l-141 -68l-9 11l145 181h9l144 -181
l-8 -11z" />
    <glyph glyph-name="udieresis" unicode="&#xfc;" horiz-adv-x="581" 
d="M349 96q-21 -41 -63.5 -76t-100.5 -35q-64 0 -99.5 43t-35.5 116v227q0 41 -9 65t-29 48v3h198v-344q0 -33 16 -54t48 -21q45 0 73 49v255q0 42 -9 66.5t-29 46.5v2h199v-279q0 -80 10.5 -113.5t39.5 -61.5v-2l-206 -45v109zM477 655q0 -35 -24.5 -59t-59.5 -24t-58 24
t-23 59q0 34 23 58t58 24t59.5 -24t24.5 -58zM257 655q0 -35 -24.5 -59t-59.5 -24q-34 0 -57.5 24t-23.5 59q0 34 23.5 58t57.5 24q35 0 59.5 -24t24.5 -58z" />
    <glyph glyph-name="yacute" unicode="&#xfd;" horiz-adv-x="480" 
d="M19 -93q145 -13 191 65l-146 363q-50 121 -76 150v2h245v-2q-15 -19 -16.5 -61.5t17.5 -94.5l60 -156l66 158q14 34 14.5 66.5t-6.5 53.5t-18 34v2h128v-2q-29 -32 -49 -63t-44 -88l-135 -323q-29 -69 -55.5 -112.5t-57 -67.5t-53.5 -34t-65 -22v132zM331 749l89 -96
l-223 -119l-9 9z" />
    <glyph glyph-name="thorn" unicode="&#xfe;" horiz-adv-x="605" 
d="M310 3q48 0 74 58t26 161q0 104 -28 152t-87 48q-42 0 -71 -21v-242q0 -80 24.5 -118t61.5 -38zM248 -225h-209v2q24 72 24 174v609q0 97 -50 159v2l211 58v-355h2q59 79 158 79q87 0 140.5 -69t53.5 -181q0 -119 -67 -193.5t-195 -74.5q-46 0 -92 12v-46q0 -100 24 -174
v-2z" />
    <glyph glyph-name="ydieresis" unicode="&#xff;" horiz-adv-x="480" 
d="M19 -93q145 -13 191 65l-146 363q-50 121 -76 150v2h245v-2q-15 -19 -16.5 -61.5t17.5 -94.5l60 -156l66 158q14 34 14.5 66.5t-6.5 53.5t-18 34v2h128v-2q-29 -32 -49 -63t-44 -88l-135 -323q-29 -69 -55.5 -112.5t-57 -67.5t-53.5 -34t-65 -22v132zM445 655
q0 -35 -24.5 -59t-59.5 -24t-58 24t-23 59q0 34 23 58t58 24t59.5 -24t24.5 -58zM225 655q0 -35 -24.5 -59t-59.5 -24q-34 0 -57.5 24t-23.5 59q0 34 23.5 58t57.5 24q35 0 59.5 -24t24.5 -58z" />
    <glyph glyph-name="Amacron" unicode="&#x100;" horiz-adv-x="704" 
d="M283 596l-108 -297h212zM187 0h-184v2q58 55 107 187l197 546h101l200 -551q43 -120 93 -182v-2h-298v2q61 80 18 200l-26 74h-228l-18 -49q-55 -155 38 -225v-2zM184 895h348v-67h-348v67z" />
    <glyph glyph-name="amacron" unicode="&#x101;" horiz-adv-x="525" 
d="M231 72q25 0 42 10v161q-52 -14 -80.5 -42t-28.5 -64q0 -30 17.5 -47.5t49.5 -17.5zM383 -14q-44 0 -72 21t-35 56q-53 -78 -140 -78q-49 0 -81 25.5t-32 74.5q0 126 250 179v62q0 45 -21.5 65.5t-74.5 20.5q-66 0 -130 -27l-4 7q90 111 235 111q79 0 117.5 -35t38.5 -96
v-257q0 -45 43 -45q21 0 38 12l2 -4q-39 -92 -134 -92zM100 648h298v-67h-298v67z" />
    <glyph glyph-name="Abreve" unicode="&#x102;" horiz-adv-x="704" 
d="M283 596l-108 -297h212zM187 0h-184v2q58 55 107 187l197 546h101l200 -551q43 -120 93 -182v-2h-298v2q61 80 18 200l-26 74h-228l-18 -49q-55 -155 38 -225v-2zM357 883q103 0 135 68h13q-2 -24 -10 -47.5t-23.5 -48.5t-45 -40.5t-69.5 -15.5q-39 0 -69 15.5
t-45.5 40.5t-23.5 49t-9 47h12q28 -68 135 -68z" />
    <glyph glyph-name="abreve" unicode="&#x103;" horiz-adv-x="525" 
d="M231 72q25 0 42 10v161q-52 -14 -80.5 -42t-28.5 -64q0 -30 17.5 -47.5t49.5 -17.5zM383 -14q-44 0 -72 21t-35 56q-53 -78 -140 -78q-49 0 -81 25.5t-32 74.5q0 126 250 179v62q0 45 -21.5 65.5t-74.5 20.5q-66 0 -130 -27l-4 7q90 111 235 111q79 0 117.5 -35t38.5 -96
v-257q0 -45 43 -45q21 0 38 12l2 -4q-39 -92 -134 -92zM248 646q91 0 119 65h13q-2 -23 -9 -45t-21.5 -46t-41 -39t-61.5 -15t-61.5 15t-40 38.5t-20.5 46.5t-8 45h13q26 -65 118 -65z" />
    <glyph glyph-name="Aogonek" unicode="&#x104;" horiz-adv-x="704" 
d="M363 -248q-46 0 -72.5 23t-26.5 64q0 43 29 75.5t91 75.5q54 39 54 118q0 44 -17 94l-26 74h-229l-18 -49q-21 -54 -20.5 -99.5t16 -75t43.5 -50.5v-2h-184v2q58 55 107 187l197 546h101l200 -551q43 -120 93 -182v-2h-261q-70 -60 -70 -115q0 -26 14 -40.5t39 -14.5
q32 0 64 33l9 -7q-49 -104 -133 -104zM283 594l-108 -295h212z" />
    <glyph glyph-name="aogonek" unicode="&#x105;" horiz-adv-x="525" 
d="M353 -248q-44 0 -70.5 24t-26.5 63q0 43 31.5 77.5t92.5 69.5q-44 2 -70.5 23t-33.5 54q-53 -78 -140 -78q-49 0 -81 25.5t-32 74.5q0 126 250 179v62q0 45 -21.5 65.5t-74.5 20.5q-66 0 -130 -27l-4 7q90 111 235 111q79 0 117.5 -35t38.5 -96v-257q0 -45 43 -45
q21 0 38 12l2 -4q-17 -38 -43 -60q-10 -9 -30.5 -21.5t-29.5 -18.5q-52 -38 -52 -91q0 -57 53 -57q34 0 63 33l9 -7q-49 -104 -134 -104zM231 72q25 0 42 10v161q-52 -14 -80.5 -42t-28.5 -64q0 -30 17.5 -47.5t49.5 -17.5z" />
    <glyph glyph-name="Cacute" unicode="&#x106;" horiz-adv-x="768" 
d="M705 60q-20 -14 -49 -28.5t-90.5 -30.5t-126.5 -16q-175 0 -292.5 105t-117.5 267q0 164 119 277t299 113q117 0 254 -37l20 -184l-10 -3q-85 114 -141 157.5t-128 43.5q-220 0 -220 -367q0 -165 56.5 -257t161.5 -92q44 0 80.5 16.5t70.5 54.5t59.5 76t64.5 105l10 -3z
M557 959l53 -123l-279 -54l-6 13z" />
    <glyph glyph-name="cacute" unicode="&#x107;" horiz-adv-x="497" 
d="M471 136q-21 -71 -74.5 -111t-134.5 -40q-106 0 -171.5 67.5t-65.5 180.5q0 118 78 194t201 76q77 0 136 -24l15 -144l-10 -2q-96 150 -155 150q-44 0 -73.5 -50.5t-29.5 -134.5q0 -102 45.5 -151t117.5 -49q75 0 116 41zM317 749l89 -96l-223 -119l-9 9z" />
    <glyph glyph-name="Ccircumflex" unicode="&#x108;" horiz-adv-x="768" 
d="M705 60q-20 -14 -49 -28.5t-90.5 -30.5t-126.5 -16q-175 0 -292.5 105t-117.5 267q0 164 119 277t299 113q117 0 254 -37l20 -184l-10 -3q-85 114 -141 157.5t-128 43.5q-220 0 -220 -367q0 -165 56.5 -257t161.5 -92q44 0 80.5 16.5t70.5 54.5t59.5 76t64.5 105l10 -3z
M440 842l-155 -60l-8 11l159 163h9l159 -163l-9 -11z" />
    <glyph glyph-name="ccircumflex" unicode="&#x109;" horiz-adv-x="497" 
d="M471 136q-21 -71 -74.5 -111t-134.5 -40q-106 0 -171.5 67.5t-65.5 180.5q0 118 78 194t201 76q77 0 136 -24l15 -144l-10 -2q-96 150 -155 150q-44 0 -73.5 -50.5t-29.5 -134.5q0 -102 45.5 -151t117.5 -49q75 0 116 41zM265 608l-141 -68l-9 11l145 181h9l144 -181
l-8 -11z" />
    <glyph glyph-name="Cdotaccent" unicode="&#x10a;" horiz-adv-x="768" 
d="M705 60q-20 -14 -49 -28.5t-90.5 -30.5t-126.5 -16q-175 0 -292.5 105t-117.5 267q0 164 119 277t299 113q117 0 254 -37l20 -184l-10 -3q-85 114 -141 157.5t-128 43.5q-220 0 -220 -367q0 -165 56.5 -257t161.5 -92q44 0 80.5 16.5t70.5 54.5t59.5 76t64.5 105l10 -3z
M521 868q0 -34 -24 -58t-57 -24q-35 0 -58.5 24t-23.5 58t23.5 59t58.5 25q33 0 57 -25.5t24 -58.5z" />
    <glyph glyph-name="cdotaccent" unicode="&#x10b;" horiz-adv-x="497" 
d="M471 136q-21 -71 -74.5 -111t-134.5 -40q-106 0 -171.5 67.5t-65.5 180.5q0 118 78 194t201 76q77 0 136 -24l15 -144l-10 -2q-96 150 -155 150q-44 0 -73.5 -50.5t-29.5 -134.5q0 -102 45.5 -151t117.5 -49q75 0 116 41zM353 655q0 -35 -24.5 -59t-59.5 -24
q-34 0 -57.5 24t-23.5 59q0 34 23.5 58t57.5 24q35 0 59.5 -24t24.5 -58z" />
    <glyph glyph-name="Ccaron" unicode="&#x10c;" horiz-adv-x="768" 
d="M705 60q-20 -14 -49 -28.5t-90.5 -30.5t-126.5 -16q-175 0 -292.5 105t-117.5 267q0 164 119 277t299 113q117 0 254 -37l20 -184l-10 -3q-85 114 -141 157.5t-128 43.5q-220 0 -220 -367q0 -165 56.5 -257t161.5 -92q44 0 80.5 16.5t70.5 54.5t59.5 76t64.5 105l10 -3z
M435 782l-159 163l8 11l156 -60l155 60l8 -11l-159 -163h-9z" />
    <glyph glyph-name="ccaron" unicode="&#x10d;" horiz-adv-x="497" 
d="M471 136q-21 -71 -74.5 -111t-134.5 -40q-106 0 -171.5 67.5t-65.5 180.5q0 118 78 194t201 76q77 0 136 -24l15 -144l-10 -2q-96 150 -155 150q-44 0 -73.5 -50.5t-29.5 -134.5q0 -102 45.5 -151t117.5 -49q75 0 116 41zM122 722l8 10l141 -68l140 68l9 -10l-145 -182
h-9z" />
    <glyph glyph-name="Dcaron" unicode="&#x10e;" horiz-adv-x="803" 
d="M42 2q23 53 31.5 93t8.5 107v328q0 67 -8.5 106t-31.5 94v2q49 0 137 2t158 2q204 0 320.5 -95.5t116.5 -271.5q0 -177 -114 -273t-323 -96h-295v2zM340 25q135 0 187.5 81t52.5 249q0 184 -57 271t-189 85q-25 0 -73 -5v-677q44 -4 79 -4zM375 782l-159 163l8 11
l156 -60l155 60l8 -11l-159 -163h-9z" />
    <glyph glyph-name="dcaron" unicode="&#x10f;" horiz-adv-x="612" 
d="M294 67q54 0 85 37v275q-13 106 -80 106q-50 0 -78 -56t-28 -168q0 -194 101 -194zM380 84q-24 -43 -66.5 -71t-98.5 -28q-85 0 -136.5 65.5t-51.5 170.5q0 119 69.5 200.5t193.5 81.5q50 0 89 -13v69q0 98 -50 160v2l211 58v-569q0 -77 11.5 -112t39.5 -65v-2l-209 -45
v98h-2zM596 775h111l-109 -203l-14 2z" />
    <glyph glyph-name="Dcroat" unicode="&#x110;" horiz-adv-x="811" 
d="M1 365h90v165q0 67 -8.5 106t-31.5 94v2q49 0 137 2t158 2q204 0 320.5 -95.5t116.5 -271.5q0 -177 -114 -273t-323 -96h-295v2q23 53 31.5 93t8.5 107v140h-90v23zM349 25q135 0 187.5 81t52.5 249q0 184 -57 271t-189 85q-25 0 -73 -5v-341h129v-23h-129v-313
q44 -4 79 -4z" />
    <glyph glyph-name="dcroat" unicode="&#x111;" horiz-adv-x="612" 
d="M380 84q-24 -43 -66.5 -71t-98.5 -28q-85 0 -136.5 65.5t-51.5 170.5q0 119 69.5 200.5t193.5 81.5q50 0 89 -13v69v20h-159v22h157l-1 9q-8 61 -47 109v2l211 58v-178h63v-22h-63v-369q0 -77 11.5 -112t39.5 -65v-2l-209 -45v98h-2zM294 67q54 0 85 37v275
q-13 106 -80 106q-50 0 -78 -56t-28 -168q0 -194 101 -194z" />
    <glyph glyph-name="Emacron" unicode="&#x112;" horiz-adv-x="664" 
d="M598 0h-556v2q23 62 31.5 101.5t8.5 103.5v318q0 45 -5.5 81t-12 58t-22.5 66v2h519l37 -193l-10 -3q-11 10 -58.5 61t-81 78t-58.5 29l-129 9v-326h59q15 0 31 6t32.5 19t27.5 23t28.5 28t24.5 24h10v-227h-10q-9 7 -39.5 39.5t-55 48.5t-49.5 16h-59v-345l145 8
q47 2 113.5 67t119.5 139l10 -3zM155 895h348v-67h-348v67z" />
    <glyph glyph-name="emacron" unicode="&#x113;" horiz-adv-x="511" 
d="M266 485q-37 0 -57.5 -50.5t-20.5 -123.5l142 2v38q0 134 -64 134zM485 143q-21 -73 -77 -115.5t-140 -42.5q-111 0 -177 71t-66 179q0 116 71 192t176 76q99 0 157.5 -65.5t56.5 -147.5l-298 1q7 -193 163 -193q83 0 129 48zM111 648h298v-67h-298v67z" />
    <glyph glyph-name="Ebreve" unicode="&#x114;" horiz-adv-x="664" 
d="M598 0h-556v2q23 62 31.5 101.5t8.5 103.5v318q0 45 -5.5 81t-12 58t-22.5 66v2h519l37 -193l-10 -3q-11 10 -58.5 61t-81 78t-58.5 29l-129 9v-326h59q15 0 31 6t32.5 19t27.5 23t28.5 28t24.5 24h10v-227h-10q-9 7 -39.5 39.5t-55 48.5t-49.5 16h-59v-345l145 8
q47 2 113.5 67t119.5 139l10 -3zM329 883q103 0 135 68h13q-2 -24 -10 -47.5t-23.5 -48.5t-45 -40.5t-69.5 -15.5q-39 0 -69 15.5t-45.5 40.5t-23.5 49t-9 47h12q28 -68 135 -68z" />
    <glyph glyph-name="ebreve" unicode="&#x115;" horiz-adv-x="511" 
d="M266 485q-37 0 -57.5 -50.5t-20.5 -123.5l142 2v38q0 134 -64 134zM485 143q-21 -73 -77 -115.5t-140 -42.5q-111 0 -177 71t-66 179q0 116 71 192t176 76q99 0 157.5 -65.5t56.5 -147.5l-298 1q7 -193 163 -193q83 0 129 48zM259 646q91 0 119 65h13q-2 -23 -9 -45
t-21.5 -46t-41 -39t-61.5 -15t-61.5 15t-40 38.5t-20.5 46.5t-8 45h13q26 -65 118 -65z" />
    <glyph glyph-name="Edotaccent" unicode="&#x116;" horiz-adv-x="664" 
d="M598 0h-556v2q23 62 31.5 101.5t8.5 103.5v318q0 45 -5.5 81t-12 58t-22.5 66v2h519l37 -193l-10 -3q-11 10 -58.5 61t-81 78t-58.5 29l-129 9v-326h59q15 0 31 6t32.5 19t27.5 23t28.5 28t24.5 24h10v-227h-10q-9 7 -39.5 39.5t-55 48.5t-49.5 16h-59v-345l145 8
q47 2 113.5 67t119.5 139l10 -3zM411 868q0 -34 -24 -58t-57 -24q-35 0 -58.5 24t-23.5 58t23.5 59t58.5 25q33 0 57 -25.5t24 -58.5z" />
    <glyph glyph-name="edotaccent" unicode="&#x117;" horiz-adv-x="511" 
d="M266 485q-37 0 -57.5 -50.5t-20.5 -123.5l142 2v38q0 134 -64 134zM485 143q-21 -73 -77 -115.5t-140 -42.5q-111 0 -177 71t-66 179q0 116 71 192t176 76q99 0 157.5 -65.5t56.5 -147.5l-298 1q7 -193 163 -193q83 0 129 48zM345 655q0 -35 -24.5 -59t-59.5 -24
q-34 0 -57.5 24t-23.5 59q0 34 23.5 58t57.5 24q35 0 59.5 -24t24.5 -58z" />
    <glyph glyph-name="Eogonek" unicode="&#x118;" horiz-adv-x="664" 
d="M598 0h-133q-70 -61 -70 -115q0 -26 14 -40.5t39 -14.5q35 0 64 33l9 -7q-49 -104 -136 -104q-43 0 -69.5 24t-26.5 64q0 47 38 85q37 37 99 75h-384v2q23 62 31.5 101.5t8.5 103.5v318q0 45 -5.5 81t-12 58t-22.5 66v2h519l37 -193l-10 -3q-11 10 -58.5 61t-81 78
t-58.5 29l-129 9v-326h59q15 0 31 6t32.5 19t27.5 23t28.5 28t24.5 24h10v-227h-10q-9 7 -39.5 39.5t-55 48.5t-49.5 16h-59v-345l145 8q47 2 113.5 67t119.5 139l10 -3z" />
    <glyph glyph-name="eogonek" unicode="&#x119;" horiz-adv-x="511" 
d="M397 -144q-49 -104 -135 -104q-43 0 -70 23.5t-27 62.5q0 62 79 119q21 16 50 30q-8 -2 -15 -2h-17q-111 0 -174 68.5t-63 179.5q0 117 70.5 193.5t173.5 76.5q99 0 154 -65t53 -148l-289 2q2 -104 46.5 -149t115.5 -45q41 0 74 13t48 28l6 -3q-21 -68 -77 -111
q-13 -11 -37.5 -23.5t-33.5 -18.5q-58 -37 -58 -96q0 -57 54 -57q31 0 63 33zM263 485q-33 0 -54.5 -52t-21.5 -122l133 2v38q0 134 -57 134z" />
    <glyph glyph-name="Ecaron" unicode="&#x11a;" horiz-adv-x="664" 
d="M598 0h-556v2q23 62 31.5 101.5t8.5 103.5v318q0 45 -5.5 81t-12 58t-22.5 66v2h519l37 -193l-10 -3q-11 10 -58.5 61t-81 78t-58.5 29l-129 9v-326h59q15 0 31 6t32.5 19t27.5 23t28.5 28t24.5 24h10v-227h-10q-9 7 -39.5 39.5t-55 48.5t-49.5 16h-59v-345l145 8
q47 2 113.5 67t119.5 139l10 -3zM325 782l-159 163l8 11l156 -60l155 60l8 -11l-159 -163h-9z" />
    <glyph glyph-name="ecaron" unicode="&#x11b;" horiz-adv-x="511" 
d="M266 485q-37 0 -57.5 -50.5t-20.5 -123.5l142 2v38q0 134 -64 134zM485 143q-21 -73 -77 -115.5t-140 -42.5q-111 0 -177 71t-66 179q0 116 71 192t176 76q99 0 157.5 -65.5t56.5 -147.5l-298 1q7 -193 163 -193q83 0 129 48zM114 722l8 10l141 -68l140 68l9 -10
l-145 -182h-9z" />
    <glyph glyph-name="Gcircumflex" unicode="&#x11c;" horiz-adv-x="806" 
d="M743 97q-143 -112 -317 -112q-180 0 -288.5 103.5t-108.5 268.5q0 169 115 279.5t315 110.5q100 0 246 -37l20 -186l-11 -3q-83 114 -140.5 158.5t-128.5 44.5q-223 0 -223 -366q0 -350 206 -350q69 0 113.5 38.5t46.5 112.5q2 57 -11.5 94t-45.5 83v2h252v-2
q-23 -57 -31.5 -98.5t-8.5 -110.5v-30zM440 842l-155 -60l-8 11l159 163h9l159 -163l-9 -11z" />
    <glyph glyph-name="gcircumflex" unicode="&#x11d;" horiz-adv-x="563" 
d="M254 173q62 0 62 155q0 157 -63 157q-34 0 -47.5 -39t-13.5 -118q0 -155 62 -155zM536 -61q-1 -79 -78.5 -124t-217.5 -45q-109 0 -171 26.5t-62 73.5q0 31 27 53t68 31q-75 27 -75 99q0 51 32 82.5t76 46.5q-98 51 -98 146q0 75 61 125t155 50q83 0 145 -43l138 86l2 -2
v-113h-4l-117 14q53 -50 53 -117q0 -73 -61 -123t-155 -50q-56 0 -106 21q-19 -15 -19 -39q0 -25 20.5 -36.5t70.5 -13.5l89 -4q110 -6 169 -42t58 -102zM275 -204q78 0 119.5 20t41.5 56q0 29 -33.5 42.5t-113.5 18.5l-99 5q-59 6 -73 11q-16 -24 -16 -53q0 -51 47.5 -75.5
t126.5 -24.5zM270 608l-141 -68l-9 11l145 181h9l144 -181l-8 -11z" />
    <glyph glyph-name="Gbreve" unicode="&#x11e;" horiz-adv-x="806" 
d="M743 97q-143 -112 -317 -112q-180 0 -288.5 103.5t-108.5 268.5q0 169 115 279.5t315 110.5q100 0 246 -37l20 -186l-11 -3q-83 114 -140.5 158.5t-128.5 44.5q-223 0 -223 -366q0 -350 206 -350q69 0 113.5 38.5t46.5 112.5q2 57 -11.5 94t-45.5 83v2h252v-2
q-23 -57 -31.5 -98.5t-8.5 -110.5v-30zM440 883q103 0 135 68h13q-2 -24 -10 -47.5t-23.5 -48.5t-45 -40.5t-69.5 -15.5q-39 0 -69 15.5t-45.5 40.5t-23.5 49t-9 47h12q28 -68 135 -68z" />
    <glyph glyph-name="gbreve" unicode="&#x11f;" horiz-adv-x="563" 
d="M254 173q62 0 62 155q0 157 -63 157q-34 0 -47.5 -39t-13.5 -118q0 -155 62 -155zM536 -61q-1 -79 -78.5 -124t-217.5 -45q-109 0 -171 26.5t-62 73.5q0 31 27 53t68 31q-75 27 -75 99q0 51 32 82.5t76 46.5q-98 51 -98 146q0 75 61 125t155 50q83 0 145 -43l138 86l2 -2
v-113h-4l-117 14q53 -50 53 -117q0 -73 -61 -123t-155 -50q-56 0 -106 21q-19 -15 -19 -39q0 -25 20.5 -36.5t70.5 -13.5l89 -4q110 -6 169 -42t58 -102zM275 -204q78 0 119.5 20t41.5 56q0 29 -33.5 42.5t-113.5 18.5l-99 5q-59 6 -73 11q-16 -24 -16 -53q0 -51 47.5 -75.5
t126.5 -24.5zM269 646q91 0 119 65h13q-2 -23 -9 -45t-21.5 -46t-41 -39t-61.5 -15t-61.5 15t-40 38.5t-20.5 46.5t-8 45h13q26 -65 118 -65z" />
    <glyph glyph-name="Gdotaccent" unicode="&#x120;" horiz-adv-x="806" 
d="M743 97q-143 -112 -317 -112q-180 0 -288.5 103.5t-108.5 268.5q0 169 115 279.5t315 110.5q100 0 246 -37l20 -186l-11 -3q-83 114 -140.5 158.5t-128.5 44.5q-223 0 -223 -366q0 -350 206 -350q69 0 113.5 38.5t46.5 112.5q2 57 -11.5 94t-45.5 83v2h252v-2
q-23 -57 -31.5 -98.5t-8.5 -110.5v-30zM521 868q0 -34 -24 -58t-57 -24q-35 0 -58.5 24t-23.5 58t23.5 59t58.5 25q33 0 57 -25.5t24 -58.5z" />
    <glyph glyph-name="gdotaccent" unicode="&#x121;" horiz-adv-x="563" 
d="M254 173q62 0 62 155q0 157 -63 157q-34 0 -47.5 -39t-13.5 -118q0 -155 62 -155zM536 -61q-1 -79 -78.5 -124t-217.5 -45q-109 0 -171 26.5t-62 73.5q0 31 27 53t68 31q-75 27 -75 99q0 51 32 82.5t76 46.5q-98 51 -98 146q0 75 61 125t155 50q83 0 145 -43l138 86l2 -2
v-113h-4l-117 14q53 -50 53 -117q0 -73 -61 -123t-155 -50q-56 0 -106 21q-19 -15 -19 -39q0 -25 20.5 -36.5t70.5 -13.5l89 -4q110 -6 169 -42t58 -102zM275 -204q78 0 119.5 20t41.5 56q0 29 -33.5 42.5t-113.5 18.5l-99 5q-59 6 -73 11q-16 -24 -16 -53q0 -51 47.5 -75.5
t126.5 -24.5zM352 655q0 -35 -24.5 -59t-59.5 -24q-34 0 -57.5 24t-23.5 59q0 34 23.5 58t57.5 24q35 0 59.5 -24t24.5 -58z" />
    <glyph glyph-name="uni0122" unicode="&#x122;" horiz-adv-x="806" 
d="M743 97q-143 -112 -317 -112q-180 0 -288.5 103.5t-108.5 268.5q0 169 115 279.5t315 110.5q100 0 246 -37l20 -186l-11 -3q-83 114 -140.5 158.5t-128.5 44.5q-223 0 -223 -366q0 -350 206 -350q69 0 113.5 38.5t46.5 112.5q2 57 -11.5 94t-45.5 83v2h252v-2
q-23 -57 -31.5 -98.5t-8.5 -110.5v-30zM368 -239q23 17 36 38.5t13 39.5q0 22 -43 65v1l90 57q21 -12 34.5 -31.5t13.5 -39.5q0 -38 -44 -76t-97 -59z" />
    <glyph glyph-name="uni0123" unicode="&#x123;" horiz-adv-x="563" 
d="M254 173q62 0 62 155q0 157 -63 157q-34 0 -47.5 -39t-13.5 -118q0 -155 62 -155zM536 -61q-1 -79 -78.5 -124t-217.5 -45q-109 0 -171 26.5t-62 73.5q0 31 27 53t68 31q-75 27 -75 99q0 51 32 82.5t76 46.5q-98 51 -98 146q0 75 61 125t155 50q83 0 145 -43l138 86l2 -2
v-113h-4l-117 14q53 -50 53 -117q0 -73 -61 -123t-155 -50q-56 0 -106 21q-19 -15 -19 -39q0 -25 20.5 -36.5t70.5 -13.5l89 -4q110 -6 169 -42t58 -102zM275 -204q78 0 119.5 20t41.5 56q0 29 -33.5 42.5t-113.5 18.5l-99 5q-59 6 -73 11q-16 -24 -16 -53q0 -51 47.5 -75.5
t126.5 -24.5zM348 764q-23 -17 -36 -38.5t-13 -39.5q0 -22 43 -65v-1l-90 -57q-21 12 -34.5 31.5t-13.5 39.5q0 38 44 76t97 59z" />
    <glyph glyph-name="Hcircumflex" unicode="&#x124;" horiz-adv-x="809" 
d="M42 2q23 56 31.5 97.5t8.5 111.5v310q0 70 -8.5 110.5t-31.5 98.5v2h260v-2q-23 -57 -32 -99t-9 -110v-136h287v136q0 69 -8.5 109.5t-32.5 99.5v2h260v-2q-23 -56 -31.5 -98.5t-8.5 -110.5v-310q0 -68 8.5 -110.5t31.5 -98.5v-2h-260v2q24 59 32.5 99.5t8.5 109.5v151
h-287v-151q0 -68 9 -110t32 -99v-2h-260v2zM405 842l-155 -60l-8 11l159 163h9l159 -163l-9 -11z" />
    <glyph glyph-name="hcircumflex" unicode="&#x125;" horiz-adv-x="603" 
d="M38 0v2q24 72 24 174v384q0 97 -50 159v2l211 58v-372q60 96 168 96q67 0 108.5 -38t41.5 -101v-188q0 -100 24 -174v-2h-209v2q24 72 24 173v179q0 34 -17 54t-51 20q-53 0 -89 -49v-203q0 -100 24 -174v-2h-209zM302 849l-155 -60l-8 11l159 163h9l159 -163l-9 -11z
" />
    <glyph glyph-name="Hbar" unicode="&#x126;" horiz-adv-x="826" 
d="M51 2q23 56 31.5 97.5t8.5 111.5v310h-90v23h90l-2 41q-5 65 -38 145v2h260v-2q-32 -77 -39 -146l-2 -40h287l-2 40q-4 61 -39 146v2h260v-2q-30 -74 -38 -146l-2 -40h89v-23h-89v-310q0 -68 8.5 -110.5t31.5 -98.5v-2h-260v2q24 59 32.5 99.5t8.5 109.5v151h-287v-151
q0 -68 9 -110t32 -99v-2h-260v2zM270 385h287v136h-287v-136z" />
    <glyph glyph-name="hbar" unicode="&#x127;" horiz-adv-x="603" 
d="M38 0v2q24 72 24 174v384v19h-69v22h67q-1 3 -1 9q-8 61 -47 109v2l211 58v-178h154v-22h-154v-172q60 96 168 96q67 0 108.5 -38t41.5 -101v-188q0 -100 24 -174v-2h-209v2q24 72 24 173v179q0 34 -17 54t-51 20q-53 0 -89 -49v-203q0 -100 24 -174v-2h-209z" />
    <glyph glyph-name="Itilde" unicode="&#x128;" horiz-adv-x="344" 
d="M42 2q23 58 31.5 98.5t8.5 110.5v310q0 70 -8.5 110.5t-31.5 98.5v2h260v-2q-23 -57 -32 -99t-9 -110v-310q0 -68 9 -110t32 -99v-2h-260v2zM94 916q31 0 83.5 -19t84.5 -19q60 0 71 50l14 -2q6 -140 -99 -140q-30 0 -82.5 19t-85.5 19q-59 0 -70 -51l-14 2
q-6 141 98 141z" />
    <glyph glyph-name="itilde" unicode="&#x129;" horiz-adv-x="285" 
d="M41 2q24 89 24 174v112q0 54 -11.5 89.5t-38.5 68.5v4l211 58v-332q0 -102 24 -174v-2h-209v2zM82 694q23 0 70 -17.5t71 -17.5q50 0 63 47l14 -2q0 -55 -21.5 -96t-71.5 -41q-21 0 -69 17.5t-72 17.5q-50 0 -63 -47l-14 2q0 54 22 95.5t71 41.5z" />
    <glyph glyph-name="Imacron" unicode="&#x12a;" horiz-adv-x="344" 
d="M42 2q23 58 31.5 98.5t8.5 110.5v310q0 70 -8.5 110.5t-31.5 98.5v2h260v-2q-23 -57 -32 -99t-9 -110v-310q0 -68 9 -110t32 -99v-2h-260v2zM-2 895h348v-67h-348v67z" />
    <glyph glyph-name="imacron" unicode="&#x12b;" horiz-adv-x="285" 
d="M7 648h242v-67h-242v67zM41 2q24 89 24 174v112q0 54 -11.5 89.5t-38.5 68.5v4l211 58v-332q0 -102 24 -174v-2h-209v2z" />
    <glyph glyph-name="Ibreve" unicode="&#x12c;" horiz-adv-x="344" 
d="M42 2q23 58 31.5 98.5t8.5 110.5v310q0 70 -8.5 110.5t-31.5 98.5v2h260v-2q-23 -57 -32 -99t-9 -110v-310q0 -68 9 -110t32 -99v-2h-260v2zM172 883q103 0 135 68h13q-2 -24 -10 -47.5t-23.5 -48.5t-45 -40.5t-69.5 -15.5q-39 0 -69 15.5t-45.5 40.5t-23.5 49t-9 47h12
q28 -68 135 -68z" />
    <glyph glyph-name="ibreve" unicode="&#x12d;" horiz-adv-x="285" 
d="M41 2q24 89 24 174v112q0 54 -11.5 89.5t-38.5 68.5v4l211 58v-332q0 -102 24 -174v-2h-209v2zM147 646q91 0 119 65h13q-2 -23 -9 -45t-21.5 -46t-41 -39t-61.5 -15t-61.5 15t-40 38.5t-20.5 46.5t-8 45h13q26 -65 118 -65z" />
    <glyph glyph-name="Iogonek" unicode="&#x12e;" horiz-adv-x="344" 
d="M42 2q23 58 31.5 98.5t8.5 110.5v310q0 70 -8.5 110.5t-31.5 98.5v2h260v-2q-23 -57 -32 -99t-9 -110v-310q0 -68 9 -110t32 -99v-2h-67q-70 -61 -70 -115q0 -26 14 -40.5t39 -14.5q35 0 64 33l9 -7q-49 -104 -136 -104q-43 0 -69.5 24t-26.5 64q0 47 38 85q37 37 99 75
h-154v2z" />
    <glyph glyph-name="iogonek" unicode="&#x12f;" horiz-adv-x="285" 
d="M40 2q25 94 25 174v112q0 97 -51 158v4l211 58v-332q0 -102 24 -174v-2h-50q-70 -61 -70 -115q0 -26 14 -40.5t39 -14.5q35 0 64 33l9 -7q-49 -104 -136 -104q-43 0 -69.5 24t-26.5 64q0 47 38 85q37 37 99 75h-120v2zM218 655q0 -36 -26 -61.5t-62 -25.5t-61 25.5
t-25 61.5q0 35 25 60.5t61 25.5t62 -25.5t26 -60.5z" />
    <glyph glyph-name="Idotaccent" unicode="&#x130;" horiz-adv-x="344" 
d="M42 2q23 58 31.5 98.5t8.5 110.5v310q0 70 -8.5 110.5t-31.5 98.5v2h260v-2q-23 -57 -32 -99t-9 -110v-310q0 -68 9 -110t32 -99v-2h-260v2zM253 868q0 -34 -24 -58t-57 -24q-35 0 -58.5 24t-23.5 58t23.5 59t58.5 25q33 0 57 -25.5t24 -58.5z" />
    <glyph glyph-name="dotlessi" unicode="&#x131;" horiz-adv-x="286" 
d="M41 2q24 89 24 174v112q0 54 -11.5 89.5t-38.5 68.5v4l211 58v-332q0 -102 24 -174v-2h-209v2z" />
    <glyph glyph-name="IJ" unicode="&#x132;" horiz-adv-x="823" 
d="M42 2q23 58 31.5 98.5t8.5 110.5v310q0 70 -8.5 110.5t-31.5 98.5v2h260v-2q-23 -57 -32 -99t-9 -110v-310q0 -68 9 -110t32 -99v-2h-260v2zM750 208q0 -104 -66 -163.5t-174 -59.5q-72 0 -129 25l-23 198l11 3q6 -11 18 -32q30 -53 43.5 -76t31.5 -50t30 -36t24 -9
q25 0 40.5 36t15.5 98v379q0 69 -8.5 110t-32.5 99v2h259v-2q-23 -56 -31.5 -98.5t-8.5 -110.5v-313z" />
    <glyph glyph-name="ij" unicode="&#x133;" horiz-adv-x="559" 
d="M218 655q0 -36 -26 -61.5t-62 -25.5t-61 25.5t-25 61.5q0 35 25 60.5t61 25.5t62 -25.5t26 -60.5zM40 2q25 94 25 174v112q0 97 -51 158v4l211 58v-332q0 -102 24 -174v-2h-209v2zM494 655q0 -36 -26 -61.5t-63 -25.5q-36 0 -60.5 25.5t-24.5 61.5t24.5 61t60.5 25
q37 0 63 -25.5t26 -60.5zM256 -208q84 41 84 173v336q0 86 -50 145v4l211 58l-5 -461q-2 -125 -65.5 -188.5t-172.5 -73.5z" />
    <glyph glyph-name="Jcircumflex" unicode="&#x134;" horiz-adv-x="485" 
d="M412 208q0 -104 -66 -163.5t-174 -59.5q-72 0 -129 25l-23 198l11 3q6 -11 18 -32q30 -53 43.5 -76t31.5 -50t30 -36t24 -9q25 0 40.5 36t15.5 98v379q0 69 -8.5 110t-32.5 99v2h259v-2q-23 -56 -31.5 -98.5t-8.5 -110.5v-313zM326 842l-155 -60l-8 11l159 163h9
l159 -163l-9 -11z" />
    <glyph glyph-name="jcircumflex" unicode="&#x135;" horiz-adv-x="280" 
d="M-23 -238q84 44 84 174v365q0 86 -50 145v4l211 58l-5 -473q-2 -125 -68 -195.5t-170 -83.5zM143 608l-141 -68l-9 11l145 181h9l144 -181l-8 -11z" />
    <glyph glyph-name="uni0136" unicode="&#x136;" horiz-adv-x="732" 
d="M42 2q23 56 31.5 97.5t8.5 111.5v310q0 70 -8.5 110.5t-31.5 98.5v2h259v-2q-23 -57 -31.5 -98.5t-8.5 -110.5v-310q0 -69 8.5 -110.5t31.5 -98.5v-2h-259v2zM498 0l-234 361l177 190q98 102 39 179v2h239v-2q-130 -57 -234 -167l-81 -87l209 -319q40 -62 68.5 -97
t61.5 -58v-2h-245zM304 -239q23 17 36 38.5t13 39.5q0 22 -43 65v1l90 57q21 -12 34.5 -31.5t13.5 -39.5q0 -38 -44 -76t-97 -59z" />
    <glyph glyph-name="uni0137" unicode="&#x137;" horiz-adv-x="569" 
d="M370 0l-146 255v-98q0 -88 31 -155v-2h-216v2q24 70 24 155v403q0 97 -50 159v2l211 58v-524l120 109q22 20 29.5 44t3.5 43t-14 34v2h176v-2q-24 -10 -49.5 -26t-35 -23.5t-40.5 -35t-32 -28.5l-32 -31l138 -234q4 -6 11 -18t10.5 -17.5t9.5 -15.5t10.5 -15.5t10.5 -13
t12.5 -13.5t13.5 -12v-2h-196zM215 -239q23 17 36 38.5t13 39.5q0 22 -43 65v1l90 57q21 -12 34.5 -31.5t13.5 -39.5q0 -38 -44 -76t-97 -59z" />
    <glyph glyph-name="Lacute" unicode="&#x139;" horiz-adv-x="621" 
d="M42 0v2q23 56 31.5 97.5t8.5 111.5v310q0 70 -8.5 110.5t-31.5 98.5v2h259v-2q-23 -57 -31.5 -98.5t-8.5 -110.5v-499l114 7q47 2 112.5 67t112.5 137l11 -3l-52 -230h-517zM298 959l53 -123l-279 -54l-6 13z" />
    <glyph glyph-name="lacute" unicode="&#x13a;" horiz-adv-x="284" 
d="M39 2q24 70 24 155v403q0 97 -50 159v2l211 58v-622q0 -81 24 -155v-2h-209v2zM248 959l53 -123l-279 -54l-6 13z" />
    <glyph glyph-name="uni013B" unicode="&#x13b;" horiz-adv-x="621" 
d="M42 0v2q23 56 31.5 97.5t8.5 111.5v310q0 70 -8.5 110.5t-31.5 98.5v2h259v-2q-23 -57 -31.5 -98.5t-8.5 -110.5v-499l114 7q47 2 112.5 67t112.5 137l11 -3l-52 -230h-517zM255 -239q23 17 36 38.5t13 39.5q0 22 -43 65v1l90 57q21 -12 34.5 -31.5t13.5 -39.5
q0 -38 -44 -76t-97 -59z" />
    <glyph glyph-name="uni013C" unicode="&#x13c;" horiz-adv-x="284" 
d="M39 2q24 70 24 155v403q0 97 -50 159v2l211 58v-622q0 -81 24 -155v-2h-209v2zM69 -239q23 17 36 38.5t13 39.5q0 22 -43 65v1l90 57q21 -12 34.5 -31.5t13.5 -39.5q0 -38 -44 -76t-97 -59z" />
    <glyph glyph-name="Lcaron" unicode="&#x13d;" horiz-adv-x="621" 
d="M42 0v2q23 56 31.5 97.5t8.5 111.5v310q0 70 -8.5 110.5t-31.5 98.5v2h259v-2q-23 -57 -31.5 -98.5t-8.5 -110.5v-499l114 7q47 2 112.5 67t112.5 137l11 -3l-52 -230h-517zM352 732h111l-109 -203l-14 2z" />
    <glyph glyph-name="lcaron" unicode="&#x13e;" horiz-adv-x="284" 
d="M39 2q24 70 24 155v403q0 97 -50 159v2l211 58v-622q0 -81 24 -155v-2h-209v2zM280 775h111l-109 -203l-14 2z" />
    <glyph glyph-name="Ldot" unicode="&#x13f;" horiz-adv-x="621" 
d="M42 0v2q23 56 31.5 97.5t8.5 111.5v310q0 70 -8.5 110.5t-31.5 98.5v2h259v-2q-23 -57 -31.5 -98.5t-8.5 -110.5v-499l114 7q47 2 112.5 67t112.5 137l11 -3l-52 -230h-517zM495 306q-35 0 -59.5 24.5t-24.5 59.5t24.5 59.5t59.5 24.5t59.5 -24.5t24.5 -59.5t-24.5 -59.5
t-59.5 -24.5z" />
    <glyph glyph-name="ldot" unicode="&#x140;" horiz-adv-x="417" 
d="M39 2q24 70 24 155v403q0 97 -50 159v2l211 58v-622q0 -81 24 -155v-2h-209v2zM350 306q-35 0 -59.5 24.5t-24.5 59.5t24.5 59.5t59.5 24.5t59.5 -24.5t24.5 -59.5t-24.5 -59.5t-59.5 -24.5z" />
    <glyph glyph-name="Lslash" unicode="&#x141;" horiz-adv-x="629" 
d="M50 0v2q23 56 31.5 97.5t8.5 111.5v41l-77 -34v28l77 34v241q0 70 -8.5 110.5t-31.5 98.5v2h259v-2q-23 -57 -31.5 -98.5t-8.5 -110.5v-160l214 97v-28l-214 -97v-311l114 7q47 2 112.5 67t112.5 137l11 -3l-52 -230h-517z" />
    <glyph glyph-name="lslash" unicode="&#x142;" horiz-adv-x="304" 
d="M49 2q24 70 24 155v138l-69 -51v30l69 51v235q0 97 -50 159v2l211 58v-336l63 47v-29l-63 -47v-257q0 -81 24 -155v-2h-209v2z" />
    <glyph glyph-name="Nacute" unicode="&#x143;" horiz-adv-x="722" 
d="M108 605l4 -388q0 -69 16.5 -112t59.5 -103v-2h-180v2q43 61 58.5 102.5t15.5 112.5v355q-4 50 -20 83t-53 75v2h223l370 -465l-2 246q0 71 -16 114.5t-58 102.5v2h176v-2q-42 -62 -57.5 -103.5t-15.5 -111.5v-514l-34 -4zM495 959l53 -123l-279 -54l-6 13z" />
    <glyph glyph-name="nacute" unicode="&#x144;" horiz-adv-x="606" 
d="M250 0h-209v2q25 75 25 174l-1 113q0 56 -11.5 91t-38.5 68v2l207 58v-100l4 -1q60 96 168 96q67 0 108.5 -38t41.5 -101v-187q0 -101 24 -175v-2h-209v2q24 72 24 173v179q0 34 -17 54t-52 20q-54 0 -88 -49v-203q0 -100 24 -174v-2zM362 749l89 -96l-223 -119l-9 9z
" />
    <glyph glyph-name="uni0145" unicode="&#x145;" horiz-adv-x="722" 
d="M108 605l4 -388q0 -69 16.5 -112t59.5 -103v-2h-180v2q43 61 58.5 102.5t15.5 112.5v355q-4 50 -20 83t-53 75v2h223l370 -465l-2 246q0 71 -16 114.5t-58 102.5v2h176v-2q-42 -62 -57.5 -103.5t-15.5 -111.5v-514l-34 -4zM278 -239q23 17 36 38.5t13 39.5q0 22 -43 65v1
l90 57q21 -12 34.5 -31.5t13.5 -39.5q0 -38 -44 -76t-97 -59z" />
    <glyph glyph-name="uni0146" unicode="&#x146;" horiz-adv-x="606" 
d="M250 0h-209v2q25 75 25 174l-1 113q0 56 -11.5 91t-38.5 68v2l207 58v-100l4 -1q60 96 168 96q67 0 108.5 -38t41.5 -101v-187q0 -101 24 -175v-2h-209v2q24 72 24 173v179q0 34 -17 54t-52 20q-54 0 -88 -49v-203q0 -100 24 -174v-2zM231 -239q23 17 36 38.5t13 39.5
q0 22 -43 65v1l90 57q21 -12 34.5 -31.5t13.5 -39.5q0 -38 -44 -76t-97 -59z" />
    <glyph glyph-name="Ncaron" unicode="&#x147;" horiz-adv-x="722" 
d="M108 605l4 -388q0 -69 16.5 -112t59.5 -103v-2h-180v2q43 61 58.5 102.5t15.5 112.5v355q-4 50 -20 83t-53 75v2h223l370 -465l-2 246q0 71 -16 114.5t-58 102.5v2h176v-2q-42 -62 -57.5 -103.5t-15.5 -111.5v-514l-34 -4zM380 782l-159 163l8 11l156 -60l155 60l8 -11
l-159 -163h-9z" />
    <glyph glyph-name="ncaron" unicode="&#x148;" horiz-adv-x="606" 
d="M250 0h-209v2q25 75 25 174l-1 113q0 56 -11.5 91t-38.5 68v2l207 58v-100l4 -1q60 96 168 96q67 0 108.5 -38t41.5 -101v-187q0 -101 24 -175v-2h-209v2q24 72 24 173v179q0 34 -17 54t-52 20q-54 0 -88 -49v-203q0 -100 24 -174v-2zM154 722l8 10l141 -68l140 68l9 -10
l-145 -182h-9z" />
    <glyph glyph-name="napostrophe" unicode="&#x149;" horiz-adv-x="606" 
d="M250 0h-209v2q25 75 25 174l-1 113q0 56 -11.5 91t-38.5 68v2l207 58v-100l4 -1q60 96 168 96q67 0 108.5 -38t41.5 -101v-187q0 -101 24 -175v-2h-209v2q24 72 24 173v179q0 34 -17 54t-52 20q-54 0 -88 -49v-203q0 -100 24 -174v-2zM-72 503q28 18 46.5 43.5t18.5 48.5
q0 33 -51 80v3l99 77q24 -15 39.5 -39.5t15.5 -50.5q0 -51 -48.5 -99t-113.5 -74z" />
    <glyph glyph-name="Eng" unicode="&#x14a;" horiz-adv-x="734" 
d="M483 -225q-77 0 -134 33l-22 164l10 3q59 -100 92 -138.5t75 -38.5q45 0 78 42t33 124v33h-14l-480 608l3 -388q0 -69 18 -112t65 -103v-2h-193v2q47 60 64 102t17 113v328q0 64 -18 100.5t-69 84.5v2h236l370 -472l-1 253q0 71 -17 113t-64 104v2h189v-2
q-45 -61 -62.5 -103.5t-17.5 -111.5v-539q0 -201 -158 -201z" />
    <glyph glyph-name="eng" unicode="&#x14b;" horiz-adv-x="602" 
d="M300 -208q85 42 85 173l-2 389q0 34 -17 54t-52 20q-54 0 -88 -49v-203q0 -100 24 -174v-2h-209v2q24 72 24 174v113q0 56 -11.5 91t-38.5 68v2l207 58v-100l4 -1q60 96 168 96q66 0 108 -38t42 -101l-4 -317q-2 -125 -65.5 -188.5t-172.5 -73.5z" />
    <glyph glyph-name="Omacron" unicode="&#x14c;" horiz-adv-x="834" 
d="M417 -15q-165 0 -276.5 109t-111.5 271q0 161 112 271.5t276 110.5t276 -110.5t112 -271.5q0 -162 -112 -271t-276 -109zM417 8q99 0 146.5 96t47.5 261t-47 262t-147 97t-147.5 -97t-47.5 -262t47.5 -261t147.5 -96zM243 895h348v-67h-348v67z" />
    <glyph glyph-name="omacron" unicode="&#x14d;" horiz-adv-x="588" 
d="M294 -15q-110 0 -189.5 76.5t-79.5 181.5t79.5 182.5t189.5 77.5t189.5 -77.5t79.5 -182.5t-79.5 -181.5t-189.5 -76.5zM294 4q51 0 77 64.5t26 174.5q0 111 -26 176t-77 65q-52 0 -77.5 -64.5t-25.5 -176.5q0 -110 26 -174.5t77 -64.5zM145 648h298v-67h-298v67z" />
    <glyph glyph-name="Obreve" unicode="&#x14e;" horiz-adv-x="834" 
d="M417 -15q-165 0 -276.5 109t-111.5 271q0 161 112 271.5t276 110.5t276 -110.5t112 -271.5q0 -162 -112 -271t-276 -109zM417 8q99 0 146.5 96t47.5 261t-47 262t-147 97t-147.5 -97t-47.5 -262t47.5 -261t147.5 -96zM417 883q103 0 135 68h13q-2 -24 -10 -47.5
t-23.5 -48.5t-45 -40.5t-69.5 -15.5q-39 0 -69 15.5t-45.5 40.5t-23.5 49t-9 47h12q28 -68 135 -68z" />
    <glyph glyph-name="obreve" unicode="&#x14f;" horiz-adv-x="588" 
d="M294 -15q-110 0 -189.5 76.5t-79.5 181.5t79.5 182.5t189.5 77.5t189.5 -77.5t79.5 -182.5t-79.5 -181.5t-189.5 -76.5zM294 4q51 0 77 64.5t26 174.5q0 111 -26 176t-77 65q-52 0 -77.5 -64.5t-25.5 -176.5q0 -110 26 -174.5t77 -64.5zM293 646q91 0 119 65h13
q-2 -23 -9 -45t-21.5 -46t-41 -39t-61.5 -15t-61.5 15t-40 38.5t-20.5 46.5t-8 45h13q26 -65 118 -65z" />
    <glyph glyph-name="Ohungarumlaut" unicode="&#x150;" horiz-adv-x="834" 
d="M417 -15q-165 0 -276.5 109t-111.5 271q0 161 112 271.5t276 110.5t276 -110.5t112 -271.5q0 -162 -112 -271t-276 -109zM417 8q99 0 146.5 96t47.5 261t-47 262t-147 97t-147.5 -97t-47.5 -262t47.5 -261t147.5 -96zM595 956l65 -110l-206 -64l-7 9zM391 956l65 -110
l-205 -64l-7 9z" />
    <glyph glyph-name="ohungarumlaut" unicode="&#x151;" horiz-adv-x="588" 
d="M294 -15q-110 0 -189.5 76.5t-79.5 181.5t79.5 182.5t189.5 77.5t189.5 -77.5t79.5 -182.5t-79.5 -181.5t-189.5 -76.5zM294 4q51 0 77 64.5t26 174.5q0 111 -26 176t-77 65q-52 0 -77.5 -64.5t-25.5 -176.5q0 -110 26 -174.5t77 -64.5zM421 729l94 -93l-173 -99l-10 10z
M256 729l94 -93l-173 -99l-9 10z" />
    <glyph glyph-name="OE" unicode="&#x152;" horiz-adv-x="1113" 
d="M1050 0h-591q-203 0 -316.5 96.5t-113.5 272.5q0 173 115.5 268t314.5 95h554l37 -193l-10 -3q-11 10 -58.5 61t-81 78t-58.5 29l-128 9v-326h59q15 0 30.5 6t32 19t27.5 23t28.5 28t24.5 24h11v-227h-11q-9 7 -39.5 39.5t-55 48.5t-49.5 16h-58v-345l144 8
q46 2 113.5 67.5t119.5 138.5l10 -3zM456 25h21q17 0 27 2q30 90 30 180v318q0 94 -32 184q-1 0 -14.5 1t-19.5 1h-6q-128 2 -184 -85t-56 -271q0 -167 52 -248.5t182 -81.5z" />
    <glyph glyph-name="oe" unicode="&#x153;" horiz-adv-x="882" 
d="M648 485q-32 0 -53 -49t-23 -125l130 2v38q0 134 -54 134zM301 3q111 0 111 239q0 111 -27.5 175t-84.5 64q-111 0 -111 -239t112 -239zM858 136q-21 -71 -75 -111t-136 -40q-105 0 -168 69q-75 -69 -179 -69q-112 0 -193.5 76.5t-81.5 180.5t81.5 180.5t193.5 76.5
q106 0 185 -74q68 78 169 78q97 0 151.5 -65t52.5 -148l-286 1q2 -98 48 -145.5t116 -47.5q71 0 117 41z" />
    <glyph glyph-name="Racute" unicode="&#x154;" horiz-adv-x="723" 
d="M42 2q23 56 31.5 97.5t8.5 111.5v310q0 70 -8.5 110.5t-31.5 98.5v2h313q152 0 218.5 -47t66.5 -133q0 -134 -134 -186l113 -230q28 -57 49.5 -84t59.5 -48v-4h-239l-162 339h-66v-128q0 -69 8.5 -110.5t31.5 -98.5v-2h-259v2zM312 710h-23q-18 0 -28 -1v-347h55
q76 0 108.5 53.5t32.5 133.5q0 161 -145 161zM450 959l53 -123l-279 -54l-6 13z" />
    <glyph glyph-name="racute" unicode="&#x155;" horiz-adv-x="417" 
d="M41 0v2q24 72 24 174v113q0 56 -11.5 91t-38.5 68v2l207 58v-121q6 6 32 35t41 42.5t44.5 27t59.5 11.5l-18 -168h-5q-16 24 -50 41.5t-54 17.5t-46 -29v-189q0 -100 24 -174v-2h-209zM278 749l89 -96l-223 -119l-9 9z" />
    <glyph glyph-name="uni0156" unicode="&#x156;" horiz-adv-x="723" 
d="M42 2q23 56 31.5 97.5t8.5 111.5v310q0 70 -8.5 110.5t-31.5 98.5v2h313q152 0 218.5 -47t66.5 -133q0 -134 -134 -186l113 -230q28 -57 49.5 -84t59.5 -48v-4h-239l-162 339h-66v-128q0 -69 8.5 -110.5t31.5 -98.5v-2h-259v2zM312 710h-23q-18 0 -28 -1v-347h55
q76 0 108.5 53.5t32.5 133.5q0 161 -145 161zM302 -239q23 17 36 38.5t13 39.5q0 22 -43 65v1l90 57q21 -12 34.5 -31.5t13.5 -39.5q0 -38 -44 -76t-97 -59z" />
    <glyph glyph-name="uni0157" unicode="&#x157;" horiz-adv-x="417" 
d="M41 0v2q24 72 24 174v113q0 56 -11.5 91t-38.5 68v2l207 58v-121q6 6 32 35t41 42.5t44.5 27t59.5 11.5l-18 -168h-5q-16 24 -50 41.5t-54 17.5t-46 -29v-189q0 -100 24 -174v-2h-209zM69 -239q23 17 36 38.5t13 39.5q0 22 -43 65v1l90 57q21 -12 34.5 -31.5t13.5 -39.5
q0 -38 -44 -76t-97 -59z" />
    <glyph glyph-name="Rcaron" unicode="&#x158;" horiz-adv-x="723" 
d="M42 2q23 56 31.5 97.5t8.5 111.5v310q0 70 -8.5 110.5t-31.5 98.5v2h313q152 0 218.5 -47t66.5 -133q0 -134 -134 -186l113 -230q28 -57 49.5 -84t59.5 -48v-4h-239l-162 339h-66v-128q0 -69 8.5 -110.5t31.5 -98.5v-2h-259v2zM312 710h-23q-18 0 -28 -1v-347h55
q76 0 108.5 53.5t32.5 133.5q0 161 -145 161zM329 782l-159 163l8 11l156 -60l155 60l8 -11l-159 -163h-9z" />
    <glyph glyph-name="rcaron" unicode="&#x159;" horiz-adv-x="417" 
d="M41 0v2q24 72 24 174v113q0 56 -11.5 91t-38.5 68v2l207 58v-121q6 6 32 35t41 42.5t44.5 27t59.5 11.5l-18 -168h-5q-16 24 -50 41.5t-54 17.5t-46 -29v-189q0 -100 24 -174v-2h-209zM89 722l8 10l141 -68l140 68l9 -10l-145 -182h-9z" />
    <glyph glyph-name="Sacute" unicode="&#x15a;" horiz-adv-x="585" 
d="M509 533l-11 -3q-60 99 -113.5 146.5t-109.5 47.5q-46 0 -75 -26.5t-29 -70.5q0 -27 10.5 -48t41.5 -42.5t45.5 -29.5t63.5 -31q15 -7 22 -11q46 -23 75 -42t61.5 -50t48.5 -72t16 -92q0 -115 -78 -169.5t-199 -54.5q-119 0 -218 45l-26 204l10 3q73 -121 134 -175
t128 -54q58 0 90.5 33t32.5 83q0 26 -11 48.5t-23 37t-42.5 33.5t-44 26.5t-54.5 27.5q-38 19 -61.5 32t-54 36t-47.5 45.5t-29.5 55.5t-12.5 72q0 107 78.5 158t196.5 51q83 0 158 -24zM405 959l53 -123l-279 -54l-6 13z" />
    <glyph glyph-name="sacute" unicode="&#x15b;" horiz-adv-x="429" 
d="M373 360l-9 -2q-49 68 -84 97t-72 29q-31 0 -52 -17.5t-21 -46.5q0 -24 19.5 -44t38 -29t61.5 -26q8 -3 12 -5q32 -14 52.5 -27t43 -33t34 -49t11.5 -65q0 -80 -57.5 -118.5t-149.5 -38.5q-91 0 -163 31l-14 140l9 2q51 -78 97 -116.5t95 -38.5q36 0 53.5 18.5t17.5 46.5
q0 19 -8 34t-28 28.5t-35 21.5t-47 22q-34 16 -53.5 27t-44 32t-36.5 50t-12 66q0 77 57.5 115t147.5 38q73 0 124 -17zM266 749l89 -96l-223 -119l-9 9z" />
    <glyph glyph-name="Scircumflex" unicode="&#x15c;" horiz-adv-x="585" 
d="M509 533l-11 -3q-60 99 -113.5 146.5t-109.5 47.5q-46 0 -75 -26.5t-29 -70.5q0 -27 10.5 -48t41.5 -42.5t45.5 -29.5t63.5 -31q15 -7 22 -11q46 -23 75 -42t61.5 -50t48.5 -72t16 -92q0 -115 -78 -169.5t-199 -54.5q-119 0 -218 45l-26 204l10 3q73 -121 134 -175
t128 -54q58 0 90.5 33t32.5 83q0 26 -11 48.5t-23 37t-42.5 33.5t-44 26.5t-54.5 27.5q-38 19 -61.5 32t-54 36t-47.5 45.5t-29.5 55.5t-12.5 72q0 107 78.5 158t196.5 51q83 0 158 -24zM288 842l-155 -60l-8 11l159 163h9l159 -163l-9 -11z" />
    <glyph glyph-name="scircumflex" unicode="&#x15d;" horiz-adv-x="429" 
d="M373 360l-9 -2q-49 68 -84 97t-72 29q-31 0 -52 -17.5t-21 -46.5q0 -24 19.5 -44t38 -29t61.5 -26q8 -3 12 -5q32 -14 52.5 -27t43 -33t34 -49t11.5 -65q0 -80 -57.5 -118.5t-149.5 -38.5q-91 0 -163 31l-14 140l9 2q51 -78 97 -116.5t95 -38.5q36 0 53.5 18.5t17.5 46.5
q0 19 -8 34t-28 28.5t-35 21.5t-47 22q-34 16 -53.5 27t-44 32t-36.5 50t-12 66q0 77 57.5 115t147.5 38q73 0 124 -17zM215 608l-141 -68l-9 11l145 181h9l144 -181l-8 -11z" />
    <glyph glyph-name="uni015E" unicode="&#x15e;" horiz-adv-x="585" 
d="M197 -247q72 32 72 79q0 26 -21 35t-43 6l-2 2l68 110q-62 2 -113 13q-62 15 -98 32l-26 204l10 3q73 -121 134 -175t128 -54q58 0 90.5 33t32.5 83q0 26 -11 48.5t-23 37t-42.5 33.5t-44 26.5t-54.5 27.5q-38 19 -61.5 32t-54 36t-47.5 45.5t-29.5 55.5t-12.5 72
q0 107 78.5 158t196.5 51q83 0 158 -24l27 -190l-11 -3q-60 99 -113.5 146.5t-109.5 47.5q-46 0 -75 -26.5t-29 -70.5q0 -27 10.5 -48t41.5 -42.5t45.5 -29.5t63.5 -31q15 -7 22 -11q46 -23 75 -42t61.5 -50t48.5 -72t16 -92q0 -88 -47 -141t-125 -71q-43 -10 -84 -11
l-21 -34q41 -5 65 -26.5t24 -55.5q0 -46 -43 -79.5t-123 -47.5z" />
    <glyph glyph-name="uni015F" unicode="&#x15f;" horiz-adv-x="429" 
d="M116 -247q72 32 72 79q0 26 -21 35t-43 6l-2 2l68 110q-40 1 -78 9q-38 7 -75 22l-14 140l9 2q51 -78 97 -116.5t95 -38.5q36 0 53.5 18.5t17.5 46.5q0 19 -8 34t-28 28.5t-35 21.5t-47 22q-34 16 -53.5 27t-44 32t-36.5 50t-12 66q0 77 57.5 115t147.5 38q73 0 124 -17
l13 -125l-9 -2q-49 68 -84 97t-72 29q-31 0 -52 -17.5t-21 -46.5q0 -24 19.5 -44t38 -29t61.5 -26q8 -3 12 -5q32 -14 52.5 -27t43 -33t34 -49t11.5 -65q0 -60 -34.5 -97.5t-92.5 -50.5q-25 -6 -62 -8l-21 -34q41 -5 65 -26.5t24 -55.5q0 -46 -43 -79.5t-123 -47.5z" />
    <glyph glyph-name="Scaron" unicode="&#x160;" horiz-adv-x="585" 
d="M509 533l-11 -3q-60 99 -113.5 146.5t-109.5 47.5q-46 0 -75 -26.5t-29 -70.5q0 -27 10.5 -48t41.5 -42.5t45.5 -29.5t63.5 -31q15 -7 22 -11q46 -23 75 -42t61.5 -50t48.5 -72t16 -92q0 -115 -78 -169.5t-199 -54.5q-119 0 -218 45l-26 204l10 3q73 -121 134 -175
t128 -54q58 0 90.5 33t32.5 83q0 26 -11 48.5t-23 37t-42.5 33.5t-44 26.5t-54.5 27.5q-38 19 -61.5 32t-54 36t-47.5 45.5t-29.5 55.5t-12.5 72q0 107 78.5 158t196.5 51q83 0 158 -24zM283 782l-159 163l8 11l156 -60l155 60l8 -11l-159 -163h-9z" />
    <glyph glyph-name="scaron" unicode="&#x161;" horiz-adv-x="429" 
d="M373 360l-9 -2q-49 68 -84 97t-72 29q-31 0 -52 -17.5t-21 -46.5q0 -24 19.5 -44t38 -29t61.5 -26q8 -3 12 -5q32 -14 52.5 -27t43 -33t34 -49t11.5 -65q0 -80 -57.5 -118.5t-149.5 -38.5q-91 0 -163 31l-14 140l9 2q51 -78 97 -116.5t95 -38.5q36 0 53.5 18.5t17.5 46.5
q0 19 -8 34t-28 28.5t-35 21.5t-47 22q-34 16 -53.5 27t-44 32t-36.5 50t-12 66q0 77 57.5 115t147.5 38q73 0 124 -17zM66 722l8 10l141 -68l140 68l9 -10l-145 -182h-9z" />
    <glyph glyph-name="Tcommaaccent" unicode="&#x162;" horiz-adv-x="742" 
d="M501 0h-260v2q23 56 32 98t9 111v500l-49 -3q-12 -1 -26.5 -9t-32 -26.5t-29.5 -32.5t-33 -43t-29 -41l-30 -45t-24 -37l-11 3l44 255h618l44 -255l-11 -3q-3 4 -19 28t-22 33.5t-22 33t-25 35t-24 30.5t-25.5 29.5t-23 22t-23.5 16.5t-20 6l-48 3v-500q0 -69 8.5 -110.5
t31.5 -98.5v-2zM296 -239q23 17 36 38.5t13 39.5q0 22 -43 65v1l90 57q21 -12 34.5 -31.5t13.5 -39.5q0 -38 -44 -76t-97 -59z" />
    <glyph glyph-name="tcommaaccent" unicode="&#x163;" horiz-adv-x="377" 
d="M201 -15q-64 0 -101 33.5t-37 105.5v341h-56v9l206 129h11v-116h119v-22h-119v-337q0 -79 72 -79q40 0 57 17l3 -3q-19 -33 -59 -55.5t-96 -22.5zM112 -239q23 17 36 38.5t13 39.5q0 22 -43 65v1l90 57q21 -12 34.5 -31.5t13.5 -39.5q0 -38 -44 -76t-97 -59z" />
    <glyph glyph-name="Tcaron" unicode="&#x164;" horiz-adv-x="742" 
d="M501 0h-260v2q23 56 32 98t9 111v500l-49 -3q-12 -1 -26.5 -9t-32 -26.5t-29.5 -32.5t-33 -43t-29 -41l-30 -45t-24 -37l-11 3l44 255h618l44 -255l-11 -3q-3 4 -19 28t-22 33.5t-22 33t-25 35t-24 30.5t-25.5 29.5t-23 22t-23.5 16.5t-20 6l-48 3v-500q0 -69 8.5 -110.5
t31.5 -98.5v-2zM367 782l-159 163l8 11l156 -60l155 60l8 -11l-159 -163h-9z" />
    <glyph glyph-name="tcaron" unicode="&#x165;" horiz-adv-x="377" 
d="M201 -15q-64 0 -101 33.5t-37 105.5v341h-56v9l206 129h11v-116h119v-22h-119v-337q0 -79 72 -79q40 0 57 17l3 -3q-19 -33 -59 -55.5t-96 -22.5zM295 775h111l-109 -203l-14 2z" />
    <glyph glyph-name="Tbar" unicode="&#x166;" horiz-adv-x="742" 
d="M501 0h-260v2q23 56 32 98t9 111v146h-147v23h147v331l-49 -3q-12 -1 -26.5 -9t-32 -26.5t-29.5 -32.5t-33 -43t-29 -41l-30 -45t-24 -37l-11 3l44 255h618l44 -255l-11 -3q-3 4 -19 28t-22 33.5t-22 33t-25 35t-24 30.5t-25.5 29.5t-23 22t-23.5 16.5t-20 6l-48 3v-331
h146v-23h-146v-146q0 -69 8.5 -110.5t31.5 -98.5v-2z" />
    <glyph glyph-name="tbar" unicode="&#x167;" horiz-adv-x="377" 
d="M201 -15q-64 0 -101 33.5t-37 105.5v183h-61v21h61v137h-56v9l206 129h11v-116h119v-22h-119v-137h114v-21h-114v-179q0 -79 72 -79q40 0 57 17l3 -3q-19 -33 -59 -55.5t-96 -22.5z" />
    <glyph glyph-name="Utilde" unicode="&#x168;" horiz-adv-x="734" 
d="M384 -15q-137 0 -218 69.5t-81 213.5v253q0 70 -8.5 110t-32.5 99v2h262v-2q-23 -52 -32 -95.5t-9 -113.5v-262q0 -238 172 -238q96 0 138.5 69.5t42.5 183.5v239q0 73 -18 117t-66 100v2h195l2 -2q-48 -61 -66 -104t-18 -113v-232q0 -68 -11.5 -118.5t-39.5 -92.5
t-81.5 -63.5t-130.5 -21.5zM349 916q31 0 83.5 -19t84.5 -19q60 0 71 50l14 -2q6 -140 -99 -140q-30 0 -82.5 19t-85.5 19q-59 0 -70 -51l-14 2q-6 141 98 141z" />
    <glyph glyph-name="utilde" unicode="&#x169;" horiz-adv-x="581" 
d="M349 96q-21 -41 -63.5 -76t-100.5 -35q-64 0 -99.5 43t-35.5 116v227q0 41 -9 65t-29 48v3h198v-344q0 -33 16 -54t48 -21q45 0 73 49v255q0 42 -9 66.5t-29 46.5v2h199v-279q0 -80 10.5 -113.5t39.5 -61.5v-2l-206 -45v109zM222 694q23 0 70 -17.5t71 -17.5q50 0 63 47
l14 -2q0 -55 -21.5 -96t-71.5 -41q-21 0 -69 17.5t-72 17.5q-50 0 -63 -47l-14 2q0 54 22 95.5t71 41.5z" />
    <glyph glyph-name="Umacron" unicode="&#x16a;" horiz-adv-x="734" 
d="M384 -15q-137 0 -218 69.5t-81 213.5v253q0 70 -8.5 110t-32.5 99v2h262v-2q-23 -52 -32 -95.5t-9 -113.5v-262q0 -238 172 -238q96 0 138.5 69.5t42.5 183.5v239q0 73 -18 117t-66 100v2h195l2 -2q-48 -61 -66 -104t-18 -113v-232q0 -68 -11.5 -118.5t-39.5 -92.5
t-81.5 -63.5t-130.5 -21.5zM240 895h348v-67h-348v67z" />
    <glyph glyph-name="umacron" unicode="&#x16b;" horiz-adv-x="581" 
d="M349 96q-21 -41 -63.5 -76t-100.5 -35q-64 0 -99.5 43t-35.5 116v227q0 41 -9 65t-29 48v3h198v-344q0 -33 16 -54t48 -21q45 0 73 49v255q0 42 -9 66.5t-29 46.5v2h199v-279q0 -80 10.5 -113.5t39.5 -61.5v-2l-206 -45v109zM136 648h298v-67h-298v67z" />
    <glyph glyph-name="Ubreve" unicode="&#x16c;" horiz-adv-x="734" 
d="M384 -15q-137 0 -218 69.5t-81 213.5v253q0 70 -8.5 110t-32.5 99v2h262v-2q-23 -52 -32 -95.5t-9 -113.5v-262q0 -238 172 -238q96 0 138.5 69.5t42.5 183.5v239q0 73 -18 117t-66 100v2h195l2 -2q-48 -61 -66 -104t-18 -113v-232q0 -68 -11.5 -118.5t-39.5 -92.5
t-81.5 -63.5t-130.5 -21.5zM430 883q103 0 135 68h13q-2 -24 -10 -47.5t-23.5 -48.5t-45 -40.5t-69.5 -15.5q-39 0 -69 15.5t-45.5 40.5t-23.5 49t-9 47h12q28 -68 135 -68z" />
    <glyph glyph-name="ubreve" unicode="&#x16d;" horiz-adv-x="581" 
d="M349 96q-21 -41 -63.5 -76t-100.5 -35q-64 0 -99.5 43t-35.5 116v227q0 41 -9 65t-29 48v3h198v-344q0 -33 16 -54t48 -21q45 0 73 49v255q0 42 -9 66.5t-29 46.5v2h199v-279q0 -80 10.5 -113.5t39.5 -61.5v-2l-206 -45v109zM285 646q91 0 119 65h13q-2 -23 -9 -45
t-21.5 -46t-41 -39t-61.5 -15t-61.5 15t-40 38.5t-20.5 46.5t-8 45h13q26 -65 118 -65z" />
    <glyph glyph-name="Uring" unicode="&#x16e;" horiz-adv-x="734" 
d="M384 -15q-137 0 -218 69.5t-81 213.5v253q0 70 -8.5 110t-32.5 99v2h262v-2q-23 -52 -32 -95.5t-9 -113.5v-262q0 -238 172 -238q96 0 138.5 69.5t42.5 183.5v239q0 73 -18 117t-66 100v2h195l2 -2q-48 -61 -66 -104t-18 -113v-232q0 -68 -11.5 -118.5t-39.5 -92.5
t-81.5 -63.5t-130.5 -21.5zM334 864q0 39 26.5 64t66.5 25q41 0 67 -24.5t26 -64.5q0 -38 -27 -63t-66 -25t-66 25t-27 63zM379 864q0 -32 13 -49.5t35 -17.5t35 17.5t13 49.5q0 33 -13 51t-35 18t-35 -18t-13 -51z" />
    <glyph glyph-name="uring" unicode="&#x16f;" horiz-adv-x="581" 
d="M349 96q-21 -41 -63.5 -76t-100.5 -35q-64 0 -99.5 43t-35.5 116v227q0 41 -9 65t-29 48v3h198v-344q0 -33 16 -54t48 -21q45 0 73 49v255q0 42 -9 66.5t-29 46.5v2h199v-279q0 -80 10.5 -113.5t39.5 -61.5v-2l-206 -45v109zM192 652q0 39 26.5 64.5t66.5 25.5
q41 0 67 -25t26 -65q0 -38 -27 -62.5t-66 -24.5t-66 24.5t-27 62.5zM237 652q0 -32 13 -49.5t35 -17.5t35 17.5t13 49.5q0 33 -13 51.5t-35 18.5t-35 -18.5t-13 -51.5z" />
    <glyph glyph-name="Uhungarumlaut" unicode="&#x170;" horiz-adv-x="734" 
d="M384 -15q-137 0 -218 69.5t-81 213.5v253q0 70 -8.5 110t-32.5 99v2h262v-2q-23 -52 -32 -95.5t-9 -113.5v-262q0 -238 172 -238q96 0 138.5 69.5t42.5 183.5v239q0 73 -18 117t-66 100v2h195l2 -2q-48 -61 -66 -104t-18 -113v-232q0 -68 -11.5 -118.5t-39.5 -92.5
t-81.5 -63.5t-130.5 -21.5zM599 956l65 -110l-206 -64l-7 9zM395 956l65 -110l-205 -64l-7 9z" />
    <glyph glyph-name="uhungarumlaut" unicode="&#x171;" horiz-adv-x="581" 
d="M349 96q-21 -41 -63.5 -76t-100.5 -35q-64 0 -99.5 43t-35.5 116v227q0 41 -9 65t-29 48v3h198v-344q0 -33 16 -54t48 -21q45 0 73 49v255q0 42 -9 66.5t-29 46.5v2h199v-279q0 -80 10.5 -113.5t39.5 -61.5v-2l-206 -45v109zM405 729l94 -93l-173 -99l-10 10zM240 729
l94 -93l-173 -99l-9 10z" />
    <glyph glyph-name="Uogonek" unicode="&#x172;" horiz-adv-x="734" 
d="M407 -248q-44 0 -70 23t-26 63q0 81 128 149q-16 -2 -28 -2h-27q-137 0 -218 69.5t-81 213.5v253q0 70 -8.5 110t-32.5 99v2h262v-2q-23 -52 -32 -95.5t-9 -113.5v-262q0 -238 172 -238q96 0 138.5 69.5t42.5 183.5v239q0 73 -18 117t-66 100v2h195l2 -2
q-48 -61 -66 -104t-18 -113v-232q0 -99 -26 -165.5t-91 -100.5q-5 -4 -28.5 -16.5t-37.5 -23.5q-47 -36 -47 -90q0 -26 14 -40.5t39 -14.5q32 0 64 33l9 -7q-49 -104 -136 -104z" />
    <glyph glyph-name="uogonek" unicode="&#x173;" horiz-adv-x="581" 
d="M323 -248q-43 0 -70 24t-27 63q0 82 126 146v110l-3 1q-21 -41 -63.5 -76t-100.5 -35q-64 0 -99.5 43t-35.5 116v227q0 41 -9 65t-29 48v3h198v-344q0 -33 16 -54t48 -21q45 0 73 49v255q0 42 -9 66.5t-29 46.5v2h199v-279q0 -80 10.5 -113.5t39.5 -61.5v-2
q-78 -12 -115 -26q-53 -18 -82.5 -50t-29.5 -70q0 -55 54 -55q32 0 64 33l9 -7q-49 -104 -135 -104z" />
    <glyph glyph-name="Wcircumflex" unicode="&#x174;" horiz-adv-x="1065" 
d="M267 -3l-174 551q-42 132 -89 182v2h306v-2q-59 -68 -17 -200l108 -345l120 335l-9 28q-43 133 -89 182v2h306v-2q-59 -70 -18 -200l110 -337l100 315q51 157 -40 222v2h180v-2q-57 -54 -100 -189l-174 -544h-93l-159 481l-174 -481h-94zM574 842l-155 -60l-8 11l159 163
h9l159 -163l-9 -11z" />
    <glyph glyph-name="wcircumflex" unicode="&#x175;" horiz-adv-x="742" 
d="M64 335q-38 104 -76 150v2h249v-2q-14 -18 -15.5 -60t13.5 -89l50 -153l68 169q-23 62 -36 88.5t-31 44.5v2h245v-2q-13 -18 -14.5 -58.5t12.5 -90.5l43 -138l50 129q15 35 16 69.5t-7 56t-19 32.5v2h128v-2q-30 -33 -50 -63.5t-43 -87.5l-133 -341h-38l-112 328
l-136 -328h-38zM376 608l-141 -68l-9 11l145 181h9l144 -181l-8 -11z" />
    <glyph glyph-name="Ycircumflex" unicode="&#x176;" horiz-adv-x="660" 
d="M190 2q23 48 32 84t9 95v170l-116 213q-39 73 -62.5 107.5t-53.5 57.5v3h318v-3q-25 -21 -30 -65.5t24 -107.5l91 -167l79 141q66 118 -27 200v2h208v-2q-43 -33 -73.5 -73.5t-66.5 -104.5l-112 -201v-170q0 -59 8.5 -95t31.5 -84v-2h-260v2zM373 842l-155 -60l-8 11
l159 163h9l159 -163l-9 -11z" />
    <glyph glyph-name="ycircumflex" unicode="&#x177;" horiz-adv-x="480" 
d="M19 -93q145 -13 191 65l-146 363q-50 121 -76 150v2h245v-2q-15 -19 -16.5 -61.5t17.5 -94.5l60 -156l66 158q14 34 14.5 66.5t-6.5 53.5t-18 34v2h128v-2q-29 -32 -49 -63t-44 -88l-135 -323q-29 -69 -55.5 -112.5t-57 -67.5t-53.5 -34t-65 -22v132zM267 608l-141 -68
l-9 11l145 181h9l144 -181l-8 -11z" />
    <glyph glyph-name="Ydieresis" unicode="&#x178;" horiz-adv-x="660" 
d="M190 2q23 48 32 84t9 95v170l-116 213q-39 73 -62.5 107.5t-53.5 57.5v3h318v-3q-25 -21 -30 -65.5t24 -107.5l91 -167l79 141q66 118 -27 200v2h208v-2q-43 -33 -73.5 -73.5t-66.5 -104.5l-112 -201v-170q0 -59 8.5 -95t31.5 -84v-2h-260v2zM578 868q0 -35 -24.5 -58.5
t-59.5 -23.5t-58 23.5t-23 58.5q0 34 23 58t58 24t59.5 -24t24.5 -58zM332 868q0 -35 -24.5 -58.5t-59.5 -23.5t-58 23.5t-23 58.5q0 34 23 58t58 24t59.5 -24t24.5 -58z" />
    <glyph glyph-name="Zacute" unicode="&#x179;" horiz-adv-x="669" 
d="M15 0v8l417 704l-128 -7q-64 -2 -131.5 -60.5t-116.5 -126.5l-8 3l51 211h547v-8l-415 -704l153 7q65 2 136 69t124 147l8 -3l-53 -240h-584zM484 959l53 -123l-279 -54l-6 13z" />
    <glyph glyph-name="zacute" unicode="&#x17a;" horiz-adv-x="487" 
d="M15 0v8l257 463l-76 -4q-15 -1 -30.5 -8t-34 -23.5t-30 -27.5t-36 -37.5t-33.5 -36.5l-7 2l41 151h385v-8l-257 -464l93 4q42 1 79.5 36.5t94.5 116.5l7 -2l-40 -170h-413zM319 749l89 -96l-223 -119l-9 9z" />
    <glyph glyph-name="Zdotaccent" unicode="&#x17b;" horiz-adv-x="669" 
d="M15 0v8l417 704l-128 -7q-64 -2 -131.5 -60.5t-116.5 -126.5l-8 3l51 211h547v-8l-415 -704l153 7q65 2 136 69t124 147l8 -3l-53 -240h-584zM449 868q0 -34 -24 -58t-57 -24q-35 0 -58.5 24t-23.5 58t23.5 59t58.5 25q33 0 57 -25.5t24 -58.5z" />
    <glyph glyph-name="zdotaccent" unicode="&#x17c;" horiz-adv-x="487" 
d="M15 0v8l257 463l-76 -4q-15 -1 -30.5 -8t-34 -23.5t-30 -27.5t-36 -37.5t-33.5 -36.5l-7 2l41 151h385v-8l-257 -464l93 4q42 1 79.5 36.5t94.5 116.5l7 -2l-40 -170h-413zM343 655q0 -35 -24.5 -59t-59.5 -24q-34 0 -57.5 24t-23.5 59q0 34 23.5 58t57.5 24
q35 0 59.5 -24t24.5 -58z" />
    <glyph glyph-name="Zcaron" unicode="&#x17d;" horiz-adv-x="669" 
d="M15 0v8l417 704l-128 -7q-64 -2 -131.5 -60.5t-116.5 -126.5l-8 3l51 211h547v-8l-415 -704l153 7q65 2 136 69t124 147l8 -3l-53 -240h-584zM363 782l-159 163l8 11l156 -60l155 60l8 -11l-159 -163h-9z" />
    <glyph glyph-name="zcaron" unicode="&#x17e;" horiz-adv-x="487" 
d="M15 0v8l257 463l-76 -4q-15 -1 -30.5 -8t-34 -23.5t-30 -27.5t-36 -37.5t-33.5 -36.5l-7 2l41 151h385v-8l-257 -464l93 4q42 1 79.5 36.5t94.5 116.5l7 -2l-40 -170h-413zM112 722l8 10l141 -68l140 68l9 -10l-145 -182h-9z" />
    <glyph glyph-name="uni0192" unicode="&#x192;" horiz-adv-x="673" 
d="M46 -202q-42 0 -80 11l-9 144l7 2q9 -13 23.5 -37t24 -38.5t21 -30.5t22.5 -24t21 -8q51 0 98 218l71 330h-90l6 24h89l20 92q28 131 115.5 208.5t194.5 77.5q45 0 79 -10l6 -148l-7 -2q-5 9 -15.5 27.5t-17 29t-16 25.5t-16 24t-15 18.5t-15.5 13.5t-14 4
q-48 0 -95 -199l-37 -161h114l-6 -24h-114l-55 -240q-37 -160 -119.5 -243.5t-190.5 -83.5z" />
    <glyph glyph-name="Aringacute" unicode="&#x1fa;" horiz-adv-x="704" 
d="M283 596l-108 -297h212zM187 0h-184v2q58 55 107 187l197 546h101l200 -551q43 -120 93 -182v-2h-298v2q61 80 18 200l-26 74h-228l-18 -49q-55 -155 38 -225v-2zM259 867q0 39 26.5 64t66.5 25q41 0 67 -24.5t26 -64.5q0 -38 -27 -63t-66 -25t-66 25t-27 63zM304 867
q0 -32 13 -49.5t35 -17.5t35 17.5t13 49.5q0 33 -13 51t-35 18t-35 -18t-13 -51zM478 1146l53 -123l-279 -54l-6 13z" />
    <glyph glyph-name="aringacute" unicode="&#x1fb;" horiz-adv-x="525" 
d="M231 72q25 0 42 10v161q-52 -14 -80.5 -42t-28.5 -64q0 -30 17.5 -47.5t49.5 -17.5zM383 -14q-44 0 -72 21t-35 56q-53 -78 -140 -78q-49 0 -81 25.5t-32 74.5q0 126 250 179v62q0 45 -21.5 65.5t-74.5 20.5q-66 0 -130 -27l-4 7q90 111 235 111q79 0 117.5 -35t38.5 -96
v-257q0 -45 43 -45q21 0 38 12l2 -4q-39 -92 -134 -92zM155 652q0 39 26.5 64.5t66.5 25.5q41 0 67 -25t26 -65q0 -38 -27 -62.5t-66 -24.5t-66 24.5t-27 62.5zM200 652q0 -32 13 -49.5t35 -17.5t35 17.5t13 49.5q0 33 -13 51.5t-35 18.5t-35 -18.5t-13 -51.5zM362 939
l53 -123l-279 -54l-6 13z" />
    <glyph glyph-name="AEacute" unicode="&#x1fc;" horiz-adv-x="1059" 
d="M480 525q0 86 -11 119l-211 -345h222v226zM195 0h-186v2q77 59 154 186l294 484q-16 31 -51 58v2h552l38 -193l-11 -3q-11 11 -58.5 61.5t-80.5 77.5t-59 29l-128 9v-326h59q19 0 40.5 11.5t35 23t37 35.5t30.5 30h11v-227h-11q-9 8 -39.5 39.5t-54.5 48t-49 16.5h-59
v-345l145 8q47 2 113.5 67t119.5 139l10 -3l-51 -230h-556v2q23 62 31.5 101.5t8.5 103.5v69h-236l-35 -58q-80 -131 -14 -216v-2zM786 959l53 -123l-279 -54l-6 13z" />
    <glyph glyph-name="aeacute" unicode="&#x1fd;" horiz-adv-x="743" 
d="M513 485q-35 0 -55.5 -49t-22.5 -125l131 2v38q0 134 -53 134zM723 136q-21 -70 -76.5 -110.5t-138.5 -40.5q-135 0 -197 102q-64 -102 -170 -102q-53 0 -85.5 26t-32.5 74q0 126 250 179v62q0 45 -21.5 65.5t-74.5 20.5q-66 0 -130 -27l-4 7q90 111 235 111
q72 0 110 -39q58 39 130 39q97 0 151.5 -65t52.5 -148l-287 1q2 -102 46 -147.5t115 -45.5q42 0 74.5 13t46.5 28zM232 72q42 0 72 27q-31 58 -31 134q0 8 1 10q-110 -29 -110 -106q0 -30 18 -47.5t50 -17.5zM457 749l89 -96l-223 -119l-9 9z" />
    <glyph glyph-name="Oslashacute" unicode="&#x1fe;" horiz-adv-x="834" 
d="M222 365q0 -142 35 -234l306 498q-49 95 -146 95q-100 0 -147.5 -97t-47.5 -262zM417 8q99 0 146.5 96t47.5 261q0 146 -35 235l-305 -497q49 -95 146 -95zM417 -15q-101 0 -190 46l-53 -86h-31l61 100q-81 50 -128 134.5t-47 185.5q0 161 112 271.5t276 110.5
q104 0 189 -47l54 88h31l-62 -101q81 -51 128.5 -136t47.5 -186q0 -162 -112 -271t-276 -109zM534 959l53 -123l-279 -54l-6 13z" />
    <glyph glyph-name="oslashacute" unicode="&#x1ff;" horiz-adv-x="588" 
d="M294 -15q-75 0 -134 35l-60 -87h-30l69 101q-53 36 -83.5 91t-30.5 118q0 105 79.5 182.5t189.5 77.5q76 0 138 -39l55 80h31l-64 -94q51 -37 80 -91.5t29 -115.5q0 -105 -79.5 -181.5t-189.5 -76.5zM191 243q0 -72 10 -119l180 264q-26 96 -87 96q-52 0 -77.5 -64.5
t-25.5 -176.5zM294 4q51 0 77 64.5t26 174.5q0 63 -9 111l-180 -263q26 -87 86 -87zM353 749l89 -96l-223 -119l-9 9z" />
    <glyph glyph-name="uni0218" unicode="&#x218;" horiz-adv-x="585" 
d="M509 533l-11 -3q-60 99 -113.5 146.5t-109.5 47.5q-46 0 -75 -26.5t-29 -70.5q0 -27 10.5 -48t41.5 -42.5t45.5 -29.5t63.5 -31q15 -7 22 -11q46 -23 75 -42t61.5 -50t48.5 -72t16 -92q0 -115 -78 -169.5t-199 -54.5q-119 0 -218 45l-26 204l10 3q73 -121 134 -175
t128 -54q58 0 90.5 33t32.5 83q0 26 -11 48.5t-23 37t-42.5 33.5t-44 26.5t-54.5 27.5q-38 19 -61.5 32t-54 36t-47.5 45.5t-29.5 55.5t-12.5 72q0 107 78.5 158t196.5 51q83 0 158 -24zM216 -239q23 17 36 38.5t13 39.5q0 22 -43 65v1l90 57q21 -12 34.5 -31.5t13.5 -39.5
q0 -38 -44 -76t-97 -59z" />
    <glyph glyph-name="uni0219" unicode="&#x219;" horiz-adv-x="429" 
d="M373 360l-9 -2q-49 68 -84 97t-72 29q-31 0 -52 -17.5t-21 -46.5q0 -24 19.5 -44t38 -29t61.5 -26q8 -3 12 -5q32 -14 52.5 -27t43 -33t34 -49t11.5 -65q0 -80 -57.5 -118.5t-149.5 -38.5q-91 0 -163 31l-14 140l9 2q51 -78 97 -116.5t95 -38.5q36 0 53.5 18.5t17.5 46.5
q0 19 -8 34t-28 28.5t-35 21.5t-47 22q-34 16 -53.5 27t-44 32t-36.5 50t-12 66q0 77 57.5 115t147.5 38q73 0 124 -17zM132 -239q23 17 36 38.5t13 39.5q0 22 -43 65v1l90 57q21 -12 34.5 -31.5t13.5 -39.5q0 -38 -44 -76t-97 -59z" />
    <glyph glyph-name="uni021A" unicode="&#x21a;" horiz-adv-x="742" 
d="M501 0h-260v2q23 56 32 98t9 111v500l-49 -3q-12 -1 -26.5 -9t-32 -26.5t-29.5 -32.5t-33 -43t-29 -41l-30 -45t-24 -37l-11 3l44 255h618l44 -255l-11 -3q-3 4 -19 28t-22 33.5t-22 33t-25 35t-24 30.5t-25.5 29.5t-23 22t-23.5 16.5t-20 6l-48 3v-500q0 -69 8.5 -110.5
t31.5 -98.5v-2zM296 -239q23 17 36 38.5t13 39.5q0 22 -43 65v1l90 57q21 -12 34.5 -31.5t13.5 -39.5q0 -38 -44 -76t-97 -59z" />
    <glyph glyph-name="uni021B" unicode="&#x21b;" horiz-adv-x="377" 
d="M201 -15q-64 0 -101 33.5t-37 105.5v341h-56v9l206 129h11v-116h119v-22h-119v-337q0 -79 72 -79q40 0 57 17l3 -3q-19 -33 -59 -55.5t-96 -22.5zM112 -239q23 17 36 38.5t13 39.5q0 22 -43 65v1l90 57q21 -12 34.5 -31.5t13.5 -39.5q0 -38 -44 -76t-97 -59z" />
    <glyph glyph-name="uni0237" unicode="&#x237;" horiz-adv-x="280" 
d="M-23 -238q84 44 84 174v365q0 86 -50 145v4l211 58l-5 -473q-2 -125 -68 -195.5t-170 -83.5z" />
    <glyph glyph-name="circumflex" unicode="&#x2c6;" horiz-adv-x="398" 
d="M200 608l-141 -68l-9 11l145 181h9l144 -181l-8 -11z" />
    <glyph glyph-name="caron" unicode="&#x2c7;" horiz-adv-x="398" 
d="M25 722l8 10l141 -68l140 68l9 -10l-145 -182h-9z" />
    <glyph glyph-name="breve" unicode="&#x2d8;" 
d="M200 646q91 0 119 65h13q-2 -23 -9 -45t-21.5 -46t-41 -39t-61.5 -15t-61.5 15t-40 38.5t-20.5 46.5t-8 45h13q26 -65 118 -65z" />
    <glyph glyph-name="dotaccent" unicode="&#x2d9;" 
d="M282 655q0 -35 -24.5 -59t-59.5 -24q-34 0 -57.5 24t-23.5 59q0 34 23.5 58t57.5 24q35 0 59.5 -24t24.5 -58z" />
    <glyph glyph-name="ring" unicode="&#x2da;" horiz-adv-x="300" 
d="M57 652q0 39 26.5 64.5t66.5 25.5q41 0 67 -25t26 -65q0 -38 -27 -62.5t-66 -24.5t-66 24.5t-27 62.5zM102 652q0 -32 13 -49.5t35 -17.5t35 17.5t13 49.5q0 33 -13 51.5t-35 18.5t-35 -18.5t-13 -51.5z" />
    <glyph glyph-name="ogonek" unicode="&#x2db;" horiz-adv-x="300" 
d="M207 1q-72 -62 -72 -116q0 -26 14 -40.5t39 -14.5q35 0 64 33l9 -7q-49 -104 -136 -104q-43 0 -69.5 24t-26.5 64q0 45 34 81t105 80h39z" />
    <glyph glyph-name="tilde" unicode="&#x2dc;" 
d="M137 694q23 0 70 -17.5t71 -17.5q50 0 63 47l14 -2q0 -55 -21.5 -96t-71.5 -41q-22 0 -69 17.5t-72 17.5q-50 0 -63 -47l-14 2q0 54 22 95.5t71 41.5z" />
    <glyph glyph-name="hungarumlaut" unicode="&#x2dd;" 
d="M274 729l94 -93l-173 -99l-10 10zM109 729l94 -93l-173 -99l-9 10z" />
    <glyph glyph-name="Wgrave" unicode="&#x1e80;" horiz-adv-x="1065" 
d="M267 -3l-174 551q-42 132 -89 182v2h306v-2q-59 -68 -17 -200l108 -345l120 335l-9 28q-43 133 -89 182v2h306v-2q-59 -70 -18 -200l110 -337l100 315q51 157 -40 222v2h180v-2q-57 -54 -100 -189l-174 -544h-93l-159 481l-174 -481h-94zM695 782l-280 54l52 123
l234 -164z" />
    <glyph glyph-name="wgrave" unicode="&#x1e81;" horiz-adv-x="742" 
d="M64 335q-38 104 -76 150v2h249v-2q-14 -18 -15.5 -60t13.5 -89l50 -153l68 169q-23 62 -36 88.5t-31 44.5v2h245v-2q-13 -18 -14.5 -58.5t12.5 -90.5l43 -138l50 129q15 35 16 69.5t-7 56t-19 32.5v2h128v-2q-30 -33 -50 -63.5t-43 -87.5l-133 -341h-38l-112 328
l-136 -328h-38zM447 531l-224 122l91 96l142 -209z" />
    <glyph glyph-name="Wacute" unicode="&#x1e82;" horiz-adv-x="1065" 
d="M267 -3l-174 551q-42 132 -89 182v2h306v-2q-59 -68 -17 -200l108 -345l120 335l-9 28q-43 133 -89 182v2h306v-2q-59 -70 -18 -200l110 -337l100 315q51 157 -40 222v2h180v-2q-57 -54 -100 -189l-174 -544h-93l-159 481l-174 -481h-94zM668 959l53 -123l-279 -54l-6 13
z" />
    <glyph glyph-name="wacute" unicode="&#x1e83;" horiz-adv-x="742" 
d="M64 335q-38 104 -76 150v2h249v-2q-14 -18 -15.5 -60t13.5 -89l50 -153l68 169q-23 62 -36 88.5t-31 44.5v2h245v-2q-13 -18 -14.5 -58.5t12.5 -90.5l43 -138l50 129q15 35 16 69.5t-7 56t-19 32.5v2h128v-2q-30 -33 -50 -63.5t-43 -87.5l-133 -341h-38l-112 328
l-136 -328h-38zM440 749l89 -96l-223 -119l-9 9z" />
    <glyph glyph-name="Wdieresis" unicode="&#x1e84;" horiz-adv-x="1065" 
d="M267 -3l-174 551q-42 132 -89 182v2h306v-2q-59 -68 -17 -200l108 -345l120 335l-9 28q-43 133 -89 182v2h306v-2q-59 -70 -18 -200l110 -337l100 315q51 157 -40 222v2h180v-2q-57 -54 -100 -189l-174 -544h-93l-159 481l-174 -481h-94zM773 868q0 -35 -24.5 -58.5
t-59.5 -23.5t-58 23.5t-23 58.5q0 34 23 58t58 24t59.5 -24t24.5 -58zM527 868q0 -35 -24.5 -58.5t-59.5 -23.5t-58 23.5t-23 58.5q0 34 23 58t58 24t59.5 -24t24.5 -58z" />
    <glyph glyph-name="wdieresis" unicode="&#x1e85;" horiz-adv-x="742" 
d="M64 335q-38 104 -76 150v2h249v-2q-14 -18 -15.5 -60t13.5 -89l50 -153l68 169q-23 62 -36 88.5t-31 44.5v2h245v-2q-13 -18 -14.5 -58.5t12.5 -90.5l43 -138l50 129q15 35 16 69.5t-7 56t-19 32.5v2h128v-2q-30 -33 -50 -63.5t-43 -87.5l-133 -341h-38l-112 328
l-136 -328h-38zM567 655q0 -35 -24.5 -59t-59.5 -24t-58 24t-23 59q0 34 23 58t58 24t59.5 -24t24.5 -58zM347 655q0 -35 -24.5 -59t-59.5 -24q-34 0 -57.5 24t-23.5 59q0 34 23.5 58t57.5 24q35 0 59.5 -24t24.5 -58z" />
    <glyph glyph-name="Ygrave" unicode="&#x1ef2;" horiz-adv-x="660" 
d="M190 2q23 48 32 84t9 95v170l-116 213q-39 73 -62.5 107.5t-53.5 57.5v3h318v-3q-25 -21 -30 -65.5t24 -107.5l91 -167l79 141q66 118 -27 200v2h208v-2q-43 -33 -73.5 -73.5t-66.5 -104.5l-112 -201v-170q0 -59 8.5 -95t31.5 -84v-2h-260v2zM488 782l-280 54l52 123
l234 -164z" />
    <glyph glyph-name="ygrave" unicode="&#x1ef3;" horiz-adv-x="480" 
d="M19 -93q145 -13 191 65l-146 363q-50 121 -76 150v2h245v-2q-15 -19 -16.5 -61.5t17.5 -94.5l60 -156l66 158q14 34 14.5 66.5t-6.5 53.5t-18 34v2h128v-2q-29 -32 -49 -63t-44 -88l-135 -323q-29 -69 -55.5 -112.5t-57 -67.5t-53.5 -34t-65 -22v132zM344 531l-224 122
l91 96l142 -209z" />
    <glyph glyph-name="endash" unicode="&#x2013;" horiz-adv-x="537" 
d="M23 269v24h490v-24h-490z" />
    <glyph glyph-name="emdash" unicode="&#x2014;" horiz-adv-x="820" 
d="M23 269v24h773v-24h-773z" />
    <glyph glyph-name="quoteleft" unicode="&#x2018;" horiz-adv-x="246" 
d="M211 744q-28 -18 -46.5 -43.5t-18.5 -48.5q0 -33 51 -80v-3l-99 -77q-24 15 -39.5 39.5t-15.5 50.5q0 51 48.5 99t113.5 74z" />
    <glyph glyph-name="quoteright" unicode="&#x2019;" horiz-adv-x="246" 
d="M35 503q28 18 46.5 43.5t18.5 48.5q0 33 -51 80v3l99 77q24 -15 39.5 -39.5t15.5 -50.5q0 -51 -48.5 -99t-113.5 -74z" />
    <glyph glyph-name="quotesinglbase" unicode="&#x201a;" horiz-adv-x="246" 
d="M35 -90q28 18 46.5 43.5t18.5 48.5q0 33 -51 80v3l99 77q24 -15 39.5 -39.5t15.5 -50.5q0 -51 -48.5 -99t-113.5 -74z" />
    <glyph glyph-name="quotedblleft" unicode="&#x201c;" horiz-adv-x="428" 
d="M211 744q-29 -19 -47 -43.5t-18 -47.5q0 -34 51 -81v-3l-99 -77q-24 15 -39 39.5t-15 50.5q0 51 49 100.5t112 72.5zM393 744q-29 -19 -47.5 -43.5t-18.5 -47.5q0 -32 51 -81v-3l-98 -77q-24 16 -39.5 40t-15.5 50q0 51 49 100.5t113 72.5z" />
    <glyph glyph-name="quotedblright" unicode="&#x201d;" horiz-adv-x="428" 
d="M217 503q28 18 46.5 43.5t18.5 48.5q0 33 -51 80v3l98 77q24 -14 39.5 -39t15.5 -51q0 -51 -48 -99t-113 -74zM35 503q28 18 46.5 43.5t18.5 48.5q0 33 -51 80v3l99 77q24 -15 39.5 -39.5t15.5 -50.5q0 -51 -48.5 -99t-113.5 -74z" />
    <glyph glyph-name="quotedblbase" unicode="&#x201e;" horiz-adv-x="428" 
d="M35 -90q28 18 46.5 43.5t18.5 48.5q0 33 -51 80v3l99 77q24 -15 39.5 -39.5t15.5 -50.5q0 -51 -48.5 -99t-113.5 -74zM217 -90q28 18 46.5 43.5t18.5 48.5q0 33 -51 80v3l99 77q24 -15 39.5 -39.5t15.5 -50.5q0 -51 -48.5 -99t-113.5 -74z" />
    <glyph glyph-name="dagger" unicode="&#x2020;" horiz-adv-x="424" 
d="M222 0h-20l-71 262l67 247l-175 -63v155l174 -62l-71 193h172l-71 -193l174 62v-155l-175 63l67 -247z" />
    <glyph glyph-name="daggerdbl" unicode="&#x2021;" horiz-adv-x="424" 
d="M227 193l71 -193h-172l71 193l-174 -62v155l172 -62l-58 142l58 142l-172 -62v155l174 -62l-71 193h172l-71 -193l174 62v-155l-172 62l58 -142l-58 -142l172 62v-155z" />
    <glyph glyph-name="bullet" unicode="&#x2022;" horiz-adv-x="319" 
d="M159 181q-44 0 -74 31t-30 73q0 45 30 75.5t74 30.5q43 0 74 -30.5t31 -75.5q0 -41 -31 -72.5t-74 -31.5z" />
    <glyph glyph-name="ellipsis" unicode="&#x2026;" horiz-adv-x="776" 
d="M125 -5q-35 0 -59.5 24.5t-24.5 59.5t24.5 59.5t59.5 24.5t59.5 -24.5t24.5 -59.5t-24.5 -59.5t-59.5 -24.5zM388 -5q-35 0 -59.5 24.5t-24.5 59.5t24.5 59.5t59.5 24.5t59.5 -24.5t24.5 -59.5t-24.5 -59.5t-59.5 -24.5zM651 -5q-35 0 -59.5 24.5t-24.5 59.5t24.5 59.5
t59.5 24.5t59.5 -24.5t24.5 -59.5t-24.5 -59.5t-59.5 -24.5z" />
    <glyph glyph-name="perthousand" unicode="&#x2030;" horiz-adv-x="1245" 
d="M211 326q-76 0 -131 61t-55 150t55 150t131 61q77 0 134.5 -61t57.5 -150q0 -88 -58 -149.5t-134 -61.5zM211 345q57 0 57 192t-57 192q-30 0 -40.5 -48.5t-10.5 -143.5q0 -94 10.5 -143t40.5 -49zM609 -8q-76 0 -131 61t-55 150t55 149.5t131 60.5q77 0 134.5 -61
t57.5 -149t-58 -149.5t-134 -61.5zM1027 -8q-76 0 -131 61t-55 150t55 149.5t131 60.5q77 0 135 -61t58 -149t-58 -149.5t-135 -61.5zM609 10q56 0 56 193q0 192 -56 192q-31 0 -41.5 -49t-10.5 -143q0 -93 11 -143t41 -50zM1027 10q57 0 57 193q0 192 -57 192
q-30 0 -40.5 -48.5t-10.5 -143.5q0 -94 10.5 -143.5t40.5 -49.5zM145 17l520 726l21 -15l-520 -727z" />
    <glyph glyph-name="guilsinglleft" unicode="&#x2039;" horiz-adv-x="276" 
d="M204 52l-164 175v20l164 175l8 -6l-73 -179l73 -179z" />
    <glyph glyph-name="guilsinglright" unicode="&#x203a;" horiz-adv-x="276" 
d="M64 58l73 179l-73 179l8 6l164 -175v-20l-164 -175z" />
    <glyph glyph-name="fraction" unicode="&#x2044;" horiz-adv-x="266" 
d="M-138 17l520 726l21 -15l-520 -727z" />
    <glyph glyph-name="Euro" unicode="&#x20ac;" horiz-adv-x="717" 
d="M661 60q-15 -13 -40 -28t-76.5 -31t-106.5 -16q-139 0 -239 84t-122 219h-80v23h76q-2 30 -2 46q0 29 5 64h-79v23h83q27 132 128 217.5t238 85.5q100 0 211 -37l20 -184l-11 -3q-70 114 -117.5 157.5t-107.5 43.5q-155 0 -173 -280h193v-23h-195q-1 -11 -1 -32v-56
q0 -15 1 -22h195v-23h-194q9 -134 53.5 -207t118.5 -73q30 0 56.5 12.5t47 31t44 55t40 68t43.5 85.5l11 -3z" />
    <glyph glyph-name="trademark" unicode="&#x2122;" horiz-adv-x="790" 
d="M247 403h-137v2q18 44 18 93v219l-13 -1q-34 -4 -101 -113l-7 2l22 127h298l22 -127l-7 -2q-73 110 -100 113l-13 1v-219q0 -55 18 -93v-2zM463 403h-93v2q21 25 28.5 44.5t7.5 51.5v153q0 24 -8 38.5t-31 37.5v2h132l76 -189l81 189h127v-2q-22 -21 -30 -37t-8 -45v-150
q0 -49 18 -93v-2h-137v2q18 44 18 93v160l-105 -245h-13l-101 244v-156q0 -31 8 -50t30 -46v-2z" />
    <glyph glyph-name="onethird" unicode="&#x2153;" horiz-adv-x="728" 
d="M37 334v2q18 21 23.5 38t5.5 47v228h-49v10q103 33 172 92h5v-330q0 -30 5.5 -46.5t22.5 -38.5v-2h-185zM68 17l520 726l21 -15l-520 -727zM529 -8q-79 0 -119 25l-12 98l10 3q26 -41 38.5 -59t31.5 -33.5t38 -15.5q28 0 45.5 28.5t17.5 78.5q0 99 -68 99q-26 0 -64 -22
l-7 10l126 103h-151l28 93h260v-5l-200 -163q25 5 45 5q62 0 109 -30t47 -90q0 -59 -48 -92t-127 -33z" />
    <glyph glyph-name="twothirds" unicode="&#x2154;" horiz-adv-x="789" 
d="M10 334v5q92 98 130.5 169.5t38.5 140.5q0 83 -38 83q-21 0 -52 -34.5t-52 -85.5l-8 2l14 115q45 18 104 18q80 0 120.5 -30.5t40.5 -78.5q0 -52 -49 -100.5t-156 -111.5h109q65 0 104 60l7 -2l-41 -150h-272zM129 17l520 726l21 -15l-520 -727zM590 -8q-79 0 -119 25
l-12 98l10 3q26 -41 38.5 -59t31.5 -33.5t38 -15.5q28 0 45.5 28.5t17.5 78.5q0 99 -68 99q-26 0 -64 -22l-7 10l126 103h-151l28 93h260v-5l-200 -163q25 5 45 5q62 0 109 -30t47 -90q0 -59 -48 -92t-127 -33z" />
    <glyph glyph-name="oneeighth" unicode="&#x215b;" horiz-adv-x="729" 
d="M37 334v2q18 21 23.5 38t5.5 47v228h-49v10q103 33 172 92h5v-330q0 -30 5.5 -46.5t22.5 -38.5v-2h-185zM65 17l520 726l21 -15l-520 -727zM528 -8q-73 0 -117 27.5t-44 74.5q0 66 85 90q-68 43 -68 107q0 57 40.5 89.5t111.5 32.5q66 0 107.5 -26t41.5 -65
q0 -55 -84 -76q101 -56 101 -131q0 -57 -48.5 -90t-125.5 -33zM526 10q32 0 50.5 16.5t18.5 43.5q0 30 -25 49.5t-84 46.5l-22 11q-22 -28 -22 -71q0 -45 22 -70.5t62 -25.5zM590 252q21 27 21 66q0 37 -19 58.5t-51 21.5q-28 0 -44 -15t-16 -39q0 -26 19.5 -43.5
t70.5 -39.5z" />
    <glyph glyph-name="threeeighths" unicode="&#x215c;" horiz-adv-x="783" 
d="M154 326q-79 0 -119 25l-12 98l10 3q26 -41 38.5 -59t31.5 -33.5t38 -15.5q28 0 45.5 28.5t17.5 78.5q0 99 -68 99q-26 0 -64 -22l-7 10l126 103h-151l28 93h260v-5l-200 -163q25 5 45 5q62 0 109 -30t47 -90q0 -59 -48 -92t-127 -33zM119 17l520 726l21 -15l-520 -727z
M583 -8q-73 0 -117 27.5t-44 74.5q0 66 85 90q-68 43 -68 107q0 57 40.5 89.5t111.5 32.5q66 0 107.5 -26t41.5 -65q0 -55 -84 -76q101 -56 101 -131q0 -57 -48.5 -90t-125.5 -33zM581 10q32 0 50.5 16.5t18.5 43.5q0 30 -25 49.5t-84 46.5l-22 11q-22 -28 -22 -71
q0 -45 22 -70.5t62 -25.5zM645 252q21 27 21 66q0 37 -19 58.5t-51 21.5q-28 0 -44 -15t-16 -39q0 -26 19.5 -43.5t70.5 -39.5z" />
    <glyph glyph-name="fiveeighths" unicode="&#x215d;" horiz-adv-x="767" 
d="M138 326q-63 0 -103 23l-14 101l10 3q22 -38 34.5 -57t31.5 -35.5t37 -16.5q26 0 40 29t14 76q0 108 -80 108q-28 0 -54 -15l-8 5l31 187h229l-18 -92h-210l-13 -79q34 19 84 19q64 0 114 -30.5t50 -93.5q0 -64 -53.5 -98t-121.5 -34zM103 17l520 726l21 -15l-520 -727z
M566 -8q-73 0 -117 27.5t-44 74.5q0 66 85 90q-68 43 -68 107q0 57 40.5 89.5t111.5 32.5q66 0 107.5 -26t41.5 -65q0 -55 -84 -76q101 -56 101 -131q0 -57 -48.5 -90t-125.5 -33zM564 10q32 0 50.5 16.5t18.5 43.5q0 30 -25 49.5t-84 46.5l-22 11q-22 -28 -22 -71
q0 -45 22 -70.5t62 -25.5zM628 252q21 27 21 66q0 37 -19 58.5t-51 21.5q-28 0 -44 -15t-16 -39q0 -26 19.5 -43.5t70.5 -39.5z" />
    <glyph glyph-name="seveneighths" unicode="&#x215e;" horiz-adv-x="699" 
d="M44 334q53 144 209 294h-225l20 106h274v-5q-120 -204 -149 -395h-129zM35 17l520 726l21 -15l-520 -727zM498 -8q-73 0 -117 27.5t-44 74.5q0 66 85 90q-68 43 -68 107q0 57 40.5 89.5t111.5 32.5q66 0 107.5 -26t41.5 -65q0 -55 -84 -76q101 -56 101 -131
q0 -57 -48.5 -90t-125.5 -33zM496 10q32 0 50.5 16.5t18.5 43.5q0 30 -25 49.5t-84 46.5l-22 11q-22 -28 -22 -71q0 -45 22 -70.5t62 -25.5zM560 252q21 27 21 66q0 37 -19 58.5t-51 21.5q-28 0 -44 -15t-16 -39q0 -26 19.5 -43.5t70.5 -39.5z" />
    <glyph glyph-name="minus" unicode="&#x2212;" horiz-adv-x="532" 
d="M45 296v24h442v-24h-442z" />
    <glyph glyph-name="uni24C5" unicode="&#x24c5;" horiz-adv-x="810" 
d="M23 366q0 159 111 269.5t270 110.5t270.5 -110.5t111.5 -269.5t-111.5 -270t-270.5 -111t-270 111t-111 270zM52 366q0 -148 103 -252.5t249 -104.5q147 0 250 104.5t103 252.5t-103 252t-250 104q-146 0 -249 -104t-103 -252zM263 155q22 56 22 115v171q0 59 -22 114v2
h166q163 0 163 -111q0 -57 -42.5 -92.5t-131.5 -35.5h-30v-48q0 -58 23 -115v-2h-148v2zM388 538v-202h16q42 0 62.5 34t20.5 76q0 92 -83 92h-16z" />
    <glyph glyph-name="idotaccent" horiz-adv-x="285" 
d="M218 655q0 -36 -26 -61.5t-62 -25.5t-61 25.5t-25 61.5q0 35 25 60.5t61 25.5t62 -25.5t26 -60.5zM40 2q25 94 25 174v112q0 97 -51 158v4l211 58v-332q0 -102 24 -174v-2h-209v2z" />
    <glyph glyph-name="space_uni0326" horiz-adv-x="300" 
d="M75 -239q23 17 36 38.5t13 39.5q0 22 -43 65v1l90 57q21 -12 34.5 -31.5t13.5 -39.5q0 -38 -44 -76t-97 -59z" />
    <glyph glyph-name="five.num" horiz-adv-x="318" 
d="M130 326q-63 0 -103 23l-14 101l10 3q22 -38 34.5 -57t31.5 -35.5t37 -16.5q26 0 40 29t14 76q0 108 -80 108q-28 0 -54 -15l-8 5l31 187h229l-18 -92h-210l-13 -79q34 19 84 19q64 0 114 -30.5t50 -93.5q0 -64 -53.5 -98t-121.5 -34z" />
    <glyph glyph-name="zero.num" horiz-adv-x="412" 
d="M203 326q-76 0 -131 61t-55 150t55 149.5t131 60.5q77 0 134.5 -61t57.5 -149t-58 -149.5t-134 -61.5zM203 344q56 0 56 193q0 192 -56 192q-30 0 -40.5 -48.5t-10.5 -143.5q0 -94 10.5 -143.5t40.5 -49.5z" />
    <glyph glyph-name="one.num" horiz-adv-x="236" 
d="M29 334v2q18 21 23.5 38t5.5 47v228h-49v10q103 33 172 92h5v-330q0 -30 5.5 -46.5t22.5 -38.5v-2h-185z" />
    <glyph glyph-name="two.num" horiz-adv-x="334" 
d="M2 334v5q92 98 130.5 169.5t38.5 140.5q0 83 -38 83q-21 0 -52 -34.5t-52 -85.5l-8 2l14 115q45 18 104 18q80 0 120.5 -30.5t40.5 -78.5q0 -52 -49 -100.5t-156 -111.5h109q65 0 104 60l7 -2l-41 -150h-272z" />
    <glyph glyph-name="three.num" horiz-adv-x="337" 
d="M146 326q-79 0 -119 25l-12 98l10 3q26 -41 38.5 -59t31.5 -33.5t38 -15.5q28 0 45.5 28.5t17.5 78.5q0 99 -68 99q-26 0 -64 -22l-7 10l126 103h-151l28 93h260v-5l-200 -163q25 5 45 5q62 0 109 -30t47 -90q0 -59 -48 -92t-127 -33z" />
    <glyph glyph-name="four.num" horiz-adv-x="359" 
d="M135 336q22 38 22 85v13h-150v5l169 295h155l-300 -283h126v100h134v-100h56l-5 -17h-51v-13q0 -51 22 -85v-2h-178v2z" />
    <glyph glyph-name="six.num" horiz-adv-x="372" 
d="M186 326q-77 0 -123 49t-46 121q0 36 12.5 70.5t41 71t85.5 66t137 43.5l2 -11q-112 -30 -143 -170q20 37 75 37q53 0 92 -36t39 -94q0 -64 -50.5 -105.5t-121.5 -41.5zM191 344q41 0 41 111q0 110 -42 110q-33 0 -44 -34q-4 -31 -4 -63q0 -124 49 -124z" />
    <glyph glyph-name="seven.num" horiz-adv-x="303" 
d="M36 334q53 144 209 294h-225l20 106h274v-5q-120 -204 -149 -395h-129z" />
    <glyph glyph-name="eight.num" horiz-adv-x="364" 
d="M172 326q-73 0 -117 27.5t-44 74.5q0 66 85 90q-68 42 -68 107q0 57 40.5 89.5t111.5 32.5q66 0 107.5 -26t41.5 -65q0 -55 -84 -76q101 -56 101 -131q0 -57 -48.5 -90t-125.5 -33zM170 344q32 0 50.5 16.5t18.5 43.5q0 30 -25 49.5t-84 46.5l-22 11q-22 -28 -22 -71
q0 -45 22 -70.5t62 -25.5zM234 586q21 27 21 66q0 37 -19 58.5t-51 21.5q-28 0 -44 -15t-16 -39q0 -26 19.5 -43.5t70.5 -39.5z" />
    <glyph glyph-name="nine.num" horiz-adv-x="372" 
d="M77 337q113 30 144 170q-20 -37 -76 -37q-53 0 -92 36t-39 94q0 64 50.5 105.5t121.5 41.5q77 0 123 -49t46 -121q0 -36 -12.5 -70.5t-41 -71.5t-85.5 -66t-137 -43zM182 508q32 0 44 34q4 31 4 63q0 124 -49 124q-41 0 -41 -111q0 -110 42 -110z" />
    <glyph glyph-name="five.den" horiz-adv-x="318" 
d="M130 -8q-63 0 -103 23l-14 101l10 3q22 -38 34.5 -57t31.5 -35.5t37 -16.5q26 0 40 29t14 76q0 108 -80 108q-28 0 -54 -15l-8 5l31 187h229l-18 -92h-210l-13 -79q34 19 84 19q64 0 114 -30.5t50 -93.5q0 -64 -53.5 -98t-121.5 -34z" />
    <glyph glyph-name="zero.den" horiz-adv-x="412" 
d="M203 -8q-76 0 -131 61t-55 150t55 149.5t131 60.5q77 0 134.5 -61t57.5 -149t-58 -149.5t-134 -61.5zM203 10q56 0 56 193q0 192 -56 192q-30 0 -40.5 -48.5t-10.5 -143.5q0 -94 10.5 -143.5t40.5 -49.5z" />
    <glyph glyph-name="one.den" horiz-adv-x="236" 
d="M29 0v2q18 21 23.5 38t5.5 47v228h-49v10q103 33 172 92h5v-330q0 -30 5.5 -46.5t22.5 -38.5v-2h-185z" />
    <glyph glyph-name="two.den" horiz-adv-x="334" 
d="M2 0v5q92 98 130.5 169.5t38.5 140.5q0 83 -38 83q-21 0 -52 -34.5t-52 -85.5l-8 2l14 115q45 18 104 18q80 0 120.5 -30.5t40.5 -78.5q0 -52 -49 -100.5t-156 -111.5h109q65 0 104 60l7 -2l-41 -150h-272z" />
    <glyph glyph-name="three.den" horiz-adv-x="337" 
d="M146 -8q-79 0 -119 25l-12 98l10 3q26 -41 38.5 -59t31.5 -33.5t38 -15.5q28 0 45.5 28.5t17.5 78.5q0 99 -68 99q-26 0 -64 -22l-7 10l126 103h-151l28 93h260v-5l-200 -163q25 5 45 5q62 0 109 -30t47 -90q0 -59 -48 -92t-127 -33z" />
    <glyph glyph-name="four.den" horiz-adv-x="359" 
d="M135 2q22 38 22 85v13h-150v5l169 295h155l-300 -283h126v100h134v-100h56l-5 -17h-51v-13q0 -51 22 -85v-2h-178v2z" />
    <glyph glyph-name="six.den" horiz-adv-x="372" 
d="M186 -8q-77 0 -123 49t-46 121q0 36 12.5 70.5t41 71t85.5 66t137 43.5l2 -11q-112 -30 -143 -170q20 37 75 37q53 0 92 -36t39 -94q0 -64 -50.5 -105.5t-121.5 -41.5zM191 10q41 0 41 111q0 110 -42 110q-33 0 -44 -34q-4 -31 -4 -63q0 -124 49 -124z" />
    <glyph glyph-name="seven.den" horiz-adv-x="303" 
d="M36 0q53 144 209 294h-225l20 106h274v-5q-120 -204 -149 -395h-129z" />
    <glyph glyph-name="eight.den" horiz-adv-x="364" 
d="M172 -8q-73 0 -117 27.5t-44 74.5q0 66 85 90q-68 42 -68 107q0 57 40.5 89.5t111.5 32.5q66 0 107.5 -26t41.5 -65q0 -55 -84 -76q101 -56 101 -131q0 -57 -48.5 -90t-125.5 -33zM170 10q32 0 50.5 16.5t18.5 43.5q0 30 -25 49.5t-84 46.5l-22 11q-22 -28 -22 -71
q0 -45 22 -70.5t62 -25.5zM234 252q21 27 21 66q0 37 -19 58.5t-51 21.5q-28 0 -44 -15t-16 -39q0 -26 19.5 -43.5t70.5 -39.5z" />
    <glyph glyph-name="nine.den" horiz-adv-x="372" 
d="M77 3q113 30 144 170q-20 -37 -76 -37q-53 0 -92 36t-39 94q0 64 50.5 105.5t121.5 41.5q77 0 123 -49t46 -121q0 -36 -12.5 -70.5t-41 -71.5t-85.5 -66t-137 -43zM182 174q32 0 44 34q4 31 4 63q0 124 -49 124q-41 0 -41 -111q0 -110 42 -110z" />
    <glyph glyph-name="five.sub" horiz-adv-x="318" 
d="M130 -88q-63 0 -103 23l-14 101l10 3q22 -38 34.5 -57t31.5 -35.5t37 -16.5q26 0 40 29t14 76q0 108 -80 108q-28 0 -54 -15l-8 5l31 187h229l-18 -92h-210l-13 -79q34 19 84 19q64 0 114 -30.5t50 -93.5q0 -64 -53.5 -98t-121.5 -34z" />
    <glyph glyph-name="zero.sub" horiz-adv-x="412" 
d="M203 -88q-76 0 -131 61t-55 150t55 149.5t131 60.5q77 0 134.5 -61t57.5 -149t-58 -149.5t-134 -61.5zM203 -70q56 0 56 193q0 192 -56 192q-30 0 -40.5 -48.5t-10.5 -143.5q0 -94 10.5 -143.5t40.5 -49.5z" />
    <glyph glyph-name="one.sub" horiz-adv-x="236" 
d="M29 -80v2q18 21 23.5 38t5.5 47v228h-49v10q103 33 172 92h5v-330q0 -30 5.5 -46.5t22.5 -38.5v-2h-185z" />
    <glyph glyph-name="two.sub" horiz-adv-x="334" 
d="M2 -80v5q92 98 130.5 169.5t38.5 140.5q0 83 -38 83q-21 0 -52 -34.5t-52 -85.5l-8 2l14 115q45 18 104 18q80 0 120.5 -30.5t40.5 -78.5q0 -52 -49 -100.5t-156 -111.5h109q65 0 104 60l7 -2l-41 -150h-272z" />
    <glyph glyph-name="three.sub" horiz-adv-x="337" 
d="M146 -88q-79 0 -119 25l-12 98l10 3q26 -41 38.5 -59t31.5 -33.5t38 -15.5q28 0 45.5 28.5t17.5 78.5q0 99 -68 99q-26 0 -64 -22l-7 10l126 103h-151l28 93h260v-5l-200 -163q25 5 45 5q62 0 109 -30t47 -90q0 -59 -48 -92t-127 -33z" />
    <glyph glyph-name="four.sub" horiz-adv-x="359" 
d="M135 -78q22 38 22 85v13h-150v5l169 295h155l-300 -283h126v100h134v-100h56l-5 -17h-51v-13q0 -51 22 -85v-2h-178v2z" />
    <glyph glyph-name="six.sub" horiz-adv-x="372" 
d="M186 -88q-77 0 -123 49t-46 121q0 36 12.5 70.5t41 71t85.5 66t137 43.5l2 -11q-112 -30 -143 -170q20 37 75 37q53 0 92 -36t39 -94q0 -64 -50.5 -105.5t-121.5 -41.5zM191 -70q41 0 41 111q0 110 -42 110q-33 0 -44 -34q-4 -31 -4 -63q0 -124 49 -124z" />
    <glyph glyph-name="seven.sub" horiz-adv-x="303" 
d="M36 -80q53 144 209 294h-225l20 106h274v-5q-120 -204 -149 -395h-129z" />
    <glyph glyph-name="eight.sub" horiz-adv-x="364" 
d="M172 -88q-73 0 -117 27.5t-44 74.5q0 66 85 90q-68 43 -68 107q0 57 40.5 89.5t111.5 32.5q66 0 107.5 -26t41.5 -65q0 -55 -84 -76q101 -56 101 -131q0 -57 -48.5 -90t-125.5 -33zM170 -70q32 0 50.5 16.5t18.5 43.5q0 30 -25 49.5t-84 46.5l-22 11q-22 -28 -22 -71
q0 -45 22 -70.5t62 -25.5zM234 172q21 27 21 66q0 37 -19 58.5t-51 21.5q-28 0 -44 -15t-16 -39q0 -26 19.5 -43.5t70.5 -39.5z" />
    <glyph glyph-name="nine.sub" horiz-adv-x="372" 
d="M186 312q77 0 123 -48.5t46 -120.5q0 -36 -12.5 -70.5t-41 -71t-85.5 -66t-137 -43.5l-2 11q112 30 143 170q-20 -37 -75 -37q-53 0 -92 36t-39 94q0 65 50.5 105.5t121.5 40.5zM181 295q-41 0 -41 -111q0 -110 42 -110q33 0 44 34q4 31 4 63q0 124 -49 124z" />
    <glyph glyph-name="plus.sub" horiz-adv-x="315" 
d="M167 106v-123h-20v123h-122v18h122v123h20v-123h123v-18h-123z" />
    <glyph glyph-name="minus.sub" horiz-adv-x="315" 
d="M25 106v18h265v-18h-265z" />
    <glyph glyph-name="five.sup" horiz-adv-x="318" 
d="M130 426q-63 0 -103 23l-14 101l10 3q22 -38 34.5 -57t31.5 -35.5t37 -16.5q26 0 40 29t14 76q0 108 -80 108q-28 0 -54 -15l-8 5l31 187h229l-18 -92h-210l-13 -79q34 19 84 19q64 0 114 -30.5t50 -93.5q0 -64 -53.5 -98t-121.5 -34z" />
    <glyph glyph-name="zero.sup" horiz-adv-x="412" 
d="M203 426q-76 0 -131 61t-55 150t55 149.5t131 60.5q77 0 134.5 -61t57.5 -149t-58 -149.5t-134 -61.5zM203 444q56 0 56 193q0 192 -56 192q-30 0 -40.5 -48.5t-10.5 -143.5q0 -94 10.5 -143.5t40.5 -49.5z" />
    <glyph glyph-name="one.sup" horiz-adv-x="236" 
d="M29 434v2q18 21 23.5 38t5.5 47v228h-49v10q103 33 172 92h5v-330q0 -30 5.5 -46.5t22.5 -38.5v-2h-185z" />
    <glyph glyph-name="two.sup" horiz-adv-x="334" 
d="M2 434v5q92 98 130.5 169.5t38.5 140.5q0 83 -38 83q-21 0 -52 -34.5t-52 -85.5l-8 2l14 115q45 18 104 18q80 0 120.5 -30.5t40.5 -78.5q0 -52 -49 -100.5t-156 -111.5h109q65 0 104 60l7 -2l-41 -150h-272z" />
    <glyph glyph-name="three.sup" horiz-adv-x="337" 
d="M146 426q-79 0 -119 25l-12 98l10 3q26 -41 38.5 -59t31.5 -33.5t38 -15.5q28 0 45.5 28.5t17.5 78.5q0 99 -68 99q-26 0 -64 -22l-7 10l126 103h-151l28 93h260v-5l-200 -163q25 5 45 5q62 0 109 -30t47 -90q0 -59 -48 -92t-127 -33z" />
    <glyph glyph-name="four.sup" horiz-adv-x="359" 
d="M135 436q22 38 22 85v13h-150v5l169 295h155l-300 -283h126v100h134v-100h56l-5 -17h-51v-13q0 -51 22 -85v-2h-178v2z" />
    <glyph glyph-name="six.sup" horiz-adv-x="372" 
d="M186 426q-77 0 -123 49t-46 121q0 36 12.5 70.5t41 71t85.5 66t137 43.5l2 -11q-112 -30 -143 -170q20 37 75 37q53 0 92 -36t39 -94q0 -64 -50.5 -105.5t-121.5 -41.5zM191 444q41 0 41 111q0 110 -42 110q-33 0 -44 -34q-4 -31 -4 -63q0 -124 49 -124z" />
    <glyph glyph-name="seven.sup" horiz-adv-x="303" 
d="M36 434q53 144 209 294h-225l20 106h274v-5q-120 -204 -149 -395h-129z" />
    <glyph glyph-name="eight.sup" horiz-adv-x="364" 
d="M172 426q-73 0 -117 27.5t-44 74.5q0 66 85 90q-68 42 -68 107q0 57 40.5 89.5t111.5 32.5q66 0 107.5 -26t41.5 -65q0 -55 -84 -76q101 -56 101 -131q0 -57 -48.5 -90t-125.5 -33zM170 444q32 0 50.5 16.5t18.5 43.5q0 30 -25 49.5t-84 46.5l-22 11q-22 -28 -22 -71
q0 -45 22 -70.5t62 -25.5zM234 686q21 27 21 66q0 37 -19 58.5t-51 21.5q-28 0 -44 -15t-16 -39q0 -26 19.5 -43.5t70.5 -39.5z" />
    <glyph glyph-name="nine.sup" horiz-adv-x="372" 
d="M77 437q113 30 144 170q-20 -37 -76 -37q-53 0 -92 36t-39 94q0 64 50.5 105.5t121.5 41.5q77 0 123 -49t46 -121q0 -36 -12.5 -70.5t-41 -71.5t-85.5 -66t-137 -43zM182 608q32 0 44 34q4 31 4 63q0 124 -49 124q-41 0 -41 -111q0 -110 42 -110z" />
    <glyph glyph-name="plus.sup" horiz-adv-x="315" 
d="M167 616v-123h-20v123h-122v18h122v123h20v-123h123v-18h-123z" />
    <glyph glyph-name="minus.sup" horiz-adv-x="315" 
d="M25 616v18h265v-18h-265z" />
    <glyph glyph-name="space_uni0326.alt" horiz-adv-x="300" 
d="M236 764q-23 -17 -36 -38.5t-13 -39.5q0 -22 43 -65v-1l-90 -57q-21 12 -34.5 31.5t-13.5 39.5q0 38 44 76t97 59z" />
    <glyph glyph-name="caron.alt" horiz-adv-x="398" 
d="M122 775h111l-109 -203l-14 2z" />
    <glyph glyph-name="space.uc" horiz-adv-x="191" 
 />
    <glyph glyph-name="questiondown.uc" horiz-adv-x="433" 
d="M313 473q-3 -42 -23 -81.5t-42 -66t-40.5 -71t-18.5 -97.5q0 -71 21 -111t55 -40q16 0 31.5 9.5t32 31.5t27.5 39.5t30 50.5q7 13 11 19l7 -2l-21 -145q-59 -24 -146 -24q-106 0 -164 39t-58 118q0 51 24.5 91t62 67.5t76.5 51.5t73 55t46 66h16zM293 737q36 0 61.5 -26
t25.5 -61q0 -36 -25.5 -61.5t-61.5 -25.5q-37 0 -62.5 25.5t-25.5 61.5q0 35 26 61t62 26z" />
    <glyph glyph-name="exclamdown.uc" horiz-adv-x="241" 
d="M209 0h-177v2l80 471h17l80 -471v-2zM120 737q36 0 62 -26t26 -61q0 -36 -25.5 -61.5t-62.5 -25.5q-36 0 -61 25.5t-25 61.5t25 61.5t61 25.5z" />
    <glyph glyph-name="hyphen.uc" horiz-adv-x="268" 
d="M23 322v89h221v-89h-221z" />
    <glyph glyph-name="endash.uc" horiz-adv-x="537" 
d="M23 352v24h490v-24h-490z" />
    <glyph glyph-name="emdash.uc" horiz-adv-x="820" 
d="M23 352v24h773v-24h-773z" />
    <glyph glyph-name="guilsinglleft.uc" horiz-adv-x="276" 
d="M214 138l-164 175v20l164 175l8 -6l-73 -179l73 -179z" />
    <glyph glyph-name="guilsinglright.uc" horiz-adv-x="276" 
d="M54 144l73 179l-73 179l8 6l164 -175v-20l-164 -175z" />
    <glyph glyph-name="guillemotleft.uc" horiz-adv-x="432" 
d="M371 138l-164 175v20l164 175l8 -6l-73 -179l73 -179zM214 138l-164 175v20l164 175l8 -6l-73 -179l73 -179z" />
    <glyph glyph-name="guillemotright.uc" horiz-adv-x="432" 
d="M210 144l73 179l-73 179l8 6l164 -175v-20l-164 -175zM54 144l73 179l-73 179l8 6l164 -175v-20l-164 -175z" />
    <glyph glyph-name="parenleft.uc" horiz-adv-x="346" 
d="M313 -90q-121 76 -189.5 189.5t-68.5 252.5t68.5 253t189.5 190l7 -10q-117 -163 -117 -433q0 -269 117 -432z" />
    <glyph glyph-name="parenright.uc" horiz-adv-x="346" 
d="M26 -80q117 163 117 432q0 270 -117 433l7 10q121 -76 189.5 -190t68.5 -253t-68.5 -252.5t-189.5 -189.5z" />
    <glyph glyph-name="bracketleft.uc" horiz-adv-x="373" 
d="M70 795h281v-22h-136v-841h136v-22h-281v885z" />
    <glyph glyph-name="bracketright.uc" horiz-adv-x="373" 
d="M303 -90h-281v22h136v841h-136v22h281v-885z" />
    <glyph glyph-name="braceleft.uc" horiz-adv-x="381" 
d="M329 -90q-116 0 -177.5 35t-61.5 102q0 44 39.5 114t39.5 101q0 37 -28.5 58t-78.5 21h-25v23h25q51 0 79 20.5t28 58.5q0 31 -39.5 100.5t-39.5 114.5q0 67 61.5 102t177.5 35h30v-22h-30q-43 0 -67.5 -19.5t-24.5 -78.5q0 -31 16 -91t16 -93q0 -68 -42.5 -99.5
t-120.5 -38.5v-1q78 -6 120 -38t42 -101q0 -34 -15.5 -93.5t-15.5 -89.5q0 -58 24.5 -78t67.5 -20h30v-22h-30z" />
    <glyph glyph-name="braceright.uc" horiz-adv-x="381" 
d="M22 -90v22h30q43 0 67.5 20t24.5 78q0 30 -15.5 89.5t-15.5 93.5q0 69 42 101t120 38v1q-78 7 -120.5 38.5t-42.5 99.5q0 33 16 93t16 91q0 59 -24.5 78.5t-67.5 19.5h-30v22h30q116 0 177.5 -35t61.5 -102q0 -45 -39.5 -114.5t-39.5 -100.5q0 -38 28 -58.5t79 -20.5h25
v-23h-25q-50 0 -78.5 -21t-28.5 -58q0 -31 39.5 -101t39.5 -114q0 -67 -61.5 -102t-177.5 -35h-30z" />
    <glyph glyph-name="slash.uc" horiz-adv-x="392" 
d="M368 824h31l-374 -914h-31z" />
    <glyph glyph-name="backslash.uc" horiz-adv-x="392" 
d="M367 -90l-374 914h31l374 -914h-31z" />
    <glyph glyph-name="bar.uc" horiz-adv-x="205" 
d="M89 -89v911h27v-911h-27z" />
    <glyph glyph-name="at.uc" horiz-adv-x="915" 
d="M449 -74q-185 0 -305.5 102t-120.5 279q0 194 142 331t352 137q171 0 273 -89.5t102 -243.5q0 -131 -74 -220.5t-187 -89.5q-64 0 -100.5 30.5t-42.5 79.5q-4 30 3 61l-27 -65q-53 -113 -134 -113q-46 0 -72.5 34.5t-26.5 99.5q0 55 18.5 110.5t54.5 105t96 80.5t135 31
q57 0 94 -14l66 14h6l-72 -275q-37 -149 43 -149q64 0 112 84.5t48 201.5q0 145 -86.5 226t-230.5 81q-94 0 -173 -37.5t-131 -100t-80.5 -143t-28.5 -168.5q0 -168 95 -264t256 -96q143 0 232 64l11 -16q-97 -68 -247 -68zM400 223q49 0 104 166l43 158q-8 20 -27 20
q-37 0 -71.5 -46t-54 -110.5t-19.5 -122.5q0 -65 25 -65z" />
    <glyph glyph-name="grave.uc" 
d="M327 782l-280 54l52 123l234 -164z" />
    <glyph glyph-name="dieresis.uc" 
d="M405 868q0 -35 -24.5 -58.5t-59.5 -23.5t-58 23.5t-23 58.5q0 34 23 58t58 24t59.5 -24t24.5 -58zM159 868q0 -35 -24.5 -58.5t-59.5 -23.5t-58 23.5t-23 58.5q0 34 23 58t58 24t59.5 -24t24.5 -58z" />
    <glyph glyph-name="macron.uc" 
d="M25 895h348v-67h-348v67z" />
    <glyph glyph-name="acute.uc" 
d="M286 959l53 -123l-279 -54l-6 13z" />
    <glyph glyph-name="circumflex.uc" 
d="M199 842l-155 -60l-8 11l159 163h9l159 -163l-9 -11z" />
    <glyph glyph-name="caron.uc" 
d="M169 782l-159 163l8 11l156 -60l155 60l8 -11l-159 -163h-9z" />
    <glyph glyph-name="breve.uc" horiz-adv-x="398" 
d="M200 883q103 0 135 68h13q-2 -24 -10 -47.5t-23.5 -48.5t-45 -40.5t-69.5 -15.5q-39 0 -69 15.5t-45.5 40.5t-23.5 49t-9 47h12q28 -68 135 -68z" />
    <glyph glyph-name="dotaccent.uc" 
d="M281 868q0 -34 -24 -58t-57 -24q-35 0 -58.5 24t-23.5 58t23.5 59t58.5 25q33 0 57 -25.5t24 -58.5z" />
    <glyph glyph-name="ring.uc" horiz-adv-x="300" 
d="M57 867q0 39 26.5 64t66.5 25q41 0 67 -24.5t26 -64.5q0 -38 -27 -63t-66 -25t-66 25t-27 63zM102 867q0 -32 13 -49.5t35 -17.5t35 17.5t13 49.5q0 33 -13 51t-35 18t-35 -18t-13 -51z" />
    <glyph glyph-name="tilde.uc" 
d="M122 916q31 0 83.5 -19t84.5 -19q60 0 71 50l14 -2q6 -140 -99 -140q-30 0 -82.5 19t-85.5 19q-59 0 -70 -51l-14 2q-6 141 98 141z" />
    <glyph glyph-name="hungarumlaut.uc" 
d="M344 956l65 -110l-206 -64l-7 9zM140 956l65 -110l-205 -64l-7 9z" />
    <glyph glyph-name="Cacute.pl" horiz-adv-x="768" 
d="M705 60q-20 -14 -49 -28.5t-90.5 -30.5t-126.5 -16q-175 0 -292.5 105t-117.5 267q0 164 119 277t299 113q117 0 254 -37l20 -184l-10 -3q-85 114 -141 157.5t-128 43.5q-220 0 -220 -367q0 -165 56.5 -257t161.5 -92q44 0 80.5 16.5t70.5 54.5t59.5 76t64.5 105l10 -3z
M451 965l100 -85l-161 -98l-9 6z" />
    <glyph glyph-name="Nacute.pl" horiz-adv-x="722" 
d="M108 605l4 -388q0 -69 16.5 -112t59.5 -103v-2h-180v2q43 61 58.5 102.5t15.5 112.5v355q-4 50 -20 83t-53 75v2h223l370 -465l-2 246q0 71 -16 114.5t-58 102.5v2h176v-2q-42 -62 -57.5 -103.5t-15.5 -111.5v-514l-34 -4zM412 965l100 -85l-161 -98l-9 6z" />
    <glyph glyph-name="Oacute.pl" horiz-adv-x="834" 
d="M417 -15q-165 0 -276.5 109t-111.5 271q0 161 112 271.5t276 110.5t276 -110.5t112 -271.5q0 -162 -112 -271t-276 -109zM417 8q99 0 146.5 96t47.5 261t-47 262t-147 97t-147.5 -97t-47.5 -262t47.5 -261t147.5 -96zM428 965l100 -85l-161 -98l-9 6z" />
    <glyph glyph-name="Sacute.pl" horiz-adv-x="585" 
d="M509 533l-11 -3q-60 99 -113.5 146.5t-109.5 47.5q-46 0 -75 -26.5t-29 -70.5q0 -27 10.5 -48t41.5 -42.5t45.5 -29.5t63.5 -31q15 -7 22 -11q46 -23 75 -42t61.5 -50t48.5 -72t16 -92q0 -115 -78 -169.5t-199 -54.5q-119 0 -218 45l-26 204l10 3q73 -121 134 -175
t128 -54q58 0 90.5 33t32.5 83q0 26 -11 48.5t-23 37t-42.5 33.5t-44 26.5t-54.5 27.5q-38 19 -61.5 32t-54 36t-47.5 45.5t-29.5 55.5t-12.5 72q0 107 78.5 158t196.5 51q83 0 158 -24zM299 965l100 -85l-161 -98l-9 6z" />
    <glyph glyph-name="Zacute.pl" horiz-adv-x="669" 
d="M15 0v8l417 704l-128 -7q-64 -2 -131.5 -60.5t-116.5 -126.5l-8 3l51 211h547v-8l-415 -704l153 7q65 2 136 69t124 147l8 -3l-53 -240h-584zM378 965l100 -85l-161 -98l-9 6z" />
    <glyph glyph-name="acute.pl" horiz-adv-x="300" 
d="M136 749l115 -70l-156 -137l-9 6z" />
    <glyph glyph-name="acute.ucpl" horiz-adv-x="300" 
d="M173 965l100 -85l-161 -98l-9 6z" />
    <glyph glyph-name="cacute.pl" horiz-adv-x="497" 
d="M471 136q-21 -71 -74.5 -111t-134.5 -40q-106 0 -171.5 67.5t-65.5 180.5q0 118 78 194t201 76q77 0 136 -24l15 -144l-10 -2q-96 150 -155 150q-44 0 -73.5 -50.5t-29.5 -134.5q0 -102 45.5 -151t117.5 -49q75 0 116 41zM274 749l115 -70l-156 -137l-9 6z" />
    <glyph glyph-name="divide.osf" horiz-adv-x="546" 
d="M52 231v24h442v-24h-442zM273 -5q-35 0 -59.5 24.5t-24.5 59.5t24.5 59.5t59.5 24.5t59.5 -24.5t24.5 -59.5t-24.5 -59.5t-59.5 -24.5zM273 321q-35 0 -59.5 24.5t-24.5 59.5t24.5 59.5t59.5 24.5t59.5 -24.5t24.5 -59.5t-24.5 -59.5t-59.5 -24.5z" />
    <glyph glyph-name="eight.osf" horiz-adv-x="508" 
d="M241 -10q-99 0 -161 49t-62 125q0 62 40 107.5t103 72.5q-57 38 -89 83t-32 113q0 95 62.5 151t158.5 56q88 0 147.5 -46t59.5 -108q0 -44 -35 -84t-105 -66q73 -44 117 -98.5t44 -135.5q0 -103 -71.5 -161t-176.5 -58zM247 11q49 0 77.5 36.5t28.5 89.5q0 33 -11 60
t-35.5 49t-45 35.5t-56.5 34.5l-24 15q-48 -65 -48 -159q0 -74 30.5 -117.5t83.5 -43.5zM291 465l20 -11q49 46 49 136q0 64 -26 100t-74 36q-44 0 -68.5 -29.5t-24.5 -75.5q0 -52 31.5 -85.5t92.5 -70.5z" />
    <glyph glyph-name="equal.osf" horiz-adv-x="532" 
d="M45 312v25h442v-25h-442zM45 169v25h442v-25h-442z" />
    <glyph glyph-name="f.short" horiz-adv-x="368" 
d="M49 2q31 65 31 155v308h-63v22h63v25q0 118 57.5 192t145.5 74q37 0 68 -11l13 -135l-6 -2q-71 130 -90 130q-27 0 -27 -178v-95h107v-22h-107v-308q0 -90 31 -155v-2h-223v2z" />
    <glyph glyph-name="f_f.short" horiz-adv-x="679" 
d="M49 2q31 65 31 155v308h-63v22h63v19q0 112 63.5 182t159.5 70q40 0 78 -11l11 -119l-6 -2q-7 10 -20.5 30t-22 32t-19 25.5t-19.5 20t-16 6.5q-19 0 -33.5 -46t-14.5 -118v-89h150v25q0 118 56 192t141 74q40 0 70 -11l14 -135l-6 -2q-71 130 -89 130q-25 0 -25 -178
v-95h107v-22h-107v-308q0 -90 31 -155v-2h-223v2q31 65 31 155v308h-150v-308q0 -90 31 -155v-2h-223v2z" />
    <glyph glyph-name="five.osf" horiz-adv-x="488" 
d="M168 -245q-56 0 -103 17t-67 33l-8 145l8 2q46 -90 86 -133t91 -43q54 0 86.5 42t32.5 110q0 180 -248 237l122 332h311l-46 -128h-289l-25 -67q146 -28 225 -104t79 -192q0 -115 -74 -183t-181 -68z" />
    <glyph glyph-name="four.osf" horiz-adv-x="522" 
d="M245 0h-238v10l399 497h8v-430h111l-18 -77h-93v-195h-169v195zM245 268l-153 -191h153v191z" />
    <glyph glyph-name="four.osfalt" horiz-adv-x="520" 
d="M258 0h-255v10l284 467h196l-449 -453h224v136h169v-136h93l-7 -24h-86v-195h-169v195z" />
    <glyph glyph-name="greater.osf" horiz-adv-x="530" 
d="M55 20v29l401 192l-401 192v29l430 -208v-26z" />
    <glyph glyph-name="less.osf" horiz-adv-x="530" 
d="M45 228v26l430 208v-29l-401 -192l401 -192v-29z" />
    <glyph glyph-name="minus.osf" horiz-adv-x="532" 
d="M45 231v24h442v-24h-442z" />
    <glyph glyph-name="multiply.osf" horiz-adv-x="472" 
d="M236 223l-168 -168l-19 19l168 168l-168 168l19 19l168 -168l168 168l19 -19l-168 -168l168 -168l-19 -19z" />
    <glyph glyph-name="nacute.pl" horiz-adv-x="606" 
d="M250 0h-209v2q25 75 25 174l-1 113q0 56 -11.5 91t-38.5 68v2l207 58v-100l4 -1q60 96 168 96q67 0 108.5 -38t41.5 -101v-187q0 -101 24 -175v-2h-209v2q24 72 24 173v179q0 34 -17 54t-52 20q-54 0 -88 -49v-203q0 -100 24 -174v-2zM319 749l115 -70l-156 -137l-9 6z
" />
    <glyph glyph-name="nine.osf" horiz-adv-x="592" 
d="M292 509q119 0 194 -86.5t75 -209.5q0 -53 -14.5 -105t-50 -108.5t-88.5 -103.5t-138 -87t-191 -62l-3 10q167 50 245 199q24 44 39 90q-14 -17 -37 -28q-25 -11 -63 -11q-98 0 -163 71t-65 174q0 108 74.5 182.5t185.5 74.5zM294 488q-93 0 -93 -240q0 -213 90 -213
q59 0 83 60q18 73 18 156q0 100 -23.5 168.5t-74.5 68.5z" />
    <glyph glyph-name="oacute.pl" horiz-adv-x="588" 
d="M294 -15q-110 0 -189.5 76.5t-79.5 181.5t79.5 182.5t189.5 77.5t189.5 -77.5t79.5 -182.5t-79.5 -181.5t-189.5 -76.5zM294 4q51 0 77 64.5t26 174.5q0 111 -26 176t-77 65q-52 0 -77.5 -64.5t-25.5 -176.5q0 -110 26 -174.5t77 -64.5zM310 749l115 -70l-156 -137l-9 6z
" />
    <glyph glyph-name="one.osf" horiz-adv-x="320" 
d="M28 0v2q32 34 42 65t10 95v267h-81v11l248 67h2v-345q0 -64 10 -95t42 -65v-2h-273z" />
    <glyph glyph-name="plus.osf" horiz-adv-x="532" 
d="M279 231v-208h-26v208h-208v24h208v208h26v-208h208v-24h-208z" />
    <glyph glyph-name="sacute.pl" horiz-adv-x="429" 
d="M373 360l-9 -2q-49 68 -84 97t-72 29q-31 0 -52 -17.5t-21 -46.5q0 -24 19.5 -44t38 -29t61.5 -26q8 -3 12 -5q32 -14 52.5 -27t43 -33t34 -49t11.5 -65q0 -80 -57.5 -118.5t-149.5 -38.5q-91 0 -163 31l-14 140l9 2q51 -78 97 -116.5t95 -38.5q36 0 53.5 18.5t17.5 46.5
q0 19 -8 34t-28 28.5t-35 21.5t-47 22q-34 16 -53.5 27t-44 32t-36.5 50t-12 66q0 77 57.5 115t147.5 38q73 0 124 -17zM224 749l115 -70l-156 -137l-9 6z" />
    <glyph glyph-name="seven.osf" horiz-adv-x="480" 
d="M5 -245q77 185 170 325t216 289h-370l26 128h425v-10q-189 -364 -296 -732h-171z" />
    <glyph glyph-name="six.osf" horiz-adv-x="592" 
d="M303 -10q-119 0 -194 86.5t-75 209.5q0 53 14.5 105t50 108.5t88.5 103.5t138 87t191 62l3 -10q-111 -33 -181.5 -110.5t-103.5 -179.5q33 40 101 40q98 0 163 -71t65 -174q0 -108 -74.5 -182.5t-185.5 -74.5zM301 11q93 0 93 240q0 213 -90 213q-59 0 -83 -60
q-18 -73 -18 -156q0 -100 23.5 -168.5t74.5 -68.5z" />
    <glyph glyph-name="three.osf" horiz-adv-x="489" 
d="M189 -245q-103 0 -162 41l-25 166l8 2q55 -99 97.5 -144.5t91.5 -45.5q51 0 82.5 45.5t31.5 111.5q0 88 -54.5 142.5t-139.5 74.5v5q87 21 135 75.5t48 134.5q0 56 -22.5 90.5t-56.5 34.5q-37 0 -72.5 -40.5t-85.5 -123.5l-7 2l20 149q58 32 159 32q96 0 155 -38t59 -106
q0 -104 -139 -153q70 -34 111.5 -90.5t41.5 -130.5q0 -103 -79.5 -168.5t-196.5 -65.5z" />
    <glyph glyph-name="three.osfalt" horiz-adv-x="489" 
d="M189 -245q-103 0 -162 41l-25 166l8 2q55 -99 97.5 -144.5t91.5 -45.5q51 0 82.5 45.5t31.5 111.5q0 88 -54.5 142.5t-139.5 74.5v5q83 20 123 66t40 107q0 53 -28.5 82.5t-83.5 29.5q-72 0 -123 -39l-5 6q70 102 210 102q83 0 136.5 -38.5t53.5 -103.5q0 -103 -124 -158
q68 -34 107.5 -89.5t39.5 -128.5q0 -103 -79.5 -168.5t-196.5 -65.5z" />
    <glyph glyph-name="two.osf" horiz-adv-x="506" 
d="M24 0v8q128 89 182.5 174.5t54.5 179.5q0 59 -19.5 91.5t-52.5 32.5q-64 0 -145 -148l-7 2l21 134q59 33 158 33q105 0 162 -36t57 -109q0 -71 -57 -128t-175 -105h172q40 0 59 11.5t42 45.5l7 -3l-43 -183h-416z" />
    <glyph glyph-name="two.osfalt" horiz-adv-x="505" 
d="M24 0v8q133 93 192 166.5t59 149.5q0 114 -113 114q-66 0 -117 -39l-5 6q70 102 208 102q86 0 139 -39.5t53 -111.5t-57 -125t-177 -102h169q40 0 59 11.5t42 45.5l7 -3l-43 -183h-416z" />
    <glyph glyph-name="zacute.pl" horiz-adv-x="487" 
d="M15 0v8l257 463l-76 -4q-15 -1 -30.5 -8t-34 -23.5t-30 -27.5t-36 -37.5t-33.5 -36.5l-7 2l41 151h385v-8l-257 -464l93 4q42 1 79.5 36.5t94.5 116.5l7 -2l-40 -170h-413zM270 749l115 -70l-156 -137l-9 6z" />
    <glyph glyph-name="zero.osf" horiz-adv-x="591" 
d="M295 -10q-111 0 -191 77t-80 181t80.5 181.5t190.5 77.5t191 -78t81 -181t-80.5 -180.5t-191.5 -77.5zM295 11q97 0 97 237q0 238 -97 238t-97 -238q0 -237 97 -237z" />
    <glyph glyph-name="NULL" horiz-adv-x="0" 
 />
    <glyph glyph-name="CR" horiz-adv-x="167" 
 />
    </font>
</defs>
</svg>
